<svg width="1080" height="1080" viewBox="0 0 1080 1080" fill="none" xmlns="http://www.w3.org/2000/svg">
<g clip-path="url(#clip0_5141_4713)">
<rect width="1080" height="1080" fill="url(#paint0_linear_5141_4713)" fill-opacity="0.85"/>
<path opacity="0.1" d="M1354.17 360.04C1349.55 365.665 1331.33 380.884 1313.2 393.504C1295.33 406.405 1268.5 422.237 1253.44 429.108C1238.37 435.979 1215.71 444.585 1203.35 448.545C1190.74 452.224 1161.94 457.731 1139.23 460.337C1113.63 463.495 1081.12 463.75 1052.89 460.7C1028.02 458.18 992.64 451.427 974.102 446.288L953.188 439.916C948.607 438.52 944.669 443.462 947.02 447.633C967.405 483.801 982.617 514.391 994.206 539.142C1006.75 566.739 1024.42 610.91 1033.35 637.696C1042.55 664.242 1054.38 704.555 1060.07 727.171C1065.77 749.786 1073.31 786.366 1076.7 808.014C1080.09 829.663 1084.17 861.272 1085.92 877.835C1087.41 894.638 1089.18 910.682 1089.59 913.843C1090.24 917.284 1104.74 918.971 1136.74 918.674C1162.24 918.116 1203.67 915.449 1229 912.531C1254.07 909.332 1300.93 900.324 1333.47 891.989C1365.49 883.613 1410.46 869.239 1432.62 860.072C1455.04 851.185 1486.49 836.768 1502.67 827.901C1519.09 819.314 1545.92 803.483 1562.93 792.858C1579.7 781.954 1613.06 757.784 1636.61 738.822L1674.86 707.925C1677.21 706.029 1677.5 702.557 1675.49 700.304L1367.02 353.918C1364.85 351.483 1361.01 351.575 1358.96 354.111L1354.17 360.04ZM569.922 486.545L412.658 626.597C410.634 628.399 410.304 631.441 411.89 633.639C425.362 652.307 437.289 669.208 447.481 683.687C457.853 699.119 472.81 724.564 480.053 740.265C487.296 755.967 497.549 782.076 502.699 798.131C507.849 814.186 514.612 843.404 517.828 862.692C521.043 881.98 522.649 917.301 521.8 941.215C520.951 965.129 516.585 1000.23 512.291 1018.66C507.978 1037.6 499.241 1064.01 493.557 1077.63C487.873 1091.25 475.867 1114.53 467.035 1128.94C458.203 1143.35 439.381 1168.16 425.827 1183.76C412.005 1199.59 394.516 1216.17 387.59 1220.83L379.938 1225.84C377.239 1227.6 376.739 1231.35 378.883 1233.76L687.134 1580.43C689.149 1582.69 692.67 1582.79 694.819 1580.65C750.61 1525.1 777.743 1496.03 790.759 1480.01C804.063 1464.14 824.82 1436.09 836.892 1418.29C848.696 1400.73 866.915 1370.91 876.931 1352.43C886.948 1333.94 904.443 1295.2 915.616 1266.12C926.77 1237.56 940.478 1195.65 946.207 1173.43C951.418 1151.17 957.692 1120.91 960.57 1105.76C963.179 1090.86 966.916 1058.83 969.071 1034.76C971.225 1010.69 972.591 972.22 971.848 949.22C971.104 926.221 968.535 888.737 965.949 866.371C963.381 843.486 957.7 805.752 952.809 782.419C948.185 758.847 938.606 721.061 931.354 698.32C924.101 675.58 911.568 640.424 903.186 620.199C895.072 599.736 879.105 566.129 868.399 545.457C857.442 524.504 838.095 490.886 825.296 470.567C812.497 450.249 788.002 415.174 770.841 393.202C753.949 370.99 737.771 350.661 735.27 347.853C731.27 343.361 721.622 351.449 570.191 486.306L569.922 486.545Z" fill="url(#paint1_linear_5141_4713)"/>
<path d="M163.151 999.939H158.605L157.564 1002H153.076L160.473 988.36H165.405L167.967 1002H163.459L163.151 999.939ZM162.689 996.721L162.13 992.926L160.223 996.721H162.689ZM175.335 988.36L173.986 996.047C173.948 996.253 173.929 996.465 173.929 996.683C173.929 997.12 174.044 997.466 174.275 997.723C174.507 997.967 174.873 998.089 175.374 998.089C175.99 998.089 176.478 997.909 176.838 997.55C177.197 997.177 177.435 996.676 177.55 996.047L178.899 988.36H183.157L181.808 996.047C181.577 997.383 181.114 998.507 180.421 999.419C179.74 1000.33 178.899 1001.01 177.897 1001.46C176.908 1001.91 175.817 1002.13 174.622 1002.13C173.094 1002.13 171.874 1001.74 170.962 1000.94C170.05 1000.13 169.594 998.982 169.594 997.492C169.594 997.017 169.639 996.535 169.729 996.047L171.077 988.36H175.335ZM195.52 988.36L194.923 991.751H191.301L189.49 1002H185.213L187.024 991.751H183.441L184.038 988.36H195.52ZM209.106 988.36L206.697 1002H202.421L203.365 996.683H199.3L198.356 1002H194.079L196.487 988.36H200.764L199.897 993.273H203.962L204.829 988.36H209.106ZM214.517 991.751L214.228 993.446H218.466L217.888 996.664H213.65L213.303 998.59H218.119L217.522 1002H208.429L210.837 988.36H219.93L219.333 991.751H214.517ZM232.022 1002H227.745L224.432 995.142L223.218 1002H218.941L221.349 988.36H225.626L228.92 995.334L230.153 988.36H234.43L232.022 1002ZM246.881 988.36L246.284 991.751H242.662L240.851 1002H236.574L238.385 991.751H234.802L235.399 988.36H246.881ZM252.125 988.36L249.717 1002H245.44L247.848 988.36H252.125ZM252.284 995.161C252.516 993.812 252.997 992.612 253.729 991.558C254.461 990.505 255.386 989.69 256.503 989.112C257.621 988.521 258.867 988.226 260.241 988.226C261.422 988.226 262.437 988.45 263.285 988.9C264.145 989.337 264.8 989.959 265.25 990.769C265.699 991.578 265.918 992.522 265.905 993.601H261.397C261.268 993.151 261.037 992.804 260.703 992.56C260.369 992.303 259.958 992.175 259.47 992.175C258.751 992.175 258.135 992.445 257.621 992.984C257.107 993.523 256.773 994.249 256.619 995.161C256.568 995.418 256.542 995.694 256.542 995.989C256.542 996.657 256.703 997.184 257.024 997.569C257.358 997.954 257.826 998.147 258.43 998.147C258.918 998.147 259.374 998.025 259.798 997.781C260.222 997.524 260.575 997.171 260.857 996.721H265.365C264.98 997.8 264.421 998.744 263.689 999.553C262.957 1000.36 262.084 1000.99 261.069 1001.44C260.067 1001.88 258.976 1002.1 257.794 1002.1C256.6 1002.1 255.579 1001.88 254.731 1001.44C253.883 1000.99 253.241 1000.36 252.805 999.553C252.368 998.731 252.15 997.781 252.15 996.702C252.15 996.176 252.195 995.662 252.284 995.161Z" fill="#C4F51B"/>
<path d="M157.934 1011.23L156.212 1021H154.238L155.974 1011.23H157.934ZM163.146 1011.23C164.052 1011.23 164.831 1011.39 165.484 1011.7C166.147 1012.01 166.651 1012.46 166.996 1013.03C167.351 1013.61 167.528 1014.3 167.528 1015.09C167.528 1015.45 167.496 1015.79 167.43 1016.13C167.262 1017.11 166.898 1017.97 166.338 1018.7C165.788 1019.43 165.088 1020 164.238 1020.4C163.389 1020.8 162.446 1021 161.41 1021H157.994L159.73 1011.23H163.146ZM161.634 1019.4C162.661 1019.4 163.501 1019.11 164.154 1018.54C164.817 1017.96 165.242 1017.15 165.428 1016.13C165.475 1015.82 165.498 1015.55 165.498 1015.33C165.498 1014.55 165.265 1013.94 164.798 1013.51C164.341 1013.08 163.669 1012.87 162.782 1012.87H161.41L160.262 1019.4H161.634ZM168.744 1021.1C168.436 1021.1 168.188 1021.01 168.002 1020.83C167.815 1020.65 167.722 1020.43 167.722 1020.16C167.722 1019.79 167.862 1019.47 168.142 1019.21C168.431 1018.94 168.767 1018.8 169.15 1018.8C169.458 1018.8 169.7 1018.89 169.878 1019.07C170.064 1019.24 170.158 1019.46 170.158 1019.74C170.158 1020.11 170.018 1020.44 169.738 1020.71C169.458 1020.97 169.126 1021.1 168.744 1021.1ZM168.744 1015.3C168.436 1015.3 168.188 1015.21 168.002 1015.04C167.815 1014.86 167.722 1014.63 167.722 1014.36C167.722 1013.99 167.862 1013.67 168.142 1013.41C168.431 1013.14 168.767 1013.01 169.15 1013.01C169.458 1013.01 169.7 1013.09 169.878 1013.27C170.064 1013.44 170.158 1013.66 170.158 1013.94C170.158 1014.32 170.018 1014.64 169.738 1014.91C169.458 1015.17 169.126 1015.3 168.744 1015.3Z" fill="white"/>
<g clip-path="url(#clip1_5141_4713)">
<path d="M178.345 957.795L168.813 967.038L174.814 978.067H166.211L163.269 972.411L161.962 973.671L161.256 978.067H154L157.269 957.795H164.499L163.244 965.585L170.84 957.795H178.344H178.345Z" fill="white"/>
<path d="M209.905 972.465H215.279L214.377 978.069H201.76L205.028 957.797H212.258L209.905 972.465Z" fill="white"/>
<path d="M233.178 963.4H225.53L225.229 965.251H231.283L230.537 969.853H224.484L224.079 972.463H231.74L230.825 978.067H215.973L219.228 957.795H234.094L233.178 963.4V963.4Z" fill="white"/>
<path d="M246.012 965.844H256.001C255.705 967.686 255.24 969.323 254.608 970.754C253.976 972.186 253.251 973.354 252.431 974.258C251.612 975.162 250.675 975.905 249.62 976.488C248.566 977.071 247.502 977.48 246.43 977.716C245.358 977.952 244.216 978.07 243.005 978.07C241.698 978.07 240.468 977.885 239.318 977.517C238.168 977.149 237.146 976.617 236.253 975.923C235.36 975.229 234.651 974.327 234.128 973.217C233.605 972.107 233.344 970.862 233.344 969.482C233.344 967.7 233.688 966.031 234.377 964.475C235.065 962.919 235.998 961.598 237.175 960.509C238.352 959.421 239.742 958.564 241.346 957.938C242.949 957.313 244.64 957 246.418 957C248.292 957 249.989 957.364 251.511 958.092C253.032 958.821 254.198 959.871 255.008 961.242L248.72 965.163C248.606 964.332 248.273 963.751 247.72 963.421C247.166 963.091 246.41 962.926 245.451 962.926C244.658 962.926 243.962 963.089 243.365 963.414C242.769 963.74 242.293 964.188 241.94 964.758C241.588 965.328 241.326 965.966 241.156 966.673C240.986 967.38 240.901 968.149 240.901 968.981C240.901 971.089 241.926 972.143 243.974 972.143C245.656 972.143 246.898 971.492 247.7 970.189H243.386L246.014 965.844H246.012Z" fill="white"/>
<path d="M255.686 977.669L257.592 965.842H264.849L262.942 977.669H255.686Z" fill="white"/>
<path d="M283.053 957.396L282.138 963.001H278.15L275.797 977.669H268.593L270.946 963.001H258.053L258.956 957.396H283.052H283.053Z" fill="white"/>
<path d="M176.07 978.071L177.977 966.244H185.234L183.327 978.071H176.07Z" fill="white"/>
<path d="M203.436 957.795L202.52 963.4H198.533L196.179 978.067H188.975L191.329 963.4H178.436L179.339 957.795H203.435H203.436Z" fill="white"/>
</g>
<g clip-path="url(#clip2_5141_4713)">
<path d="M125.391 1008.9C128.976 1002.95 131.041 995.977 131.041 988.526C131.041 966.697 113.352 949.004 91.5322 949.004C72.3309 949.004 56.3352 962.707 52.7715 980.872C63.3071 988.286 75.921 994.926 89.9992 1000.09C102.11 1004.53 114.105 1007.44 125.391 1008.9Z" fill="#A5D90D"/>
<path d="M91.5322 1028.05C105.903 1028.05 118.477 1020.37 125.391 1008.89C114.105 1007.44 102.11 1004.53 89.9992 1000.09C75.9209 994.925 63.3071 988.285 52.7715 980.871C52.2842 983.348 52.0234 985.906 52.0234 988.525C52.0234 1010.35 69.7128 1028.05 91.5322 1028.05Z" fill="#DEFE71"/>
<g opacity="0.7">
<path fill-rule="evenodd" clip-rule="evenodd" d="M91.5323 1022.69C72.6972 1022.69 57.373 1007.37 57.373 988.526C57.373 986.642 57.5284 984.756 57.834 982.917C59.1325 975.023 63.2151 967.793 69.3231 962.56C75.4997 957.27 83.3882 954.355 91.5323 954.355C110.367 954.355 125.689 969.685 125.689 988.526C125.689 995.108 123.816 1001.5 120.271 1007C113.942 1016.83 103.198 1022.69 91.5323 1022.69ZM91.5323 954.553C74.8306 954.553 60.7392 966.497 58.0289 982.951C57.726 984.777 57.5706 986.653 57.5706 988.526C57.5706 1007.26 72.8052 1022.5 91.5323 1022.5C103.129 1022.5 113.813 1016.66 120.105 1006.89C123.629 1001.42 125.491 995.071 125.491 988.526C125.491 969.793 110.257 954.553 91.5323 954.553Z" fill="white"/>
</g>
<g opacity="0.69">
<path fill-rule="evenodd" clip-rule="evenodd" d="M91.5332 1022.66C72.7165 1022.66 57.4082 1007.35 57.4082 988.525C57.4082 986.644 57.5636 984.757 57.8691 982.923C59.1677 975.035 63.245 967.813 69.3477 962.586C75.5164 957.3 83.397 954.389 91.5332 954.389C110.35 954.389 125.656 969.702 125.656 988.525C125.656 995.099 123.785 1001.48 120.243 1006.98C113.921 1016.8 103.188 1022.66 91.5332 1022.66ZM91.5332 954.586C74.8474 954.586 60.7691 966.517 58.0614 982.955C57.7585 984.781 57.6057 986.654 57.6057 988.525C57.6057 1007.24 72.8245 1022.46 91.5332 1022.46C103.12 1022.46 113.792 1016.63 120.077 1006.87C123.598 1001.41 125.461 995.062 125.461 988.525C125.461 969.81 110.239 954.586 91.5332 954.586Z" fill="white"/>
</g>
<g opacity="0.69">
<path fill-rule="evenodd" clip-rule="evenodd" d="M91.5334 1022.62C72.7378 1022.62 57.4453 1007.33 57.4453 988.524C57.4453 986.645 57.5981 984.762 57.901 982.928C59.1995 975.05 63.2742 967.833 69.369 962.611C75.535 957.331 83.4052 954.422 91.5334 954.422C110.329 954.422 125.622 969.719 125.622 988.524C125.622 995.093 123.752 1001.47 120.214 1006.96C113.898 1016.77 103.175 1022.62 91.5334 1022.62ZM91.5334 954.619C74.8634 954.619 60.8009 966.537 58.0959 982.959C57.793 984.783 57.6402 986.656 57.6402 988.524C57.6402 1007.22 72.8432 1022.43 91.5334 1022.43C103.11 1022.43 113.769 1016.61 120.051 1006.85C123.567 1001.39 125.427 995.056 125.427 988.524C125.427 969.828 110.221 954.619 91.5334 954.619Z" fill="white"/>
</g>
<g opacity="0.68">
<path fill-rule="evenodd" clip-rule="evenodd" d="M91.5324 1022.59C72.7552 1022.59 57.4785 1007.31 57.4785 988.526C57.4785 986.648 57.6313 984.766 57.9342 982.935C59.2327 975.065 63.3021 967.856 69.3917 962.639C75.5498 957.364 83.412 954.461 91.5324 954.461C110.31 954.461 125.586 969.743 125.586 988.526C125.586 995.087 123.719 1001.46 120.184 1006.94C113.873 1016.74 103.164 1022.59 91.5324 1022.59ZM91.5324 954.653C74.8808 954.653 60.8315 966.563 58.1265 982.967C57.8262 984.787 57.6734 986.658 57.6734 988.526C57.6734 1007.2 72.8632 1022.4 91.5324 1022.4C103.098 1022.4 113.747 1016.58 120.021 1006.84C123.534 1001.38 125.391 995.05 125.391 988.526C125.391 969.848 110.202 954.653 91.5324 954.653Z" fill="white"/>
</g>
<g opacity="0.67">
<path fill-rule="evenodd" clip-rule="evenodd" d="M91.5333 1022.56C72.7746 1022.56 57.5137 1007.29 57.5137 988.525C57.5137 986.649 57.6664 984.771 57.9693 982.939C59.2652 975.077 63.3294 967.876 69.4137 962.665C75.5665 957.395 83.4209 954.494 91.5333 954.494C110.292 954.494 125.553 969.76 125.553 988.525C125.553 995.08 123.688 1001.44 120.156 1006.92C113.853 1016.71 103.152 1022.56 91.5333 1022.56ZM91.5333 954.686C74.8975 954.686 60.8614 966.583 58.1616 982.971C57.8587 984.792 57.7059 986.66 57.7059 988.525C57.7059 1007.18 72.8799 1022.36 91.5333 1022.36C103.086 1022.36 113.724 1016.55 119.993 1006.82C123.504 1001.37 125.358 995.044 125.358 988.525C125.358 969.866 110.184 954.686 91.5333 954.686Z" fill="white"/>
</g>
<g opacity="0.67">
<path fill-rule="evenodd" clip-rule="evenodd" d="M91.5323 1022.52C72.792 1022.52 57.5469 1007.27 57.5469 988.524C57.5469 986.648 57.6996 984.772 58.0025 982.944C59.2984 975.089 63.3573 967.896 69.4364 962.69C75.5813 957.426 83.4277 954.527 91.5323 954.527C110.273 954.527 125.518 969.778 125.518 988.524C125.518 995.074 123.653 1001.43 120.126 1006.9C113.828 1016.68 103.14 1022.52 91.5323 1022.52ZM91.5323 954.72C74.9123 954.72 60.8919 966.603 58.1922 982.975C57.8919 984.793 57.7392 986.661 57.7392 988.524C57.7392 1007.16 72.8973 1022.33 91.5323 1022.33C103.074 1022.33 113.702 1016.52 119.965 1006.8C123.471 1001.36 125.325 995.035 125.325 988.524C125.325 969.883 110.165 954.72 91.5323 954.72Z" fill="white"/>
</g>
<g opacity="0.66">
<path fill-rule="evenodd" clip-rule="evenodd" d="M91.5332 1022.49C72.8113 1022.49 57.582 1007.25 57.582 988.525C57.582 986.654 57.7348 984.778 58.0377 982.95C59.331 975.103 63.3872 967.918 69.461 962.717C75.598 957.458 83.4392 954.562 91.5332 954.562C110.252 954.562 125.484 969.797 125.484 988.525C125.484 995.067 123.622 1001.42 120.098 1006.88C113.806 1016.65 103.128 1022.49 91.5332 1022.49ZM91.5332 954.755C74.929 954.755 60.9218 966.625 58.2273 982.981C57.9271 984.799 57.7743 986.662 57.7743 988.525C57.7743 1007.15 72.9193 1022.3 91.5332 1022.3C103.062 1022.3 113.682 1016.5 119.937 1006.78C123.44 1001.34 125.292 995.03 125.292 988.525C125.292 969.902 110.147 954.755 91.5332 954.755Z" fill="white"/>
</g>
<g opacity="0.65">
<path fill-rule="evenodd" clip-rule="evenodd" d="M91.5322 1022.45C72.8314 1022.45 57.6152 1007.23 57.6152 988.526C57.6152 986.655 57.768 984.782 58.0709 982.956C59.3642 975.12 63.4151 967.94 69.481 962.744C75.6128 957.491 83.446 954.598 91.5322 954.598C110.233 954.598 125.449 969.819 125.449 988.526C125.449 995.06 123.587 1001.4 120.068 1006.87C113.783 1016.63 103.116 1022.45 91.5322 1022.45ZM91.5322 954.787C74.9464 954.787 60.9524 966.649 58.2605 982.988C57.9576 984.803 57.8075 986.666 57.8075 988.526C57.8075 1007.13 72.9367 1022.26 91.5322 1022.26C103.05 1022.26 113.657 1016.47 119.907 1006.76C123.408 1001.33 125.257 995.023 125.257 988.526C125.257 969.922 110.128 954.787 91.5322 954.787Z" fill="white"/>
</g>
<g opacity="0.64">
<path fill-rule="evenodd" clip-rule="evenodd" d="M91.5331 1022.42C72.8507 1022.42 57.6504 1007.21 57.6504 988.525C57.6504 986.657 57.8032 984.786 58.1061 982.963C59.3967 975.132 63.445 967.96 69.5056 962.77C75.6321 957.521 83.4549 954.631 91.5331 954.631C110.215 954.631 125.413 969.836 125.413 988.525C125.413 995.054 123.556 1001.39 120.04 1006.85C113.761 1016.6 103.104 1022.42 91.5331 1022.42ZM91.5331 954.821C74.9631 954.821 60.9823 966.669 58.2931 982.992C57.9928 984.807 57.84 986.667 57.84 988.525C57.84 1007.11 72.9561 1022.23 91.5331 1022.23C103.041 1022.23 113.637 1016.44 119.879 1006.74C123.377 1001.32 125.223 995.017 125.223 988.525C125.223 969.939 110.11 954.821 91.5331 954.821Z" fill="white"/>
</g>
<g opacity="0.64">
<path fill-rule="evenodd" clip-rule="evenodd" d="M91.532 1022.38C72.8681 1022.38 57.6836 1007.19 57.6836 988.524C57.6836 986.658 57.8364 984.788 58.1393 982.967C59.4272 975.144 63.4729 967.98 69.5257 962.795C75.6469 957.552 83.4617 954.664 91.532 954.664C110.196 954.664 125.378 969.854 125.378 988.524C125.378 995.045 123.524 1001.38 120.01 1006.83C113.739 1016.57 103.092 1022.38 91.532 1022.38ZM91.532 954.854C74.9779 954.854 61.0129 966.689 58.3263 982.996C58.026 984.809 57.8732 986.669 57.8732 988.524C57.8732 1007.09 72.9735 1022.19 91.532 1022.19C103.026 1022.19 113.615 1016.41 119.852 1006.72C123.344 1001.3 125.191 995.008 125.191 988.524C125.191 969.956 110.091 954.854 91.532 954.854Z" fill="white"/>
</g>
<g opacity="0.63">
<path fill-rule="evenodd" clip-rule="evenodd" d="M91.533 1022.35C72.8875 1022.35 57.7188 1007.17 57.7188 988.525C57.7188 986.662 57.8715 984.794 58.1744 982.973C59.4624 975.158 63.5028 968.002 69.5503 962.822C75.6636 957.584 83.4705 954.699 91.533 954.699C110.178 954.699 125.345 969.873 125.345 988.525C125.345 995.041 123.49 1001.36 119.982 1006.81C113.716 1016.54 103.08 1022.35 91.533 1022.35ZM91.533 954.889C74.9946 954.889 61.0454 966.711 58.3588 983.005C58.0612 984.815 57.9084 986.672 57.9084 988.525C57.9084 1007.07 72.9928 1022.16 91.533 1022.16C103.017 1022.16 113.592 1016.38 119.824 1006.71C123.314 1001.29 125.158 995.004 125.158 988.525C125.158 969.978 110.073 954.889 91.533 954.889Z" fill="white"/>
</g>
<g opacity="0.62">
<path fill-rule="evenodd" clip-rule="evenodd" d="M91.5312 1022.31C72.9068 1022.31 57.7539 1007.16 57.7539 988.526C57.7539 986.663 57.9067 984.797 58.2069 982.979C59.4923 975.172 63.5274 968.024 69.5697 962.85C75.6777 957.617 83.4767 954.734 91.5312 954.734C110.156 954.734 125.309 969.892 125.309 988.526C125.309 995.034 123.457 1001.35 119.951 1006.79C113.69 1016.51 103.068 1022.31 91.5312 1022.31ZM91.5312 954.921C75.0113 954.921 61.0726 966.736 58.3913 983.011C58.091 984.818 57.9409 986.673 57.9409 988.526C57.9409 1007.05 73.0095 1022.13 91.5312 1022.13C103.005 1022.13 113.569 1016.36 119.793 1006.69C123.28 1001.28 125.122 994.999 125.122 988.526C125.122 969.998 110.053 954.921 91.5312 954.921Z" fill="white"/>
</g>
<g opacity="0.62">
<path fill-rule="evenodd" clip-rule="evenodd" d="M91.5322 1022.28C72.9262 1022.28 57.7891 1007.14 57.7891 988.524C57.7891 986.661 57.9418 984.798 58.2421 982.983C59.5274 975.187 63.5573 968.044 69.5943 962.874C75.6944 957.647 83.4855 954.77 91.5322 954.77C110.138 954.77 125.275 969.912 125.275 988.524C125.275 995.027 123.424 1001.34 119.923 1006.77C113.67 1016.48 103.056 1022.28 91.5322 1022.28ZM91.5322 954.954C75.028 954.954 61.1052 966.755 58.4265 983.015C58.1262 984.819 57.9734 986.672 57.9734 988.524C57.9734 1007.03 73.0289 1022.09 91.5322 1022.09C102.992 1022.09 113.546 1016.33 119.768 1006.67C123.25 1001.27 125.088 994.99 125.088 988.524C125.088 970.014 110.035 954.954 91.5322 954.954Z" fill="white"/>
</g>
<g opacity="0.61">
<path fill-rule="evenodd" clip-rule="evenodd" d="M91.5331 1022.24C72.9455 1022.24 57.8242 1007.12 57.8242 988.525C57.8242 986.665 57.977 984.804 58.2773 982.989C59.56 975.201 63.5872 968.066 69.6163 962.901C75.7111 957.679 83.4944 954.805 91.5331 954.805C110.121 954.805 125.242 969.931 125.242 988.525C125.242 995.02 123.393 1001.32 119.895 1006.75C113.647 1016.45 103.046 1022.24 91.5331 1022.24ZM91.5331 954.989C75.0448 954.989 61.135 966.777 58.459 983.021C58.1587 984.823 58.0086 986.675 58.0086 988.525C58.0086 1007.02 73.0483 1022.06 91.5331 1022.06C102.983 1022.06 113.526 1016.3 119.74 1006.65C123.219 1001.25 125.058 994.985 125.058 988.525C125.058 970.034 110.018 954.989 91.5331 954.989Z" fill="white"/>
</g>
<g opacity="0.6">
<path fill-rule="evenodd" clip-rule="evenodd" d="M91.534 1022.21C72.9649 1022.21 57.8594 1007.1 57.8594 988.526C57.8594 986.668 58.0121 984.808 58.3124 982.995C59.5951 975.215 63.6171 968.088 69.6409 962.929C75.7279 957.712 83.5032 954.84 91.534 954.84C110.1 954.84 125.209 969.95 125.209 988.526C125.209 995.015 123.362 1001.31 119.867 1006.73C113.627 1016.43 103.034 1022.21 91.534 1022.21ZM91.534 955.024C75.0641 955.024 61.1676 966.799 58.4941 983.027C58.1939 984.826 58.0437 986.679 58.0437 988.526C58.0437 1007 73.0676 1022.03 91.534 1022.03C102.97 1022.03 113.506 1016.27 119.712 1006.64C123.188 1001.24 125.024 994.978 125.024 988.526C125.024 970.053 110 955.024 91.534 955.024Z" fill="white"/>
</g>
<g opacity="0.6">
<path fill-rule="evenodd" clip-rule="evenodd" d="M91.5329 1022.17C72.9849 1022.17 57.8926 1007.08 57.8926 988.525C57.8926 986.67 58.0453 984.812 58.3456 983.002C59.6257 975.227 63.645 968.108 69.6609 962.954C75.7453 957.742 83.5127 954.873 91.5329 954.873C110.081 954.873 125.173 969.968 125.173 988.525C125.173 995.006 123.327 1001.3 119.837 1006.72C113.603 1016.4 103.022 1022.17 91.5329 1022.17ZM91.5329 955.055C75.0789 955.055 61.1955 966.822 58.5247 983.031C58.2271 984.831 58.077 986.68 58.077 988.525C58.077 1006.98 73.085 1021.99 91.5329 1021.99C102.959 1021.99 113.484 1016.25 119.682 1006.62C123.156 1001.23 124.989 994.972 124.989 988.525C124.989 970.071 109.981 955.055 91.5329 955.055Z" fill="white"/>
</g>
<g opacity="0.59">
<path fill-rule="evenodd" clip-rule="evenodd" d="M91.5319 1022.14C73.0023 1022.14 57.9258 1007.06 57.9258 988.526C57.9258 986.673 58.0785 984.816 58.3788 983.008C59.6563 975.241 63.673 968.13 69.6836 962.981C75.76 957.775 83.5195 954.908 91.5319 954.908C110.062 954.908 125.138 969.99 125.138 988.526C125.138 995.002 123.294 1001.29 119.807 1006.7C113.578 1016.37 103.008 1022.14 91.5319 1022.14ZM91.5319 955.09C75.0936 955.09 61.2261 966.844 58.5579 983.037C58.2603 984.837 58.1075 986.684 58.1075 988.526C58.1075 1006.96 73.1024 1021.96 91.5319 1021.96C102.947 1021.96 113.459 1016.22 119.654 1006.6C123.12 1001.21 124.954 994.965 124.954 988.526C124.954 970.09 109.961 955.09 91.5319 955.09Z" fill="white"/>
</g>
<g opacity="0.58">
<path fill-rule="evenodd" clip-rule="evenodd" d="M91.5328 1022.1C73.0217 1022.1 57.9609 1007.04 57.9609 988.524C57.9609 986.675 58.1137 984.82 58.414 983.012C59.6914 975.253 63.7029 968.15 69.7056 963.007C75.7767 957.805 83.5284 954.941 91.5328 954.941C110.044 954.941 125.102 970.007 125.102 988.524C125.102 994.993 123.261 1001.27 119.779 1006.68C113.558 1016.34 102.998 1022.1 91.5328 1022.1ZM91.5328 955.123C75.1104 955.123 61.256 966.864 58.5904 983.041C58.2928 984.841 58.1427 986.685 58.1427 988.524C58.1427 1006.94 73.1218 1021.93 91.5328 1021.93C102.938 1021.93 113.439 1016.19 119.626 1006.58C123.09 1001.2 124.923 994.959 124.923 988.524C124.923 970.107 109.944 955.123 91.5328 955.123Z" fill="white"/>
</g>
<g opacity="0.58">
<path fill-rule="evenodd" clip-rule="evenodd" d="M91.5331 1022.07C73.0403 1022.07 57.998 1007.02 57.998 988.525C57.998 986.676 58.1482 984.823 58.4458 983.019C59.7233 975.27 63.7321 968.172 69.7295 963.034C75.7928 957.838 83.5365 954.977 91.5331 954.977C110.023 954.977 125.068 970.026 125.068 988.525C125.068 994.989 123.23 1001.26 119.75 1006.66C113.534 1016.31 102.985 1022.07 91.5331 1022.07ZM91.5331 955.158C75.1264 955.158 61.2878 966.886 58.6249 983.048C58.3273 984.845 58.1772 986.686 58.1772 988.525C58.1772 1006.92 73.1404 1021.89 91.5331 1021.89C102.925 1021.89 113.416 1016.16 119.597 1006.56C123.058 1001.19 124.889 994.952 124.889 988.525C124.889 970.127 109.926 955.158 91.5331 955.158Z" fill="white"/>
</g>
<g opacity="0.57">
<path fill-rule="evenodd" clip-rule="evenodd" d="M91.532 1022.04C73.0577 1022.04 58.0312 1007 58.0312 988.524C58.0312 986.677 58.1814 984.828 58.479 983.023C59.7565 975.282 63.7574 968.192 69.7495 963.059C75.8075 957.869 83.5434 955.01 91.532 955.01C110.004 955.01 125.033 970.044 125.033 988.524C125.033 994.98 123.194 1001.25 119.72 1006.64C113.512 1016.28 102.974 1022.04 91.532 1022.04ZM91.532 955.189C75.1438 955.189 61.3184 966.908 58.6555 983.052C58.3605 984.846 58.2104 986.688 58.2104 988.524C58.2104 1006.9 73.1578 1021.86 91.532 1021.86C102.913 1021.86 113.394 1016.13 119.567 1006.54C123.026 1001.18 124.854 994.945 124.854 988.524C124.854 970.144 109.906 955.189 91.532 955.189Z" fill="white"/>
</g>
<g opacity="0.56">
<path fill-rule="evenodd" clip-rule="evenodd" d="M91.5329 1022C73.0797 1022 58.0664 1006.98 58.0664 988.525C58.0664 986.678 58.2165 984.831 58.5142 983.028C59.789 975.295 63.7873 968.213 69.7742 963.083C75.8243 957.9 83.5522 955.047 91.5329 955.047C109.986 955.047 124.999 970.065 124.999 988.525C124.999 994.975 123.164 1001.23 119.692 1006.62C113.489 1016.25 102.964 1022 91.5329 1022ZM91.5329 955.223C75.1605 955.223 61.3483 966.93 58.6906 983.057C58.393 984.849 58.2429 986.688 58.2429 988.525C58.2429 1006.89 73.1772 1021.82 91.5329 1021.82C102.901 1021.82 113.373 1016.11 119.542 1006.53C122.995 1001.16 124.82 994.94 124.82 988.525C124.82 970.163 109.889 955.223 91.5329 955.223Z" fill="white"/>
</g>
<g opacity="0.55">
<path fill-rule="evenodd" clip-rule="evenodd" d="M91.5319 1021.97C73.0971 1021.97 58.0996 1006.97 58.0996 988.525C58.0996 986.681 58.2497 984.834 58.5474 983.037C59.8222 975.309 63.8152 968.235 69.7942 963.11C75.8417 957.933 83.559 955.082 91.5319 955.082C109.967 955.082 124.964 970.085 124.964 988.525C124.964 994.968 123.131 1001.22 119.662 1006.61C113.465 1016.23 102.95 1021.97 91.5319 1021.97ZM91.5319 955.259C75.1753 955.259 61.3788 966.952 58.7238 983.066C58.4262 984.853 58.2761 986.689 58.2761 988.525C58.2761 1006.87 73.1946 1021.79 91.5319 1021.79C102.889 1021.79 113.349 1016.08 119.512 1006.51C122.962 1001.15 124.788 994.933 124.788 988.525C124.788 970.182 109.869 955.259 91.5319 955.259Z" fill="white"/>
</g>
<g opacity="0.55">
<path fill-rule="evenodd" clip-rule="evenodd" d="M91.5328 1021.93C73.1165 1021.93 58.1348 1006.94 58.1348 988.524C58.1348 986.683 58.2849 984.836 58.5825 983.041C59.8547 975.321 63.8451 968.252 69.8188 963.136C75.8584 957.963 83.5705 955.115 91.5328 955.115C109.949 955.115 124.931 970.102 124.931 988.524C124.931 994.961 123.098 1001.21 119.634 1006.59C113.444 1016.2 102.94 1021.93 91.5328 1021.93ZM91.5328 955.292C75.192 955.292 61.4087 966.974 58.7564 983.07C58.4614 984.857 58.3112 986.691 58.3112 988.524C58.3112 1006.85 73.2139 1021.76 91.5328 1021.76C102.88 1021.76 113.328 1016.05 119.484 1006.49C122.932 1001.14 124.754 994.927 124.754 988.524C124.754 970.199 109.852 955.292 91.5328 955.292Z" fill="white"/>
</g>
<g opacity="0.54">
<path fill-rule="evenodd" clip-rule="evenodd" d="M91.5337 1021.9C73.1358 1021.9 58.1699 1006.93 58.1699 988.525C58.1699 986.686 58.3201 984.842 58.6177 983.048C59.8899 975.338 63.875 968.274 69.8408 963.163C75.8751 957.996 83.5793 955.15 91.5337 955.15C109.929 955.15 124.898 970.121 124.898 988.525C124.898 994.954 123.067 1001.19 119.603 1006.57C113.422 1016.17 102.928 1021.9 91.5337 1021.9ZM91.5337 955.324C75.2114 955.324 61.4412 966.996 58.7915 983.077C58.4939 984.86 58.3438 986.694 58.3438 988.525C58.3438 1006.83 73.2333 1021.72 91.5337 1021.72C102.867 1021.72 113.306 1016.02 119.456 1006.47C122.901 1001.13 124.721 994.92 124.721 988.525C124.721 970.219 109.834 955.324 91.5337 955.324Z" fill="white"/>
</g>
<g opacity="0.53">
<path fill-rule="evenodd" clip-rule="evenodd" d="M91.5327 1021.86C73.1559 1021.86 58.2031 1006.91 58.2031 988.526C58.2031 986.69 58.3533 984.848 58.6509 983.054C59.9204 975.352 63.9029 968.296 69.8635 963.19C75.8899 958.028 83.5862 955.186 91.5327 955.186C109.91 955.186 124.862 970.141 124.862 988.526C124.862 994.947 123.034 1001.18 119.573 1006.55C113.399 1016.14 102.916 1021.86 91.5327 1021.86ZM91.5327 955.359C75.2261 955.359 61.4692 967.018 58.8221 983.083C58.5271 984.866 58.377 986.698 58.377 988.526C58.377 1006.81 73.2507 1021.69 91.5327 1021.69C102.856 1021.69 113.284 1016 119.428 1006.46C122.868 1001.12 124.686 994.916 124.686 988.526C124.686 970.238 109.815 955.359 91.5327 955.359Z" fill="white"/>
</g>
<g opacity="0.53">
<path fill-rule="evenodd" clip-rule="evenodd" d="M91.5317 1021.83C73.1733 1021.83 58.2363 1006.89 58.2363 988.525C58.2363 986.689 58.3865 984.85 58.6841 983.058C59.951 975.364 63.9309 968.316 69.8861 963.215C75.9046 958.059 83.593 955.219 91.5317 955.219C109.89 955.219 124.827 970.161 124.827 988.525C124.827 994.941 122.999 1001.17 119.543 1006.53C113.375 1016.11 102.902 1021.83 91.5317 1021.83ZM91.5317 955.393C75.2409 955.393 61.4997 967.038 58.8553 983.087C58.5603 984.868 58.4102 986.699 58.4102 988.525C58.4102 1006.79 73.2681 1021.66 91.5317 1021.66C102.844 1021.66 113.261 1015.97 119.398 1006.44C122.836 1001.1 124.653 994.907 124.653 988.525C124.653 970.256 109.795 955.393 91.5317 955.393Z" fill="white"/>
</g>
<g opacity="0.52">
<path fill-rule="evenodd" clip-rule="evenodd" d="M91.5326 1021.79C73.1926 1021.79 58.2715 1006.87 58.2715 988.524C58.2715 986.69 58.4243 984.854 58.7192 983.062C59.9862 975.377 63.9607 968.336 69.9081 963.241C75.9214 958.09 83.6018 955.252 91.5326 955.252C109.873 955.252 124.791 970.178 124.791 988.524C124.791 994.932 122.968 1001.15 119.515 1006.51C113.352 1016.08 102.893 1021.79 91.5326 1021.79ZM91.5326 955.426C75.2602 955.426 61.5296 967.061 58.8878 983.091C58.5955 984.872 58.4453 986.701 58.4453 988.524C58.4453 1006.78 73.2874 1021.62 91.5326 1021.62C102.832 1021.62 113.241 1015.94 119.37 1006.42C122.805 1001.09 124.62 994.9 124.62 988.524C124.62 970.273 109.778 955.426 91.5326 955.426Z" fill="white"/>
</g>
<g opacity="0.51">
<path fill-rule="evenodd" clip-rule="evenodd" d="M91.5335 1021.76C73.212 1021.76 58.3066 1006.85 58.3066 988.525C58.3066 986.694 58.4568 984.86 58.7544 983.068C60.0187 975.391 63.988 968.358 69.9327 963.268C75.9381 958.122 83.6107 955.287 91.5335 955.287C109.852 955.287 124.758 970.197 124.758 988.525C124.758 994.928 122.935 1001.14 119.487 1006.49C113.332 1016.05 102.88 1021.76 91.5335 1021.76ZM91.5335 955.458C75.277 955.458 61.5622 967.083 58.923 983.097C58.628 984.878 58.4778 986.704 58.4778 988.525C58.4778 1006.76 73.3068 1021.59 91.5335 1021.59C102.822 1021.59 113.219 1015.91 119.345 1006.4C122.774 1001.07 124.586 994.893 124.586 988.525C124.586 970.292 109.76 955.458 91.5335 955.458Z" fill="white"/>
</g>
<g opacity="0.51">
<path fill-rule="evenodd" clip-rule="evenodd" d="M91.5325 1021.73C73.2294 1021.73 58.3398 1006.83 58.3398 988.525C58.3398 986.694 58.49 984.86 58.7876 983.076C60.0519 975.404 64.0159 968.38 69.9528 963.294C75.9555 958.154 83.6175 955.324 91.5325 955.324C109.833 955.324 124.722 970.216 124.722 988.525C124.722 994.92 122.902 1001.13 119.457 1006.47C113.307 1016.02 102.869 1021.73 91.5325 1021.73ZM91.5325 955.493C75.2917 955.493 61.5901 967.104 58.9562 983.103C58.6612 984.881 58.511 986.705 58.511 988.525C58.511 1006.74 73.3242 1021.56 91.5325 1021.56C102.811 1021.56 113.196 1015.88 119.315 1006.38C122.742 1001.06 124.554 994.888 124.554 988.525C124.554 970.311 109.741 955.493 91.5325 955.493Z" fill="white"/>
</g>
<g opacity="0.5">
<path fill-rule="evenodd" clip-rule="evenodd" d="M91.5327 1021.69C73.2507 1021.69 58.377 1006.81 58.377 988.524C58.377 986.696 58.5271 984.864 58.8221 983.081C60.0837 975.419 64.0451 968.4 69.9767 963.32C75.9715 958.185 83.6257 955.357 91.5327 955.357C109.815 955.357 124.688 970.236 124.688 988.524C124.688 994.914 122.871 1001.11 119.428 1006.45C113.284 1015.99 102.856 1021.69 91.5327 1021.69ZM91.5327 955.526C75.3104 955.526 61.6219 967.124 58.988 983.107C58.6957 984.883 58.5455 986.704 58.5455 988.524C58.5455 1006.72 73.3429 1021.52 91.5327 1021.52C102.798 1021.52 113.173 1015.85 119.286 1006.36C122.71 1001.05 124.52 994.882 124.52 988.524C124.52 970.328 109.722 955.526 91.5327 955.526Z" fill="white"/>
</g>
<g opacity="0.49">
<path fill-rule="evenodd" clip-rule="evenodd" d="M91.5336 1021.66C73.27 1021.66 58.4121 1006.79 58.4121 988.525C58.4121 986.699 58.5622 984.868 58.8572 983.087C60.1189 975.433 64.075 968.422 69.9987 963.347C75.9882 958.217 83.6371 955.393 91.5336 955.393C109.797 955.393 124.655 970.255 124.655 988.525C124.655 994.907 122.838 1001.1 119.4 1006.44C113.263 1015.97 102.846 1021.66 91.5336 1021.66ZM91.5336 955.561C75.3271 955.561 61.6545 967.149 59.0232 983.113C58.7282 984.886 58.5807 986.707 58.5807 988.525C58.5807 1006.7 73.3622 1021.49 91.5336 1021.49C102.788 1021.49 113.153 1015.83 119.258 1006.34C122.68 1001.04 124.487 994.875 124.487 988.525C124.487 970.348 109.705 955.561 91.5336 955.561Z" fill="white"/>
</g>
<g opacity="0.49">
<path fill-rule="evenodd" clip-rule="evenodd" d="M91.5326 1021.62C73.2874 1021.62 58.4453 1006.77 58.4453 988.526C58.4453 986.7 58.5954 984.874 58.8904 983.093C60.1495 975.447 64.103 968.444 70.0214 963.374C76.003 958.25 83.644 955.428 91.5326 955.428C109.778 955.428 124.62 970.275 124.62 988.526C124.62 994.902 122.805 1001.09 119.37 1006.42C113.239 1015.94 102.832 1021.62 91.5326 1021.62ZM91.5326 955.594C75.3419 955.594 61.6824 967.171 59.0537 983.119C58.7614 984.893 58.6112 986.711 58.6112 988.526C58.6112 1006.68 73.3796 1021.46 91.5326 1021.46C102.777 1021.46 113.131 1015.8 119.231 1006.33C122.647 1001.03 124.451 994.868 124.451 988.526C124.451 970.367 109.685 955.594 91.5326 955.594Z" fill="white"/>
</g>
<g opacity="0.48">
<path fill-rule="evenodd" clip-rule="evenodd" d="M91.5315 1021.59C73.3048 1021.59 58.4785 1006.76 58.4785 988.525C58.4785 986.702 58.6286 984.876 58.9236 983.097C60.1827 975.459 64.1309 968.464 70.0414 963.4C76.0178 958.28 83.6508 955.461 91.5315 955.461C109.756 955.461 124.585 970.292 124.585 988.525C124.585 994.893 122.77 1001.07 119.34 1006.4C113.217 1015.91 102.82 1021.59 91.5315 1021.59ZM91.5315 955.627C75.3566 955.627 61.713 967.191 59.087 983.126C58.7946 984.894 58.6445 986.71 58.6445 988.525C58.6445 1006.66 73.397 1021.42 91.5315 1021.42C102.763 1021.42 113.106 1015.77 119.201 1006.31C122.614 1001.01 124.419 994.862 124.419 988.525C124.419 970.384 109.666 955.627 91.5315 955.627Z" fill="white"/>
</g>
<g opacity="0.47">
<path fill-rule="evenodd" clip-rule="evenodd" d="M91.5324 1021.55C73.3268 1021.55 58.5137 1006.74 58.5137 988.524C58.5137 986.703 58.6638 984.88 58.9588 983.102C60.2152 975.471 64.1608 968.484 70.066 963.425C76.0345 958.311 83.6597 955.494 91.5324 955.494C109.738 955.494 124.549 970.312 124.549 988.524C124.549 994.887 122.739 1001.06 119.312 1006.38C113.194 1015.88 102.808 1021.55 91.5324 1021.55ZM91.5324 955.66C75.3734 955.66 61.7429 967.211 59.1221 983.13C58.8271 984.898 58.6796 986.711 58.6796 988.524C58.6796 1006.64 73.4164 1021.39 91.5324 1021.39C102.753 1021.39 113.086 1015.74 119.173 1006.29C122.584 1001 124.385 994.855 124.385 988.524C124.385 970.402 109.648 955.66 91.5324 955.66Z" fill="white"/>
</g>
<g opacity="0.46">
<path fill-rule="evenodd" clip-rule="evenodd" d="M91.5334 1021.52C73.3462 1021.52 58.5488 1006.72 58.5488 988.525C58.5488 986.707 58.699 984.884 58.994 983.108C60.2503 975.488 64.1907 968.506 70.088 963.452C76.0538 958.343 83.6685 955.529 91.5334 955.529C109.721 955.529 124.515 970.332 124.515 988.525C124.515 994.88 122.708 1001.05 119.284 1006.36C113.174 1015.85 102.799 1021.52 91.5334 1021.52ZM91.5334 955.695C75.3927 955.695 61.7754 967.236 59.1546 983.137C58.8623 984.902 58.7148 986.715 58.7148 988.525C58.7148 1006.63 73.4357 1021.35 91.5334 1021.35C102.741 1021.35 113.066 1015.72 119.147 1006.27C122.553 1000.99 124.352 994.848 124.352 988.525C124.352 970.421 109.628 955.695 91.5334 955.695Z" fill="white"/>
</g>
<g opacity="0.46">
<path fill-rule="evenodd" clip-rule="evenodd" d="M91.5323 1021.48C73.3636 1021.48 58.582 1006.7 58.582 988.526C58.582 986.71 58.7322 984.89 59.0245 983.116C60.2809 975.502 64.216 968.528 70.1107 963.479C76.0686 958.376 83.6753 955.564 91.5323 955.564C109.701 955.564 124.48 970.351 124.48 988.526C124.48 994.876 122.673 1001.04 119.254 1006.34C113.149 1015.82 102.784 1021.48 91.5323 1021.48ZM91.5323 955.728C75.4075 955.728 61.8033 967.258 59.1878 983.143C58.8955 984.908 58.7453 986.718 58.7453 988.526C58.7453 1006.61 73.4531 1021.32 91.5323 1021.32C102.729 1021.32 113.041 1015.69 119.117 1006.26C122.52 1000.98 124.317 994.844 124.317 988.526C124.317 970.44 109.609 955.728 91.5323 955.728Z" fill="white"/>
</g>
<g opacity="0.45">
<path fill-rule="evenodd" clip-rule="evenodd" d="M91.5325 1021.45C73.3822 1021.45 58.6191 1006.68 58.6191 988.525C58.6191 986.709 58.7666 984.889 59.059 983.121C60.3127 975.514 64.2452 968.548 70.132 963.505C76.0846 958.406 83.6835 955.598 91.5325 955.598C109.68 955.598 124.446 970.368 124.446 988.525C124.446 994.867 122.642 1001.02 119.226 1006.32C113.125 1015.79 102.774 1021.45 91.5325 1021.45ZM91.5325 955.761C75.4235 955.761 61.8352 967.278 59.2197 983.147C58.9273 984.907 58.7798 986.717 58.7798 988.525C58.7798 1006.59 73.4718 1021.29 91.5325 1021.29C102.719 1021.29 113.02 1015.66 119.089 1006.24C122.489 1000.96 124.285 994.835 124.285 988.525C124.285 970.458 109.591 955.761 91.5325 955.761Z" fill="white"/>
</g>
<g opacity="0.44">
<path fill-rule="evenodd" clip-rule="evenodd" d="M91.5335 1021.42C73.4042 1021.42 58.6543 1006.66 58.6543 988.525C58.6543 986.712 58.8018 984.894 59.0942 983.126C60.3479 975.527 64.2751 968.569 70.1566 963.531C76.1014 958.438 83.6923 955.635 91.5335 955.635C109.663 955.635 124.413 970.39 124.413 988.525C124.413 994.862 122.608 1001.01 119.197 1006.3C113.105 1015.77 102.764 1021.42 91.5335 1021.42ZM91.5335 955.795C75.4429 955.795 61.8677 967.302 59.2548 983.153C58.9625 984.913 58.815 986.72 58.815 988.525C58.815 1006.57 73.4911 1021.25 91.5335 1021.25C102.709 1021.25 113 1015.63 119.061 1006.22C122.456 1000.95 124.252 994.83 124.252 988.525C124.252 970.477 109.573 955.795 91.5335 955.795Z" fill="white"/>
</g>
<g opacity="0.44">
<path fill-rule="evenodd" clip-rule="evenodd" d="M91.5324 1021.38C73.4216 1021.38 58.6875 1006.64 58.6875 988.526C58.6875 986.716 58.835 984.9 59.1274 983.132C60.3785 975.542 64.303 968.591 70.1766 963.558C76.1161 958.471 83.7018 955.67 91.5324 955.67C109.643 955.67 124.377 970.409 124.377 988.526C124.377 994.855 122.576 1001 119.167 1006.29C113.08 1015.74 102.75 1021.38 91.5324 1021.38ZM91.5324 955.831C75.4576 955.831 61.8956 967.324 59.2854 983.159C58.9957 984.919 58.8482 986.724 58.8482 988.526C58.8482 1006.55 73.5085 1021.22 91.5324 1021.22C102.695 1021.22 112.975 1015.61 119.033 1006.2C122.423 1000.94 124.217 994.823 124.217 988.526C124.217 970.496 109.554 955.831 91.5324 955.831Z" fill="white"/>
</g>
<g opacity="0.43">
<path fill-rule="evenodd" clip-rule="evenodd" d="M91.5333 1021.35C73.441 1021.35 58.7227 1006.62 58.7227 988.525C58.7227 986.717 58.8702 984.905 59.1625 983.137C60.4136 975.554 64.3329 968.611 70.2013 963.584C76.1328 958.501 83.7106 955.703 91.5333 955.703C109.626 955.703 124.344 970.426 124.344 988.525C124.344 994.846 122.545 1000.98 119.139 1006.27C113.058 1015.71 102.738 1021.35 91.5333 1021.35ZM91.5333 955.861C75.4744 955.861 61.9281 967.344 59.3206 983.163C59.0282 984.92 58.8807 986.725 58.8807 988.525C58.8807 1006.53 73.5279 1021.19 91.5333 1021.19C102.685 1021.19 112.955 1015.58 119.005 1006.18C122.392 1000.92 124.183 994.817 124.183 988.525C124.183 970.513 109.536 955.861 91.5333 955.861Z" fill="white"/>
</g>
<g opacity="0.42">
<path fill-rule="evenodd" clip-rule="evenodd" d="M91.5323 1021.31C73.4584 1021.31 58.7559 1006.6 58.7559 988.526C58.7559 986.718 58.9034 984.908 59.1957 983.143C60.4442 975.57 64.3608 968.633 70.2213 963.611C76.1502 958.534 83.7175 955.738 91.5323 955.738C109.604 955.738 124.309 970.446 124.309 988.526C124.309 994.841 122.51 1000.97 119.109 1006.25C113.036 1015.68 102.726 1021.31 91.5323 1021.31ZM91.5323 955.896C75.4891 955.896 61.9561 967.366 59.3538 983.169C59.0614 984.927 58.9139 986.726 58.9139 988.526C58.9139 1006.52 73.5479 1021.15 91.5323 1021.15C102.671 1021.15 112.933 1015.55 118.975 1006.17C122.36 1000.91 124.151 994.81 124.151 988.526C124.151 970.533 109.517 955.896 91.5323 955.896Z" fill="white"/>
</g>
<g opacity="0.42">
<path fill-rule="evenodd" clip-rule="evenodd" d="M91.5332 1021.28C73.4777 1021.28 58.791 1006.58 58.791 988.525C58.791 986.72 58.9385 984.912 59.2309 983.15C60.4794 975.582 64.3907 968.653 70.2459 963.636C76.167 958.564 83.7263 955.771 91.5332 955.771C109.586 955.771 124.275 970.463 124.275 988.525C124.275 994.835 122.479 1000.96 119.081 1006.23C113.013 1015.65 102.714 1021.28 91.5332 1021.28ZM91.5332 955.93C75.5085 955.93 61.9886 967.388 59.3863 983.173C59.0965 984.928 58.9491 986.728 58.9491 988.525C58.9491 1006.5 73.5646 1021.12 91.5332 1021.12C102.662 1021.12 112.91 1015.52 118.947 1006.15C122.329 1000.9 124.117 994.803 124.117 988.525C124.117 970.55 109.499 955.93 91.5332 955.93Z" fill="white"/>
</g>
<g opacity="0.41">
<path fill-rule="evenodd" clip-rule="evenodd" d="M91.5322 1021.24C73.4978 1021.24 58.8242 1006.57 58.8242 988.526C58.8242 986.723 58.9717 984.916 59.2641 983.156C60.5099 975.597 64.4187 968.675 70.2659 963.664C76.1817 958.597 83.7332 955.807 91.5322 955.807C109.567 955.807 124.24 970.485 124.24 988.526C124.24 994.828 122.444 1000.94 119.051 1006.21C112.991 1015.62 102.703 1021.24 91.5322 1021.24ZM91.5322 955.965C75.5232 955.965 62.0165 967.41 59.4195 983.18C59.1271 984.934 58.9823 986.731 58.9823 988.526C58.9823 1006.48 73.582 1021.09 91.5322 1021.09C102.65 1021.09 112.888 1015.5 118.92 1006.13C122.296 1000.89 124.082 994.799 124.082 988.526C124.082 970.569 109.48 955.965 91.5322 955.965Z" fill="white"/>
</g>
<g opacity="0.4">
<path fill-rule="evenodd" clip-rule="evenodd" d="M91.5331 1021.21C73.5171 1021.21 58.8594 1006.55 58.8594 988.524C58.8594 986.722 59.0069 984.917 59.2992 983.16C60.5424 975.609 64.4459 968.695 70.2906 963.689C76.1984 958.627 83.742 955.84 91.5331 955.84C109.549 955.84 124.207 970.502 124.207 988.524C124.207 994.819 122.413 1000.93 119.023 1006.19C112.968 1015.59 102.69 1021.21 91.5331 1021.21ZM91.5331 955.995C75.54 955.995 62.049 967.43 59.452 983.186C59.1623 984.936 59.0174 986.73 59.0174 988.524C59.0174 1006.46 73.604 1021.05 91.5331 1021.05C102.638 1021.05 112.865 1015.47 118.892 1006.11C122.266 1000.87 124.049 994.79 124.049 988.524C124.049 970.587 109.462 955.995 91.5331 955.995Z" fill="white"/>
</g>
<g opacity="0.4">
<path fill-rule="evenodd" clip-rule="evenodd" d="M91.5314 1021.17C73.5338 1021.17 58.8945 1006.53 58.8945 988.525C58.8945 986.723 59.0394 984.921 59.3318 983.166C60.575 975.623 64.4732 968.717 70.3126 963.716C76.2125 958.66 83.7482 955.875 91.5314 955.875C109.529 955.875 124.168 970.522 124.168 988.525C124.168 994.815 122.38 1000.92 118.993 1006.18C112.945 1015.57 102.678 1021.17 91.5314 1021.17ZM91.5314 956.03C75.554 956.03 62.0763 967.452 59.4845 983.193C59.1948 984.939 59.0473 986.734 59.0473 988.525C59.0473 1006.44 73.6208 1021.02 91.5314 1021.02C102.625 1021.02 112.842 1015.44 118.861 1006.09C122.232 1000.86 124.015 994.786 124.015 988.525C124.015 970.606 109.442 956.03 91.5314 956.03Z" fill="white"/>
</g>
<g opacity="0.39">
<path fill-rule="evenodd" clip-rule="evenodd" d="M91.5323 1021.14C73.5532 1021.14 58.9297 1006.51 58.9297 988.526C58.9297 986.727 59.0772 984.927 59.3669 983.172C60.6075 975.639 64.5031 968.739 70.3345 963.743C76.2292 958.692 83.757 955.91 91.5323 955.91C109.509 955.91 124.135 970.541 124.135 988.526C124.135 994.808 122.346 1000.9 118.965 1006.16C112.922 1015.54 102.666 1021.14 91.5323 1021.14ZM91.5323 956.066C75.5734 956.066 62.1088 967.477 59.5171 983.199C59.23 984.943 59.0825 986.737 59.0825 988.526C59.0825 1006.42 73.6401 1020.99 91.5323 1020.99C102.616 1020.99 112.822 1015.41 118.835 1006.07C122.202 1000.85 123.982 994.779 123.982 988.526C123.982 970.625 109.424 956.066 91.5323 956.066Z" fill="white"/>
</g>
<g opacity="0.38">
<path fill-rule="evenodd" clip-rule="evenodd" d="M91.5332 1021.1C73.5752 1021.1 58.9648 1006.49 58.9648 988.525C58.9648 986.728 59.1123 984.931 59.4021 983.176C60.6426 975.651 64.5329 968.756 70.3592 963.768C76.2486 958.722 83.7684 955.945 91.5332 955.945C109.491 955.945 124.102 970.561 124.102 988.525C124.102 994.801 122.316 1000.89 118.936 1006.14C112.9 1015.51 102.656 1021.1 91.5332 1021.1ZM91.5332 956.095C75.5901 956.095 62.1413 967.496 59.5522 983.202C59.2625 984.946 59.1176 986.738 59.1176 988.525C59.1176 1006.4 73.6595 1020.95 91.5332 1020.95C102.604 1020.95 112.799 1015.38 118.807 1006.05C122.171 1000.83 123.949 994.772 123.949 988.525C123.949 970.642 109.407 956.095 91.5332 956.095Z" fill="white"/>
</g>
<g opacity="0.37">
<path fill-rule="evenodd" clip-rule="evenodd" d="M91.5341 1021.07C73.5945 1021.07 59 1006.47 59 988.525C59 986.731 59.1475 984.934 59.4372 983.185C60.6752 975.665 64.5628 968.778 70.3811 963.795C76.2653 958.755 83.7772 955.98 91.5341 955.98C109.474 955.98 124.068 970.58 124.068 988.525C124.068 994.794 122.282 1000.88 118.908 1006.12C112.879 1015.48 102.647 1021.07 91.5341 1021.07ZM91.5341 956.131C75.6068 956.131 62.1712 967.518 59.5874 983.208C59.2976 984.95 59.1501 986.739 59.1501 988.525C59.1501 1006.39 73.6788 1020.92 91.5341 1020.92C102.594 1020.92 112.779 1015.36 118.779 1006.04C122.14 1000.82 123.915 994.765 123.915 988.525C123.915 970.664 109.389 956.131 91.5341 956.131Z" fill="white"/>
</g>
<g opacity="0.37">
<path fill-rule="evenodd" clip-rule="evenodd" d="M91.5331 1021.04C73.6119 1021.04 59.0332 1006.45 59.0332 988.526C59.0332 986.735 59.1807 984.94 59.4704 983.191C60.7084 975.679 64.5908 968.8 70.4038 963.823C76.2801 958.787 83.7841 956.016 91.5331 956.016C109.454 956.016 124.033 970.599 124.033 988.526C124.033 994.789 122.25 1000.87 118.876 1006.1C112.855 1015.45 102.632 1021.04 91.5331 1021.04ZM91.5331 956.166C75.6242 956.166 62.2018 967.54 59.6179 983.215C59.3308 984.956 59.1833 986.743 59.1833 988.526C59.1833 1006.37 73.6962 1020.89 91.5331 1020.89C102.582 1020.89 112.755 1015.33 118.749 1006.02C122.108 1000.81 123.883 994.76 123.883 988.526C123.883 970.684 109.37 956.166 91.5331 956.166Z" fill="white"/>
</g>
<g opacity="0.36">
<path fill-rule="evenodd" clip-rule="evenodd" d="M91.532 1021C73.6293 1021 59.0664 1006.43 59.0664 988.525C59.0664 986.736 59.2139 984.942 59.5036 983.195C60.7389 975.691 64.6187 968.82 70.4238 963.848C76.2948 958.818 83.791 956.049 91.532 956.049C109.432 956.049 123.998 970.617 123.998 988.525C123.998 994.78 122.217 1000.85 118.846 1006.08C112.83 1015.42 102.621 1021 91.532 1021ZM91.532 956.199C75.639 956.199 62.2297 967.563 59.6511 983.219C59.3614 984.96 59.2165 986.744 59.2165 988.525C59.2165 1006.35 73.7136 1020.85 91.532 1020.85C102.568 1020.85 112.732 1015.3 118.722 1006C122.075 1000.8 123.848 994.751 123.848 988.525C123.848 970.701 109.35 956.199 91.532 956.199Z" fill="white"/>
</g>
<g opacity="0.35">
<path fill-rule="evenodd" clip-rule="evenodd" d="M91.533 1020.96C73.6513 1020.96 59.1016 1006.41 59.1016 988.524C59.1016 986.735 59.2491 984.944 59.5388 983.199C60.7715 975.703 64.6486 968.84 70.4485 963.87C76.3116 958.849 83.7998 956.082 91.533 956.082C109.415 956.082 123.964 970.634 123.964 988.524C123.964 994.774 122.184 1000.84 118.818 1006.06C112.81 1015.39 102.609 1020.96 91.533 1020.96ZM91.533 956.23C75.6557 956.23 62.2623 967.583 59.6837 983.223C59.3966 984.962 59.2517 986.743 59.2517 988.524C59.2517 1006.33 73.733 1020.82 91.533 1020.82C102.559 1020.82 112.712 1015.27 118.694 1005.98C122.044 1000.78 123.814 994.745 123.814 988.524C123.814 970.718 109.333 956.23 91.533 956.23Z" fill="white"/>
</g>
<g opacity="0.35">
<path fill-rule="evenodd" clip-rule="evenodd" d="M91.5339 1020.93C73.6707 1020.93 59.1367 1006.39 59.1367 988.525C59.1367 986.739 59.2842 984.947 59.5713 983.205C60.8066 975.72 64.6758 968.862 70.4705 963.898C76.3283 958.881 83.8086 956.117 91.5339 956.117C109.397 956.117 123.928 970.656 123.928 988.525C123.928 994.767 122.153 1000.82 118.79 1006.04C112.787 1015.37 102.599 1020.93 91.5339 1020.93ZM91.5339 956.265C75.6724 956.265 62.2921 967.605 59.7188 983.229C59.4317 984.966 59.2842 986.747 59.2842 988.525C59.2842 1006.31 73.7523 1020.78 91.5339 1020.78C102.546 1020.78 112.692 1015.24 118.666 1005.96C122.014 1000.77 123.781 994.738 123.781 988.525C123.781 970.738 109.315 956.265 91.5339 956.265Z" fill="white"/>
</g>
<g opacity="0.34">
<path fill-rule="evenodd" clip-rule="evenodd" d="M91.5328 1020.9C73.6881 1020.9 59.1699 1006.38 59.1699 988.526C59.1699 986.74 59.3174 984.953 59.6045 983.212C60.8372 975.734 64.7038 968.884 70.4931 963.925C76.343 958.914 83.8155 956.152 91.5328 956.152C109.378 956.152 123.893 970.675 123.893 988.526C123.893 994.763 122.118 1000.81 118.76 1006.03C112.765 1015.34 102.585 1020.9 91.5328 1020.9ZM91.5328 956.3C75.6898 956.3 62.3227 967.63 59.7494 983.235C59.4623 984.969 59.3174 986.75 59.3174 988.526C59.3174 1006.3 73.7697 1020.75 91.5328 1020.75C102.535 1020.75 112.667 1015.22 118.636 1005.95C121.981 1000.76 123.748 994.734 123.748 988.526C123.748 970.757 109.296 956.3 91.5328 956.3Z" fill="white"/>
</g>
<g opacity="0.33">
<path fill-rule="evenodd" clip-rule="evenodd" d="M91.5318 1020.86C73.7055 1020.86 59.2031 1006.35 59.2031 988.525C59.2031 986.741 59.3506 984.957 59.6404 983.216C60.8704 975.746 64.7317 968.904 70.5132 963.95C76.3604 958.944 83.8223 956.186 91.5318 956.186C109.358 956.186 123.858 970.693 123.858 988.525C123.858 994.754 122.085 1000.8 118.73 1006.01C112.74 1015.31 102.573 1020.86 91.5318 1020.86ZM91.5318 956.333C75.7046 956.333 62.3507 967.65 59.7826 983.24C59.4955 984.973 59.3506 986.749 59.3506 988.525C59.3506 1006.28 73.7871 1020.72 91.5318 1020.72C102.523 1020.72 112.645 1015.19 118.608 1005.93C121.948 1000.75 123.713 994.725 123.713 988.525C123.713 970.774 109.276 956.333 91.5318 956.333Z" fill="white"/>
</g>
<g opacity="0.33">
<path fill-rule="evenodd" clip-rule="evenodd" d="M91.532 1020.83C73.7268 1020.83 59.2402 1006.34 59.2402 988.525C59.2402 986.744 59.3851 984.96 59.6722 983.224C60.9022 975.76 64.7609 968.925 70.5371 963.977C76.3765 958.976 83.8331 956.223 91.532 956.223C109.337 956.223 123.824 970.711 123.824 988.525C123.824 994.749 122.054 1000.78 118.701 1005.99C112.717 1015.28 102.56 1020.83 91.532 1020.83ZM91.532 956.365C75.7206 956.365 62.3825 967.671 59.8171 983.248C59.53 984.976 59.3851 986.752 59.3851 988.525C59.3851 1006.26 73.8058 1020.68 91.532 1020.68C102.51 1020.68 112.622 1015.16 118.58 1005.91C121.917 1000.73 123.679 994.72 123.679 988.525C123.679 970.793 109.258 956.365 91.532 956.365Z" fill="white"/>
</g>
<g opacity="0.32">
<path fill-rule="evenodd" clip-rule="evenodd" d="M91.5329 1020.79C73.7461 1020.79 59.2754 1006.32 59.2754 988.526C59.2754 986.748 59.4203 984.967 59.7074 983.23C60.9374 975.774 64.7908 968.947 70.5591 964.004C76.3932 959.009 83.8419 956.258 91.5329 956.258C109.32 956.258 123.791 970.733 123.791 988.526C123.791 994.742 122.021 1000.78 118.673 1005.97C112.696 1015.25 102.551 1020.79 91.5329 1020.79ZM91.5329 956.4C75.7374 956.4 62.415 967.693 59.8496 983.254C59.5651 984.98 59.4176 986.756 59.4176 988.526C59.4176 1006.24 73.8251 1020.65 91.5329 1020.65C102.501 1020.65 112.602 1015.13 118.552 1005.89C121.886 1000.72 123.646 994.715 123.646 988.526C123.646 970.812 109.241 956.4 91.5329 956.4Z" fill="white"/>
</g>
<g opacity="0.31">
<path fill-rule="evenodd" clip-rule="evenodd" d="M91.5319 1020.76C73.7635 1020.76 59.3086 1006.3 59.3086 988.525C59.3086 986.749 59.4535 984.968 59.7406 983.234C60.968 975.788 64.8187 968.967 70.5818 964.029C76.408 959.039 83.8488 956.291 91.5319 956.291C109.3 956.291 123.755 970.751 123.755 988.525C123.755 994.735 121.988 1000.76 118.643 1005.95C112.672 1015.22 102.536 1020.76 91.5319 1020.76ZM91.5319 956.433C75.7548 956.433 62.443 967.715 59.8828 983.258C59.5957 984.984 59.4508 986.757 59.4508 988.525C59.4508 1006.22 73.8425 1020.62 91.5319 1020.62C102.489 1020.62 112.58 1015.1 118.524 1005.87C121.854 1000.71 123.613 994.706 123.613 988.525C123.613 970.83 109.221 956.433 91.5319 956.433Z" fill="white"/>
</g>
<g opacity="0.31">
<path fill-rule="evenodd" clip-rule="evenodd" d="M91.5328 1020.73C73.7829 1020.73 59.3438 1006.28 59.3438 988.526C59.3438 986.753 59.4886 984.974 59.7757 983.241C61.0031 975.803 64.8486 968.989 70.6037 964.057C76.4247 959.072 83.8576 956.326 91.5328 956.326C109.283 956.326 123.722 970.77 123.722 988.526C123.722 994.728 121.955 1000.75 118.615 1005.93C112.652 1015.2 102.527 1020.73 91.5328 1020.73ZM91.5328 956.468C75.7715 956.468 62.4755 967.737 59.9153 983.264C59.6308 984.99 59.486 986.761 59.486 988.526C59.486 1006.2 73.8619 1020.58 91.5328 1020.58C102.477 1020.58 112.557 1015.08 118.496 1005.86C121.823 1000.69 123.58 994.702 123.58 988.526C123.58 970.849 109.204 956.468 91.5328 956.468Z" fill="white"/>
</g>
<g opacity="0.3">
<path fill-rule="evenodd" clip-rule="evenodd" d="M91.5318 1020.69C73.8029 1020.69 59.377 1006.26 59.377 988.525C59.377 986.752 59.5218 984.976 59.8089 983.245C61.0337 975.815 64.8739 969.009 70.6264 964.082C76.4395 959.102 83.8645 956.359 91.5318 956.359C109.261 956.359 123.687 970.788 123.687 988.525C123.687 994.719 121.922 1000.73 118.585 1005.91C112.627 1015.17 102.513 1020.69 91.5318 1020.69ZM91.5318 956.499C75.7862 956.499 62.5034 967.757 59.9485 983.269C59.6614 984.992 59.5192 986.76 59.5192 988.525C59.5192 1006.18 73.8793 1020.55 91.5318 1020.55C102.465 1020.55 112.535 1015.05 118.466 1005.84C121.79 1000.68 123.544 994.693 123.544 988.525C123.544 970.867 109.184 956.499 91.5318 956.499Z" fill="white"/>
</g>
<g opacity="0.29">
<path fill-rule="evenodd" clip-rule="evenodd" d="M91.5327 1020.65C73.8223 1020.65 59.4121 1006.24 59.4121 988.526C59.4121 986.753 59.557 984.979 59.8441 983.251C61.0662 975.829 64.9038 969.031 70.6484 964.109C76.4562 959.135 83.8733 956.395 91.5327 956.395C109.243 956.395 123.651 970.809 123.651 988.526C123.651 994.715 121.891 1000.72 118.557 1005.89C112.604 1015.14 102.503 1020.65 91.5327 1020.65ZM91.5327 956.534C75.8056 956.534 62.5359 967.779 59.981 983.275C59.6966 984.995 59.5517 986.761 59.5517 988.526C59.5517 1006.17 73.8986 1020.51 91.5327 1020.51C102.456 1020.51 112.512 1015.02 118.438 1005.82C121.757 1000.67 123.511 994.689 123.511 988.526C123.511 970.886 109.167 956.534 91.5327 956.534Z" fill="white"/>
</g>
<g opacity="0.28">
<path fill-rule="evenodd" clip-rule="evenodd" d="M91.5336 1020.62C73.8416 1020.62 59.4473 1006.22 59.4473 988.525C59.4473 986.754 59.5921 984.984 59.8792 983.255C61.1014 975.841 64.9337 969.051 70.673 964.135C76.4755 959.165 83.8821 956.428 91.5336 956.428C109.226 956.428 123.617 970.827 123.617 988.525C123.617 994.706 121.858 1000.71 118.529 1005.87C112.584 1015.11 102.491 1020.62 91.5336 1020.62ZM91.5336 956.567C75.8223 956.567 62.5658 967.802 60.0162 983.279C59.7317 984.997 59.5869 986.762 59.5869 988.525C59.5869 1006.15 73.918 1020.48 91.5336 1020.48C102.443 1020.48 112.492 1014.99 118.413 1005.8C121.726 1000.66 123.48 994.68 123.48 988.525C123.48 970.903 109.149 956.567 91.5336 956.567Z" fill="white"/>
</g>
<g opacity="0.28">
<path fill-rule="evenodd" clip-rule="evenodd" d="M91.5326 1020.59C73.859 1020.59 59.4805 1006.2 59.4805 988.526C59.4805 986.758 59.628 984.987 59.9124 983.264C61.1319 975.855 64.9616 969.073 70.6957 964.162C76.4903 959.198 83.8916 956.463 91.5326 956.463C109.206 956.463 123.582 970.846 123.582 988.526C123.582 994.702 121.825 1000.7 118.499 1005.86C112.559 1015.08 102.479 1020.59 91.5326 1020.59ZM91.5326 956.603C75.8371 956.603 62.5964 967.824 60.0494 983.285C59.7649 985.003 59.6201 986.766 59.6201 988.526C59.6201 1006.13 73.9354 1020.45 91.5326 1020.45C102.432 1020.45 112.47 1014.97 118.383 1005.78C121.694 1000.64 123.445 994.675 123.445 988.526C123.445 970.923 109.13 956.603 91.5326 956.603Z" fill="white"/>
</g>
<g opacity="0.27">
<path fill-rule="evenodd" clip-rule="evenodd" d="M91.5328 1020.55C73.8777 1020.55 59.5176 1006.18 59.5176 988.525C59.5176 986.759 59.6624 984.991 59.9469 983.268C61.1664 975.87 64.9909 969.093 70.717 964.187C76.5063 959.228 83.8997 956.496 91.5328 956.496C109.185 956.496 123.548 970.864 123.548 988.525C123.548 994.695 121.791 1000.68 118.47 1005.84C112.538 1015.05 102.466 1020.55 91.5328 1020.55ZM91.5328 956.633C75.8531 956.633 62.6256 967.844 60.0812 983.289C59.7968 985.005 59.6545 986.767 59.6545 988.525C59.6545 1006.11 73.9541 1020.41 91.5328 1020.41C102.421 1020.41 112.449 1014.94 118.354 1005.76C121.662 1000.63 123.411 994.666 123.411 988.525C123.411 970.94 109.112 956.633 91.5328 956.633Z" fill="white"/>
</g>
<g opacity="0.26">
<path fill-rule="evenodd" clip-rule="evenodd" d="M91.5337 1020.52C73.8997 1020.52 59.5527 1006.16 59.5527 988.525C59.5527 986.762 59.695 984.994 59.9821 983.274C61.1989 975.883 65.0207 969.114 70.7416 964.214C76.5231 959.26 83.9085 956.533 91.5337 956.533C109.168 956.533 123.515 970.885 123.515 988.525C123.515 994.688 121.761 1000.67 118.442 1005.82C112.516 1015.02 102.457 1020.52 91.5337 1020.52ZM91.5337 956.668C75.8725 956.668 62.6581 967.865 60.1164 983.295C59.8319 985.01 59.6871 986.77 59.6871 988.525C59.6871 1006.09 73.9734 1020.38 91.5337 1020.38C102.409 1020.38 112.426 1014.91 118.329 1005.75C121.631 1000.62 123.378 994.661 123.378 988.525C123.378 970.959 109.094 956.668 91.5337 956.668Z" fill="white"/>
</g>
<g opacity="0.25">
<path fill-rule="evenodd" clip-rule="evenodd" d="M91.5327 1020.48C73.9171 1020.48 59.5859 1006.15 59.5859 988.526C59.5859 986.766 59.7308 985 60.0153 983.28C61.2321 975.897 65.0487 969.136 70.7616 964.241C76.5378 959.293 83.9154 956.568 91.5327 956.568C109.148 956.568 123.479 970.904 123.479 988.526C123.479 994.681 121.728 1000.66 118.412 1005.8C112.491 1014.99 102.442 1020.48 91.5327 1020.48ZM91.5327 956.703C75.8872 956.703 62.6887 967.89 60.147 983.301C59.8651 985.016 59.7203 986.774 59.7203 988.526C59.7203 1006.07 73.9908 1020.35 91.5327 1020.35C102.398 1020.35 112.404 1014.88 118.299 1005.73C121.599 1000.6 123.345 994.657 123.345 988.526C123.345 970.978 109.075 956.703 91.5327 956.703Z" fill="white"/>
</g>
<g opacity="0.25">
<path fill-rule="evenodd" clip-rule="evenodd" d="M91.5317 1020.45C73.9345 1020.45 59.6191 1006.13 59.6191 988.527C59.6191 986.767 59.764 985.004 60.0485 983.286C61.2627 975.911 65.0766 969.158 70.7843 964.268C76.5526 959.325 83.9223 956.604 91.5317 956.604C109.129 956.604 123.444 970.924 123.444 988.527C123.444 994.676 121.693 1000.64 118.382 1005.78C112.469 1014.97 102.431 1020.45 91.5317 1020.45ZM91.5317 956.738C75.902 956.738 62.7166 967.912 60.1802 983.307C59.8957 985.02 59.7535 986.775 59.7535 988.527C59.7535 1006.05 74.0082 1020.32 91.5317 1020.32C102.386 1020.32 112.379 1014.86 118.269 1005.71C121.566 1000.59 123.31 994.65 123.31 988.527C123.31 970.997 109.055 956.738 91.5317 956.738Z" fill="white"/>
</g>
<g opacity="0.24">
<path fill-rule="evenodd" clip-rule="evenodd" d="M91.5326 1020.41C73.9538 1020.41 59.6543 1006.11 59.6543 988.524C59.6543 986.766 59.7992 985.006 60.0836 983.288C61.2979 975.921 65.1065 969.176 70.8063 964.291C76.5719 959.354 83.9311 956.635 91.5326 956.635C109.109 956.635 123.411 970.939 123.411 988.524C123.411 994.665 121.662 1000.63 118.354 1005.76C112.446 1014.93 102.419 1020.41 91.5326 1020.41ZM91.5326 956.767C75.9187 956.767 62.7491 967.93 60.2153 983.312C59.9309 985.019 59.786 986.774 59.786 988.524C59.786 1006.03 74.0276 1020.28 91.5326 1020.28C102.374 1020.28 112.359 1014.82 118.24 1005.69C121.535 1000.58 123.277 994.642 123.277 988.524C123.277 971.013 109.038 956.767 91.5326 956.767Z" fill="white"/>
</g>
<g opacity="0.24">
<path fill-rule="evenodd" clip-rule="evenodd" d="M91.5335 1020.38C73.9758 1020.38 59.6895 1006.09 59.6895 988.525C59.6895 986.767 59.8343 985.01 60.1188 983.297C61.3304 975.938 65.1338 969.198 70.8309 964.319C76.5887 959.386 83.9399 956.67 91.5335 956.67C109.091 956.67 123.378 970.958 123.378 988.525C123.378 994.661 121.629 1000.62 118.326 1005.75C112.426 1014.91 102.409 1020.38 91.5335 1020.38ZM91.5335 956.802C75.9381 956.802 62.779 967.952 60.2478 983.318C59.966 985.023 59.8211 986.775 59.8211 988.525C59.8211 1006.01 74.0469 1020.24 91.5335 1020.24C102.364 1020.24 112.339 1014.8 118.215 1005.67C121.505 1000.57 123.243 994.635 123.243 988.525C123.243 971.032 109.02 956.802 91.5335 956.802Z" fill="white"/>
</g>
<g opacity="0.23">
<path fill-rule="evenodd" clip-rule="evenodd" d="M91.5324 1020.34C73.9932 1020.34 59.7227 1006.07 59.7227 988.525C59.7227 986.771 59.8675 985.013 60.1494 983.303C61.361 975.952 65.1617 969.22 70.8509 964.346C76.6034 959.419 83.9468 956.705 91.5324 956.705C109.072 956.705 123.342 970.98 123.342 988.525C123.342 994.654 121.596 1000.6 118.296 1005.73C112.401 1014.88 102.395 1020.34 91.5324 1020.34ZM91.5324 956.837C75.9528 956.837 62.8096 967.977 60.281 983.324C59.9966 985.029 59.8544 986.779 59.8544 988.525C59.8544 1006 74.0643 1020.21 91.5324 1020.21C102.353 1020.21 112.314 1014.77 118.185 1005.66C121.472 1000.55 123.211 994.63 123.211 988.525C123.211 971.052 109.001 956.837 91.5324 956.837Z" fill="white"/>
</g>
<g opacity="0.22">
<path fill-rule="evenodd" clip-rule="evenodd" d="M91.5334 1020.31C74.0126 1020.31 59.7578 1006.05 59.7578 988.526C59.7578 986.774 59.9027 985.017 60.1871 983.309C61.3961 975.966 65.1916 969.242 70.8756 964.373C76.6201 959.451 83.9582 956.74 91.5334 956.74C109.054 956.74 123.306 971 123.306 988.526C123.306 994.65 121.565 1000.59 118.268 1005.71C112.378 1014.85 102.385 1020.31 91.5334 1020.31ZM91.5334 956.872C75.9696 956.872 62.8395 967.999 60.3136 983.331C60.0317 985.033 59.8895 986.78 59.8895 988.526C59.8895 1005.98 74.0837 1020.18 91.5334 1020.18C102.34 1020.18 112.294 1014.75 118.157 1005.64C121.441 1000.54 123.177 994.623 123.177 988.526C123.177 971.071 108.98 956.872 91.5334 956.872Z" fill="white"/>
</g>
<g opacity="0.22">
<path fill-rule="evenodd" clip-rule="evenodd" d="M91.5336 1020.27C74.0312 1020.27 59.7949 1006.03 59.7949 988.525C59.7949 986.776 59.9372 985.021 60.219 983.314C61.4279 975.978 65.2208 969.26 70.8969 964.399C76.6362 959.482 83.9664 956.773 91.5336 956.773C109.033 956.773 123.272 971.017 123.272 988.525C123.272 994.641 121.531 1000.58 118.239 1005.69C112.357 1014.82 102.375 1020.27 91.5336 1020.27ZM91.5336 956.903C75.9856 956.903 62.8713 968.019 60.348 983.335C60.0662 985.037 59.9214 986.781 59.9214 988.525C59.9214 1005.96 74.1024 1020.15 91.5336 1020.15C102.33 1020.15 112.273 1014.72 118.128 1005.62C121.41 1000.53 123.143 994.617 123.143 988.525C123.143 971.088 108.965 956.903 91.5336 956.903Z" fill="white"/>
</g>
<g opacity="0.21">
<path fill-rule="evenodd" clip-rule="evenodd" d="M91.5326 1020.24C74.0513 1020.24 59.8281 1006.01 59.8281 988.524C59.8281 986.777 59.9704 985.025 60.2522 983.318C61.4612 975.991 65.2487 969.28 70.9195 964.424C76.6509 959.513 83.9732 956.807 91.5326 956.807C109.014 956.807 123.237 971.035 123.237 988.524C123.237 994.634 121.499 1000.56 118.209 1005.67C112.333 1014.79 102.361 1020.24 91.5326 1020.24ZM91.5326 956.936C76.003 956.936 62.9019 968.041 60.3786 983.339C60.0968 985.038 59.9546 986.783 59.9546 988.524C59.9546 1005.94 74.1197 1020.11 91.5326 1020.11C102.318 1020.11 112.248 1014.69 118.101 1005.6C121.377 1000.52 123.111 994.608 123.111 988.524C123.111 971.106 108.943 956.936 91.5326 956.936Z" fill="white"/>
</g>
<g opacity="0.2">
<path fill-rule="evenodd" clip-rule="evenodd" d="M91.5335 1020.21C74.0706 1020.21 59.8633 1006 59.8633 988.526C59.8633 986.78 60.0055 985.03 60.2873 983.325C61.4937 976.006 65.2786 969.303 70.9415 964.452C76.6677 959.546 83.982 956.846 91.5335 956.846C108.996 956.846 123.204 971.058 123.204 988.526C123.204 994.629 121.465 1000.55 118.181 1005.65C112.31 1014.77 102.348 1020.21 91.5335 1020.21ZM91.5335 956.972C76.0197 956.972 62.9318 968.065 60.4138 983.346C60.1319 985.043 59.9897 986.787 59.9897 988.526C59.9897 1005.92 74.1391 1020.08 91.5335 1020.08C102.306 1020.08 112.228 1014.66 118.073 1005.58C121.347 1000.5 123.077 994.605 123.077 988.526C123.077 971.126 108.925 956.972 91.5335 956.972Z" fill="white"/>
</g>
<g opacity="0.19">
<path fill-rule="evenodd" clip-rule="evenodd" d="M91.5324 1020.17C74.088 1020.17 59.8965 1005.98 59.8965 988.525C59.8965 986.781 60.0387 985.034 60.3205 983.332C61.5269 976.021 65.3065 969.323 70.9642 964.478C76.6851 959.577 83.9889 956.879 91.5324 956.879C108.977 956.879 123.168 971.075 123.168 988.525C123.168 994.622 121.433 1000.54 118.151 1005.63C112.288 1014.74 102.337 1020.17 91.5324 1020.17ZM91.5324 957.005C76.0345 957.005 62.9624 968.085 60.4443 983.351C60.1651 985.047 60.0229 986.789 60.0229 988.525C60.0229 1005.9 74.1565 1020.05 91.5324 1020.05C102.295 1020.05 112.203 1014.63 118.043 1005.56C121.314 1000.49 123.042 994.596 123.042 988.525C123.042 971.144 108.906 957.005 91.5324 957.005Z" fill="white"/>
</g>
<g opacity="0.19">
<path fill-rule="evenodd" clip-rule="evenodd" d="M91.5314 1020.14C74.1054 1020.14 59.9297 1005.95 59.9297 988.524C59.9297 986.783 60.0719 985.039 60.3537 983.336C61.5574 976.033 65.3345 969.343 70.9842 964.503C76.6998 959.608 83.9958 956.912 91.5314 956.912C108.957 956.912 123.133 971.093 123.133 988.524C123.133 994.613 121.4 1000.52 118.118 1005.61C112.263 1014.71 102.325 1020.14 91.5314 1020.14ZM91.5314 957.036C76.0519 957.036 62.9903 968.105 60.4775 983.355C60.1983 985.052 60.0535 986.791 60.0535 988.524C60.0535 1005.89 74.1739 1020.01 91.5314 1020.01C102.28 1020.01 112.181 1014.6 118.015 1005.55C121.281 1000.48 123.007 994.59 123.007 988.524C123.007 971.161 108.886 957.036 91.5314 957.036Z" fill="white"/>
</g>
<g opacity="0.18">
<path fill-rule="evenodd" clip-rule="evenodd" d="M91.5323 1020.1C74.1248 1020.1 59.9648 1005.94 59.9648 988.525C59.9648 986.784 60.1071 985.042 60.3889 983.343C61.59 976.047 65.3617 969.365 71.0089 964.53C76.7165 959.64 84.0046 956.947 91.5323 956.947C108.937 956.947 123.1 971.112 123.1 988.525C123.1 994.609 121.367 1000.51 118.09 1005.6C112.243 1014.68 102.313 1020.1 91.5323 1020.1ZM91.5323 957.071C76.0686 957.071 63.0228 968.129 60.5127 983.361C60.2309 985.055 60.0886 986.792 60.0886 988.525C60.0886 1005.87 74.1933 1019.98 91.5323 1019.98C102.271 1019.98 112.161 1014.58 117.987 1005.53C121.251 1000.46 122.976 994.583 122.976 988.525C122.976 971.18 108.869 957.071 91.5323 957.071Z" fill="white"/>
</g>
<g opacity="0.17">
<path fill-rule="evenodd" clip-rule="evenodd" d="M91.5332 1020.07C74.1468 1020.07 60 1005.92 60 988.526C60 986.785 60.1422 985.043 60.4241 983.349C61.6251 976.061 65.3916 969.387 71.0308 964.557C76.7333 959.673 84.0134 956.982 91.5332 956.982C108.92 956.982 123.066 971.134 123.066 988.526C123.066 994.602 121.336 1000.5 118.062 1005.58C112.22 1014.65 102.303 1020.07 91.5332 1020.07ZM91.5332 957.106C76.0853 957.106 63.0527 968.151 60.5452 983.37C60.266 985.059 60.1238 986.792 60.1238 988.526C60.1238 1005.85 74.2152 1019.95 91.5332 1019.95C102.261 1019.95 112.138 1014.55 117.959 1005.51C121.22 1000.45 122.943 994.578 122.943 988.526C122.943 971.2 108.851 957.106 91.5332 957.106Z" fill="white"/>
</g>
<g opacity="0.16">
<path fill-rule="evenodd" clip-rule="evenodd" d="M91.5341 1020.03C74.1661 1020.03 60.0352 1005.9 60.0352 988.525C60.0352 986.786 60.1774 985.047 60.4592 983.353C61.6603 976.073 65.4215 969.407 71.0555 964.583C76.75 959.703 84.0222 957.016 91.5341 957.016C108.902 957.016 123.031 971.151 123.031 988.525C123.031 994.596 121.305 1000.48 118.037 1005.56C112.197 1014.62 102.291 1020.03 91.5341 1020.03ZM91.5341 957.139C76.102 957.139 63.0852 968.171 60.5804 983.374C60.3012 985.06 60.159 986.794 60.159 988.525C60.159 1005.83 74.2346 1019.91 91.5341 1019.91C102.249 1019.91 112.118 1014.52 117.934 1005.49C121.189 1000.44 122.909 994.572 122.909 988.525C122.909 971.217 108.834 957.139 91.5341 957.139Z" fill="white"/>
</g>
<g opacity="0.16">
<path fill-rule="evenodd" clip-rule="evenodd" d="M91.5312 1020C74.1816 1020 60.0664 1005.88 60.0664 988.526C60.0664 986.792 60.2086 985.053 60.4905 983.359C61.6889 976.09 65.4475 969.429 71.0735 964.61C76.7654 959.736 84.0298 957.051 91.5312 957.051C108.881 957.051 122.993 971.171 122.993 988.526C122.993 994.589 121.268 1000.47 118.002 1005.54C112.173 1014.59 102.278 1020 91.5312 1020ZM91.5312 957.172C76.1175 957.172 63.1112 968.193 60.609 983.38C60.3298 985.067 60.1876 986.798 60.1876 988.526C60.1876 1005.81 74.2474 1019.88 91.5312 1019.88C102.235 1019.88 112.094 1014.49 117.902 1005.48C121.155 1000.43 122.872 994.565 122.872 988.526C122.872 971.237 108.812 957.172 91.5312 957.172Z" fill="white"/>
</g>
<g opacity="0.15">
<path fill-rule="evenodd" clip-rule="evenodd" d="M91.5333 1019.96C74.2022 1019.96 60.1055 1005.86 60.1055 988.525C60.1055 986.791 60.2477 985.055 60.5269 983.363C61.7227 976.102 65.4787 969.449 71.0994 964.635C76.7834 959.766 84.0399 957.084 91.5333 957.084C108.862 957.084 122.961 971.188 122.961 988.525C122.961 994.58 121.239 1000.46 117.975 1005.52C112.152 1014.56 102.267 1019.96 91.5333 1019.96ZM91.5333 957.205C76.1355 957.205 63.145 968.216 60.6454 983.384C60.3662 985.068 60.224 986.797 60.224 988.525C60.224 1005.79 74.2707 1019.84 91.5333 1019.84C102.227 1019.84 112.073 1014.46 117.875 1005.46C121.125 1000.41 122.843 994.559 122.843 988.525C122.843 971.254 108.796 957.205 91.5333 957.205Z" fill="white"/>
</g>
<g opacity="0.15">
<path fill-rule="evenodd" clip-rule="evenodd" d="M91.5343 1019.93C74.2242 1019.93 60.1406 1005.84 60.1406 988.525C60.1406 986.794 60.2829 985.06 60.5621 983.372C61.7578 976.115 65.5085 969.47 71.1241 964.659C76.8001 959.798 84.0487 957.121 91.5343 957.121C108.844 957.121 122.928 971.207 122.928 988.525C122.928 994.575 121.205 1000.44 117.947 1005.5C112.131 1014.54 102.257 1019.93 91.5343 1019.93ZM91.5343 957.24C76.1522 957.24 63.1749 968.237 60.6806 983.39C60.4014 985.074 60.2592 986.799 60.2592 988.525C60.2592 1005.78 74.29 1019.81 91.5343 1019.81C102.215 1019.81 112.052 1014.44 117.847 1005.44C121.092 1000.4 122.809 994.551 122.809 988.525C122.809 971.273 108.779 957.24 91.5343 957.24Z" fill="white"/>
</g>
<g opacity="0.14">
<path fill-rule="evenodd" clip-rule="evenodd" d="M91.5313 1019.9C74.2396 1019.9 60.1719 1005.82 60.1719 988.526C60.1719 986.798 60.3141 985.067 60.5933 983.378C61.7865 976.129 65.5345 969.492 71.1421 964.689C76.813 959.831 84.0536 957.156 91.5313 957.156C108.823 957.156 122.891 971.229 122.891 988.526C122.891 994.568 121.171 1000.43 117.915 1005.48C112.105 1014.51 102.241 1019.9 91.5313 1019.9ZM91.5313 957.275C76.165 957.275 63.2035 968.259 60.7092 983.396C60.43 985.077 60.2904 986.803 60.2904 988.526C60.2904 1005.76 74.3055 1019.78 91.5313 1019.78C102.201 1019.78 112.028 1014.41 117.815 1005.42C121.057 1000.39 122.772 994.547 122.772 988.526C122.772 971.295 108.757 957.275 91.5313 957.275Z" fill="white"/>
</g>
<g opacity="0.13">
<path fill-rule="evenodd" clip-rule="evenodd" d="M91.5322 1019.86C83.1642 1019.86 75.2967 1016.6 69.381 1010.68C63.4652 1004.76 60.207 996.893 60.207 988.525C60.207 986.799 60.3493 985.068 60.6285 983.382C61.8216 976.142 65.5644 969.512 71.1668 964.712C76.8297 959.861 84.0624 957.189 91.5322 957.189C99.8975 957.189 107.765 960.449 113.681 966.366C119.599 972.284 122.857 980.154 122.857 988.525C122.857 994.561 121.14 1000.42 117.887 1005.46C112.082 1014.48 102.231 1019.86 91.5322 1019.86ZM91.5322 957.305C76.1844 957.305 63.236 968.279 60.7443 983.4C60.4652 985.081 60.3229 986.805 60.3229 988.525C60.3229 1005.74 74.3248 1019.74 91.5322 1019.74C102.192 1019.74 112.006 1014.38 117.79 1005.4C121.027 1000.37 122.739 994.538 122.739 988.525C122.739 971.309 108.74 957.305 91.5322 957.305Z" fill="white"/>
</g>
<g opacity="0.13">
<path fill-rule="evenodd" clip-rule="evenodd" d="M91.5331 1019.83C83.1731 1019.83 75.3161 1016.57 69.4056 1010.66C63.4977 1004.74 60.2422 996.884 60.2422 988.524C60.2422 986.798 60.3844 985.07 60.6636 983.386C61.8541 976.154 65.5917 969.532 71.1887 964.737C76.8464 959.892 84.0712 957.223 91.5331 957.223C99.8905 957.223 107.747 960.477 113.658 966.389C119.568 972.302 122.824 980.161 122.824 988.524C122.824 994.552 121.107 1000.4 117.859 1005.44C112.062 1014.45 102.219 1019.83 91.5331 1019.83ZM91.5331 957.339C76.2011 957.339 63.2659 968.302 60.7769 983.405C60.5003 985.08 60.3581 986.803 60.3581 988.524C60.3581 1005.72 74.3442 1019.71 91.5331 1019.71C102.179 1019.71 111.985 1014.35 117.762 1005.38C120.996 1000.36 122.708 994.531 122.708 988.524C122.708 971.329 108.722 957.339 91.5331 957.339Z" fill="white"/>
</g>
<g opacity="0.12">
<path fill-rule="evenodd" clip-rule="evenodd" d="M91.534 1019.79C83.1845 1019.79 75.3354 1016.54 69.4302 1010.63C63.5276 1004.73 60.2773 996.875 60.2773 988.525C60.2773 986.802 60.4196 985.073 60.6961 983.392C61.8893 976.17 65.6216 969.554 71.2134 964.764C76.8631 959.924 84.08 957.258 91.534 957.258C99.8809 957.258 107.73 960.509 113.635 966.414C119.538 972.321 122.791 980.173 122.791 988.525C122.791 994.548 121.076 1000.39 117.831 1005.43C112.039 1014.42 102.209 1019.79 91.534 1019.79ZM91.534 957.374C76.2178 957.374 63.2984 968.324 60.812 983.411C60.5328 985.086 60.3932 986.807 60.3932 988.525C60.3932 1005.7 74.3635 1019.68 91.534 1019.68C102.17 1019.68 111.965 1014.32 117.734 1005.36C120.965 1000.35 122.675 994.524 122.675 988.525C122.675 971.349 108.705 957.374 91.534 957.374Z" fill="white"/>
</g>
<g opacity="0.11">
<path fill-rule="evenodd" clip-rule="evenodd" d="M91.533 1019.76C83.1914 1019.76 75.3528 1016.51 69.4555 1010.61C63.5582 1004.71 60.3105 996.868 60.3105 988.526C60.3105 986.805 60.4528 985.079 60.732 983.398C61.9199 976.184 65.6495 969.576 71.2334 964.792C76.8805 959.957 84.0895 957.293 91.533 957.293C99.872 957.293 107.71 960.542 113.608 966.441C119.505 972.338 122.753 980.181 122.753 988.526C122.753 994.541 121.041 1000.38 117.801 1005.41C112.017 1014.39 102.195 1019.76 91.533 1019.76ZM91.533 957.409C76.2352 957.409 63.3264 968.346 60.8426 983.417C60.566 985.093 60.4264 986.811 60.4264 988.526C60.4264 1005.68 74.3809 1019.64 91.533 1019.64C102.158 1019.64 111.941 1014.3 117.706 1005.35C120.933 1000.34 122.64 994.52 122.64 988.526C122.64 971.368 108.685 957.409 91.533 957.409Z" fill="white"/>
</g>
<g opacity="0.11">
<path fill-rule="evenodd" clip-rule="evenodd" d="M91.5319 1019.72C83.2009 1019.72 75.3676 1016.48 69.4782 1010.59C63.5887 1004.69 60.3438 996.858 60.3438 988.527C60.3438 986.809 60.486 985.086 60.7625 983.405C61.9504 976.199 65.6774 969.598 71.2561 964.819C76.8953 959.989 84.0964 957.328 91.5319 957.328C99.8604 957.328 107.694 960.574 113.583 966.466C119.475 972.357 122.717 980.193 122.717 988.527C122.717 994.537 121.008 1000.37 117.771 1005.39C111.992 1014.37 102.183 1019.72 91.5319 1019.72ZM91.5319 957.441C76.25 957.441 63.3569 968.371 60.8758 983.426C60.5992 985.099 60.457 986.814 60.457 988.527C60.457 1005.67 74.3983 1019.61 91.5319 1019.61C102.144 1019.61 111.918 1014.27 117.676 1005.33C120.9 1000.33 122.604 994.516 122.604 988.527C122.604 971.387 108.666 957.441 91.5319 957.441Z" fill="white"/>
</g>
<g opacity="0.1">
<path fill-rule="evenodd" clip-rule="evenodd" d="M91.5329 1019.69C83.2097 1019.69 75.387 1016.44 69.5028 1010.56C63.6213 1004.67 60.3789 996.847 60.3789 988.524C60.3789 986.806 60.5211 985.085 60.7977 983.41C61.9856 976.209 65.7073 969.616 71.278 964.842C76.912 960.018 84.1052 957.359 91.5329 957.359C99.8534 957.359 107.676 960.6 113.56 966.486C119.444 972.372 122.684 980.198 122.684 988.524C122.684 994.526 120.975 1000.35 117.743 1005.37C111.972 1014.33 102.171 1019.69 91.5329 1019.69ZM91.5329 957.473C76.2667 957.473 63.3868 968.389 60.911 983.428C60.6318 985.096 60.4922 986.811 60.4922 988.524C60.4922 1005.64 74.4177 1019.57 91.5329 1019.57C102.134 1019.57 111.898 1014.24 117.648 1005.31C120.869 1000.31 122.571 994.505 122.571 988.524C122.571 971.403 108.648 957.473 91.5329 957.473Z" fill="white"/>
</g>
<g opacity="0.09">
<path fill-rule="evenodd" clip-rule="evenodd" d="M91.5331 1019.65C83.2205 1019.65 75.4056 1016.41 69.5294 1010.53C63.6505 1004.65 60.416 996.837 60.416 988.525C60.416 986.809 60.5556 985.089 60.8322 983.416C62.0174 976.223 65.7365 969.638 71.302 964.869C76.928 960.05 84.1134 957.395 91.5331 957.395C99.8431 957.395 107.658 960.633 113.537 966.511C119.413 972.392 122.65 980.209 122.65 988.525C122.65 994.521 120.943 1000.34 117.714 1005.35C111.949 1014.31 102.161 1019.65 91.5331 1019.65ZM91.5331 957.508C76.2827 957.508 63.4187 968.411 60.9428 983.434C60.6662 985.102 60.5266 986.815 60.5266 988.525C60.5266 1005.63 74.4363 1019.54 91.5331 1019.54C102.121 1019.54 111.875 1014.21 117.622 1005.29C120.838 1000.3 122.54 994.5 122.54 988.525C122.54 971.422 108.63 957.508 91.5331 957.508Z" fill="white"/>
</g>
<g opacity="0.08">
<path fill-rule="evenodd" clip-rule="evenodd" d="M91.5321 1019.62C83.2273 1019.62 75.423 1016.38 69.552 1010.51C63.681 1004.64 60.4492 996.832 60.4492 988.527C60.4492 986.814 60.5888 985.096 60.8654 983.423C62.0506 976.241 65.7645 969.662 71.322 964.898C76.9428 960.084 84.1202 957.434 91.5321 957.434C99.8342 957.434 107.638 960.666 113.509 966.539C119.38 972.412 122.615 980.219 122.615 988.527C122.615 994.516 120.911 1000.33 117.684 1005.34C111.924 1014.28 102.147 1019.62 91.5321 1019.62ZM91.5321 957.542C76.3001 957.542 63.4466 968.434 60.976 983.442C60.6994 985.109 60.5598 986.819 60.5598 988.527C60.5598 1005.61 74.4537 1019.51 91.5321 1019.51C102.11 1019.51 111.853 1014.19 117.592 1005.28C120.805 1000.29 122.504 994.495 122.504 988.527C122.504 971.443 108.61 957.542 91.5321 957.542Z" fill="white"/>
</g>
<g opacity="0.07">
<path fill-rule="evenodd" clip-rule="evenodd" d="M91.533 1019.58C83.2388 1019.58 75.4424 1016.35 69.5767 1010.49C63.7136 1004.62 60.4844 996.82 60.4844 988.526C60.4844 986.81 60.624 985.098 60.9005 983.427C62.0832 976.253 65.7943 969.682 71.3466 964.923C76.9595 960.115 84.129 957.467 91.533 957.467C99.8245 957.467 107.621 960.697 113.487 966.562C119.352 972.427 122.582 980.229 122.582 988.526C122.582 994.509 120.877 1000.31 117.656 1005.32C111.904 1014.25 102.137 1019.58 91.533 1019.58ZM91.533 957.575C76.3168 957.575 63.4791 968.457 61.0085 983.446C60.7346 985.108 60.595 986.818 60.595 988.526C60.595 1005.59 74.4731 1019.47 91.533 1019.47C102.1 1019.47 111.83 1014.16 117.564 1005.26C120.775 1000.27 122.471 994.488 122.471 988.526C122.471 971.46 108.593 957.575 91.533 957.575Z" fill="white"/>
</g>
<g opacity="0.07">
<path fill-rule="evenodd" clip-rule="evenodd" d="M91.5319 1019.55C83.2456 1019.55 75.4571 1016.32 69.5993 1010.46C63.7441 1004.6 60.5176 996.811 60.5176 988.525C60.5176 986.812 60.6572 985.099 60.9337 983.432C62.1164 976.265 65.8196 969.702 71.3667 964.949C76.9769 960.145 84.1359 957.5 91.5319 957.5C99.8156 957.5 107.604 960.728 113.462 966.585C119.32 972.445 122.546 980.236 122.546 988.525C122.546 994.5 120.845 1000.3 117.626 1005.3C111.879 1014.22 102.123 1019.55 91.5319 1019.55ZM91.5319 957.608C76.3316 957.608 63.5097 968.477 61.0417 983.45C60.7652 985.113 60.6256 986.82 60.6256 988.525C60.6256 1005.57 74.4905 1019.44 91.5319 1019.44C102.086 1019.44 111.808 1014.13 117.534 1005.24C120.742 1000.26 122.436 994.479 122.436 988.525C122.436 971.478 108.573 957.608 91.5319 957.608Z" fill="white"/>
</g>
<g opacity="0.06">
<path fill-rule="evenodd" clip-rule="evenodd" d="M91.5328 1019.52C83.2571 1019.52 75.4765 1016.29 69.6266 1010.44C63.774 1004.58 60.5527 996.801 60.5527 988.526C60.5527 986.816 60.6923 985.106 60.9689 983.438C62.1489 976.279 65.8495 969.724 71.3913 964.976C76.9936 960.178 84.1447 957.535 91.5328 957.535C99.806 957.535 107.587 960.758 113.436 966.612C119.289 972.464 122.513 980.247 122.513 988.526C122.513 994.496 120.811 1000.29 117.598 1005.28C111.856 1014.19 102.113 1019.52 91.5328 1019.52ZM91.5328 957.643C76.3483 957.643 63.5396 968.499 61.0742 983.456C60.8003 985.119 60.6607 986.824 60.6607 988.526C60.6607 1005.55 74.5098 1019.41 91.5328 1019.41C102.076 1019.41 111.788 1014.1 117.509 1005.22C120.711 1000.25 122.405 994.475 122.405 988.526C122.405 971.497 108.556 957.643 91.5328 957.643Z" fill="white"/>
</g>
<g opacity="0.05">
<path fill-rule="evenodd" clip-rule="evenodd" d="M91.5338 1019.48C83.2685 1019.48 75.4959 1016.26 69.6512 1010.41C63.8065 1004.57 60.5879 996.793 60.5879 988.525C60.5879 986.817 60.7275 985.11 61.004 983.445C62.1814 976.291 65.8794 969.744 71.4159 965.001C77.0104 960.208 84.1562 957.568 91.5338 957.568C99.799 957.568 107.569 960.788 113.414 966.635C119.258 972.481 122.48 980.254 122.48 988.525C122.48 994.487 120.781 1000.27 117.57 1005.26C111.836 1014.16 102.101 1019.48 91.5338 1019.48ZM91.5338 957.674C76.3677 957.674 63.5721 968.519 61.1094 983.46C60.8355 985.12 60.6959 986.825 60.6959 988.525C60.6959 1005.53 74.5292 1019.37 91.5338 1019.37C102.067 1019.37 111.765 1014.07 117.48 1005.2C120.681 1000.23 122.372 994.466 122.372 988.525C122.372 971.514 108.538 957.674 91.5338 957.674Z" fill="white"/>
</g>
<g opacity="0.05">
<path fill-rule="evenodd" clip-rule="evenodd" d="M91.5327 1019.44C83.2754 1019.44 75.5132 1016.23 69.6739 1010.39C63.8371 1004.55 60.6211 996.783 60.6211 988.525C60.6211 986.821 60.7607 985.113 61.0373 983.451C62.2146 976.305 65.9074 969.766 71.436 965.028C77.0251 960.241 84.163 957.604 91.5327 957.604C99.7874 957.604 107.55 960.821 113.389 966.659C119.228 972.501 122.444 980.265 122.444 988.525C122.444 994.48 120.748 1000.26 117.54 1005.24C111.811 1014.14 102.089 1019.44 91.5327 1019.44ZM91.5327 957.709C76.3824 957.709 63.6001 968.543 61.1426 983.467C60.866 985.124 60.7265 986.826 60.7265 988.525C60.7265 1005.52 74.5466 1019.34 91.5327 1019.34C102.053 1019.34 111.743 1014.05 117.45 1005.18C120.648 1000.22 122.336 994.462 122.336 988.525C122.336 971.534 108.519 957.709 91.5327 957.709Z" fill="white"/>
</g>
<g opacity="0.04">
<path fill-rule="evenodd" clip-rule="evenodd" d="M91.5317 1019.41C83.2823 1019.41 75.528 1016.2 69.6992 1010.36C63.8677 1004.53 60.6543 996.774 60.6543 988.524C60.6543 986.822 60.7939 985.118 61.0705 983.455C62.2452 976.32 65.9353 969.783 71.4586 965.054C77.0399 960.272 84.1699 957.637 91.5317 957.637C99.7785 957.637 107.53 960.851 113.364 966.682C119.196 972.515 122.406 980.272 122.406 988.524C122.406 994.474 120.713 1000.25 117.51 1005.22C111.789 1014.11 102.078 1019.41 91.5317 1019.41ZM91.5317 957.742C76.3972 957.742 63.6306 968.563 61.1732 983.471C60.8993 985.128 60.7597 986.828 60.7597 988.524C60.7597 1005.5 74.564 1019.3 91.5317 1019.3C102.041 1019.3 111.721 1014.02 117.42 1005.16C120.615 1000.21 122.304 994.453 122.304 988.524C122.304 971.551 108.499 957.742 91.5317 957.742Z" fill="white"/>
</g>
<g opacity="0.04">
<path fill-rule="evenodd" clip-rule="evenodd" d="M91.5339 1019.38C83.295 1019.38 75.5486 1016.17 69.7251 1010.34C63.8988 1004.51 60.6934 996.764 60.6934 988.525C60.6934 986.826 60.8303 985.121 61.1069 983.461C62.2816 976.334 65.9665 969.805 71.4819 965.081C77.0579 960.304 84.18 957.672 91.5339 957.672C99.7701 957.672 107.516 960.881 113.34 966.709C119.166 972.535 122.374 980.284 122.374 988.525C122.374 994.467 120.683 1000.23 117.483 1005.2C111.768 1014.08 102.067 1019.38 91.5339 1019.38ZM91.5339 957.777C76.4152 957.777 63.6618 968.585 61.2096 983.477C60.9357 985.134 60.7961 986.831 60.7961 988.525C60.7961 1005.48 74.5846 1019.27 91.5339 1019.27C102.033 1019.27 111.699 1013.99 117.396 1005.15C120.586 1000.2 122.272 994.448 122.272 988.525C122.272 971.57 108.483 957.777 91.5339 957.777Z" fill="white"/>
</g>
<g opacity="0.03">
<path fill-rule="evenodd" clip-rule="evenodd" d="M91.5328 1019.34C83.3019 1019.34 75.566 1016.14 69.7477 1010.32C63.9294 1004.5 60.7266 996.757 60.7266 988.526C60.7266 986.829 60.8635 985.127 61.1401 983.467C62.3122 976.348 65.9944 969.826 71.5019 965.107C77.0726 960.336 84.1868 957.709 91.5328 957.709C99.7612 957.709 107.497 960.913 113.315 966.733C119.134 972.553 122.339 980.292 122.339 988.526C122.339 994.462 120.651 1000.22 117.453 1005.19C111.743 1014.05 102.055 1019.34 91.5328 1019.34ZM91.5328 957.812C76.4326 957.812 63.6924 968.606 61.2402 983.483C60.9662 985.137 60.8293 986.834 60.8293 988.526C60.8293 1005.46 74.602 1019.24 91.5328 1019.24C102.018 1019.24 111.677 1013.96 117.366 1005.13C120.553 1000.18 122.236 994.441 122.236 988.526C122.236 971.589 108.464 957.812 91.5328 957.812Z" fill="white"/>
</g>
<g opacity="0.02">
<path fill-rule="evenodd" clip-rule="evenodd" d="M91.5318 1019.31C83.3114 1019.31 75.5834 1016.1 69.7704 1010.29C63.96 1004.48 60.7598 996.745 60.7598 988.524C60.7598 986.825 60.8994 985.126 61.1733 983.471C62.3454 976.36 66.0223 969.846 71.5246 965.133C77.09 960.366 84.1937 957.742 91.5318 957.742C99.7496 957.742 107.478 960.943 113.291 966.756C119.104 972.571 122.304 980.301 122.304 988.524C122.304 994.455 120.615 1000.21 117.423 1005.17C111.721 1014.02 102.041 1019.31 91.5318 1019.31ZM91.5318 957.842C76.4474 957.842 63.7229 968.629 61.2734 983.489C60.9995 985.136 60.8599 986.83 60.8599 988.524C60.8599 1005.44 74.6194 1019.2 91.5318 1019.2C102.007 1019.2 111.652 1013.93 117.336 1005.11C120.521 1000.17 122.201 994.434 122.201 988.524C122.201 971.606 108.444 957.842 91.5318 957.842Z" fill="white"/>
</g>
<g opacity="0.02">
<path fill-rule="evenodd" clip-rule="evenodd" d="M91.5327 1019.27C83.3202 1019.27 75.6028 1016.07 69.7976 1010.27C63.9925 1004.46 60.7949 996.738 60.7949 988.525C60.7949 986.829 60.9345 985.132 61.2084 983.477C62.3779 976.374 66.0496 969.868 71.5492 965.16C77.1068 960.399 84.2025 957.777 91.5327 957.777C99.7426 957.777 107.46 960.976 113.268 966.78C119.073 972.59 122.271 980.31 122.271 988.525C122.271 994.448 120.585 1000.2 117.395 1005.15C111.698 1013.99 102.031 1019.27 91.5327 1019.27ZM91.5327 957.877C76.4641 957.877 63.7528 968.651 61.3059 983.496C61.0346 985.142 60.895 986.834 60.895 988.525C60.895 1005.42 74.6388 1019.17 91.5327 1019.17C101.997 1019.17 111.632 1013.91 117.311 1005.09C120.49 1000.16 122.17 994.43 122.17 988.525C122.17 971.626 108.427 957.877 91.5327 957.877Z" fill="white"/>
</g>
<g opacity="0.01">
<path fill-rule="evenodd" clip-rule="evenodd" d="M91.5336 1019.24C83.3316 1019.24 75.6195 1016.04 69.8223 1010.24C64.0224 1004.44 60.8301 996.726 60.8301 988.524C60.8301 986.83 60.9697 985.136 61.2436 983.484C62.4131 976.388 66.0795 969.888 71.5712 965.185C77.1235 960.43 84.2113 957.811 91.5336 957.811C99.733 957.811 107.445 961.004 113.242 966.806C119.042 972.605 122.237 980.32 122.237 988.524C122.237 994.442 120.551 1000.18 117.367 1005.13C111.678 1013.96 102.019 1019.24 91.5336 1019.24ZM91.5336 957.911C76.4808 957.911 63.7853 968.671 61.3411 983.5C61.0671 985.147 60.9302 986.835 60.9302 988.524C60.9302 1005.4 74.6581 1019.14 91.5336 1019.14C101.985 1019.14 111.612 1013.88 117.283 1005.07C120.459 1000.14 122.137 994.421 122.137 988.524C122.137 971.643 108.409 957.911 91.5336 957.911Z" fill="white"/>
</g>
<path d="M121.953 988.526C121.953 994.583 120.183 1000.23 117.127 1004.98C111.712 1013.38 102.27 1018.96 91.5311 1018.96C74.7267 1018.96 61.1094 1005.33 61.1094 988.526C61.1094 986.824 61.249 985.156 61.5176 983.53C63.8961 969.099 76.4256 958.094 91.5311 958.094C108.33 958.094 121.953 971.716 121.953 988.526Z" fill="white"/>
</g>
<rect x="61.6797" y="959" width="59.6861" height="59.6861" rx="1.61314" fill="white"/>
</g>
<defs>
<linearGradient id="paint0_linear_5141_4713" x1="461" y1="709.5" x2="172.749" y2="1188.05" gradientUnits="userSpaceOnUse">
<stop stop-color="#18191E" stop-opacity="0"/>
<stop offset="0.910308" stop-color="#18191E" stop-opacity="0.9"/>
</linearGradient>
<linearGradient id="paint1_linear_5141_4713" x1="586.166" y1="472.079" x2="1185.01" y2="1144.52" gradientUnits="userSpaceOnUse">
<stop stop-opacity="0.15"/>
<stop offset="1"/>
</linearGradient>
<clipPath id="clip0_5141_4713">
<rect width="1080" height="1080" fill="white"/>
</clipPath>
<clipPath id="clip1_5141_4713">
<rect width="129.051" height="21.0696" fill="white" transform="translate(154 957)"/>
</clipPath>
<clipPath id="clip2_5141_4713">
<rect width="79.0438" height="79.0438" fill="white" transform="translate(52 949)"/>
</clipPath>
</defs>
</svg>
