<svg width="1080" height="1080" viewBox="0 0 1080 1080" fill="none" xmlns="http://www.w3.org/2000/svg">
<g clip-path="url(#clip0_5141_6199)">
<rect width="1080" height="1080" fill="url(#paint0_linear_5141_6199)" fill-opacity="0.85"/>
<path opacity="0.1" d="M1354.17 360.04C1349.55 365.665 1331.33 380.884 1313.2 393.504C1295.33 406.405 1268.5 422.237 1253.44 429.108C1238.37 435.979 1215.71 444.585 1203.35 448.545C1190.74 452.224 1161.94 457.731 1139.23 460.337C1113.63 463.495 1081.12 463.75 1052.89 460.7C1028.02 458.18 992.64 451.427 974.102 446.288L953.188 439.916C948.607 438.52 944.669 443.462 947.02 447.633C967.405 483.801 982.617 514.391 994.206 539.142C1006.75 566.739 1024.42 610.91 1033.35 637.696C1042.55 664.242 1054.38 704.555 1060.07 727.171C1065.77 749.786 1073.31 786.366 1076.7 808.014C1080.09 829.663 1084.17 861.272 1085.92 877.835C1087.41 894.638 1089.18 910.682 1089.59 913.843C1090.24 917.284 1104.74 918.971 1136.74 918.674C1162.24 918.116 1203.67 915.449 1229 912.531C1254.07 909.332 1300.93 900.324 1333.47 891.989C1365.49 883.613 1410.46 869.239 1432.62 860.072C1455.04 851.185 1486.49 836.768 1502.67 827.901C1519.09 819.314 1545.92 803.483 1562.93 792.858C1579.7 781.954 1613.06 757.784 1636.61 738.822L1674.86 707.925C1677.21 706.029 1677.5 702.557 1675.49 700.304L1367.02 353.918C1364.85 351.483 1361.01 351.575 1358.96 354.111L1354.17 360.04ZM569.922 486.545L412.658 626.597C410.634 628.399 410.304 631.441 411.89 633.639C425.362 652.307 437.289 669.208 447.481 683.687C457.853 699.119 472.81 724.564 480.053 740.265C487.296 755.967 497.549 782.076 502.699 798.131C507.849 814.186 514.612 843.404 517.828 862.692C521.043 881.98 522.649 917.301 521.8 941.215C520.951 965.129 516.585 1000.23 512.291 1018.66C507.978 1037.6 499.241 1064.01 493.557 1077.63C487.873 1091.25 475.867 1114.53 467.035 1128.94C458.203 1143.35 439.381 1168.16 425.827 1183.76C412.005 1199.59 394.516 1216.17 387.59 1220.83L379.938 1225.84C377.239 1227.6 376.739 1231.35 378.883 1233.76L687.134 1580.43C689.149 1582.69 692.67 1582.79 694.819 1580.65C750.61 1525.1 777.743 1496.03 790.759 1480.01C804.063 1464.14 824.82 1436.09 836.892 1418.29C848.696 1400.73 866.915 1370.91 876.931 1352.43C886.948 1333.94 904.443 1295.2 915.616 1266.12C926.77 1237.56 940.478 1195.65 946.207 1173.43C951.418 1151.17 957.692 1120.91 960.57 1105.76C963.179 1090.86 966.916 1058.83 969.071 1034.76C971.225 1010.69 972.591 972.22 971.848 949.22C971.104 926.221 968.535 888.737 965.949 866.371C963.381 843.486 957.7 805.752 952.809 782.419C948.185 758.847 938.606 721.061 931.354 698.32C924.101 675.58 911.568 640.424 903.186 620.199C895.072 599.736 879.105 566.129 868.399 545.457C857.442 524.504 838.095 490.886 825.296 470.567C812.497 450.249 788.002 415.174 770.841 393.202C753.949 370.99 737.771 350.661 735.27 347.853C731.27 343.361 721.622 351.449 570.191 486.306L569.922 486.545Z" fill="url(#paint1_linear_5141_6199)"/>
<path d="M154.828 995.161C155.06 993.812 155.541 992.612 156.273 991.558C157.005 990.505 157.93 989.69 159.047 989.112C160.165 988.521 161.411 988.226 162.785 988.226C163.966 988.226 164.981 988.45 165.829 988.9C166.689 989.337 167.344 989.959 167.794 990.769C168.243 991.578 168.462 992.522 168.449 993.601H163.941C163.812 993.151 163.581 992.804 163.247 992.56C162.913 992.303 162.502 992.175 162.014 992.175C161.295 992.175 160.678 992.445 160.165 992.984C159.651 993.523 159.317 994.249 159.163 995.161C159.112 995.418 159.086 995.694 159.086 995.989C159.086 996.657 159.246 997.184 159.568 997.569C159.901 997.954 160.37 998.147 160.974 998.147C161.462 998.147 161.918 998.025 162.342 997.781C162.766 997.524 163.119 997.171 163.401 996.721H167.909C167.524 997.8 166.965 998.744 166.233 999.553C165.501 1000.36 164.628 1000.99 163.613 1001.44C162.611 1001.88 161.52 1002.1 160.338 1002.1C159.144 1002.1 158.123 1001.88 157.275 1001.44C156.427 1000.99 155.785 1000.36 155.349 999.553C154.912 998.731 154.694 997.781 154.694 996.702C154.694 996.176 154.738 995.662 154.828 995.161ZM174.997 1002.13C173.841 1002.13 172.827 1001.9 171.954 1001.42C171.08 1000.95 170.406 1000.28 169.931 999.419C169.456 998.545 169.218 997.55 169.218 996.432C169.218 994.801 169.552 993.363 170.22 992.117C170.9 990.858 171.844 989.882 173.052 989.189C174.272 988.482 175.672 988.129 177.251 988.129C178.433 988.129 179.46 988.367 180.334 988.842C181.22 989.304 181.901 989.966 182.376 990.826C182.851 991.674 183.089 992.657 183.089 993.774C183.089 995.392 182.748 996.837 182.068 998.108C181.4 999.38 180.449 1000.37 179.216 1001.08C177.996 1001.78 176.59 1002.13 174.997 1002.13ZM175.652 998.147C176.32 998.147 176.898 997.974 177.386 997.627C177.887 997.267 178.266 996.798 178.523 996.221C178.78 995.63 178.908 994.994 178.908 994.313C178.908 993.607 178.716 993.061 178.33 992.676C177.958 992.278 177.418 992.079 176.712 992.079C176.044 992.079 175.46 992.252 174.959 992.599C174.458 992.945 174.073 993.414 173.803 994.005C173.546 994.583 173.418 995.212 173.418 995.893C173.418 996.599 173.604 997.152 173.976 997.55C174.362 997.948 174.92 998.147 175.652 998.147ZM189.891 988.36L188.542 996.047C188.504 996.253 188.484 996.465 188.484 996.683C188.484 997.12 188.6 997.466 188.831 997.723C189.062 997.967 189.428 998.089 189.929 998.089C190.546 998.089 191.034 997.909 191.393 997.55C191.753 997.177 191.991 996.676 192.106 996.047L193.455 988.36H197.712L196.364 996.047C196.133 997.383 195.67 998.507 194.977 999.419C194.296 1000.33 193.455 1001.01 192.453 1001.46C191.464 1001.91 190.372 1002.13 189.178 1002.13C187.65 1002.13 186.43 1001.74 185.518 1000.94C184.606 1000.13 184.15 998.982 184.15 997.492C184.15 997.017 184.195 996.535 184.285 996.047L185.633 988.36H189.891ZM210.037 1002H205.76L202.447 995.142L201.233 1002H196.956L199.364 988.36H203.641L206.935 995.334L208.168 988.36H212.445L210.037 1002ZM224.896 988.36L224.299 991.751H220.677L218.866 1002H214.589L216.4 991.751H212.817L213.414 988.36H224.896ZM229.543 991.751L229.254 993.446H233.492L232.914 996.664H228.676L228.329 998.59H233.145L232.548 1002H223.455L225.863 988.36H234.956L234.359 991.751H229.543ZM242.733 988.36C244.197 988.36 245.308 988.688 246.066 989.343C246.824 989.998 247.202 990.871 247.202 991.963C247.202 992.284 247.177 992.573 247.125 992.83C246.958 993.755 246.56 994.57 245.931 995.277C245.302 995.97 244.486 996.471 243.484 996.779L245.526 1002H240.826L239.111 997.107L238.244 1002H233.967L236.376 988.36H242.733ZM239.612 994.256H241.307C241.718 994.256 242.039 994.166 242.271 993.986C242.515 993.793 242.675 993.498 242.752 993.1C242.765 993.035 242.771 992.952 242.771 992.849C242.771 992.567 242.682 992.348 242.502 992.194C242.322 992.027 242.059 991.944 241.712 991.944H240.017L239.612 994.256ZM258.721 988.36L258.124 991.751H252.768L252.441 993.639H256.294L255.716 996.856H251.863L250.958 1002H246.681L249.089 988.36H258.721ZM263.657 991.751L263.368 993.446H267.606L267.028 996.664H262.79L262.443 998.59H267.259L266.662 1002H257.569L259.977 988.36H269.07L268.473 991.751H263.657ZM274.766 988.36L272.358 1002H268.081L270.489 988.36H274.766ZM287.216 988.36L286.619 991.751H282.997L281.187 1002H276.91L278.721 991.751H275.137L275.735 988.36H287.216Z" fill="#FF6064"/>
<path d="M157.934 1011.23L156.212 1021H154.238L155.974 1011.23H157.934ZM163.146 1011.23C164.052 1011.23 164.831 1011.39 165.484 1011.7C166.147 1012.01 166.651 1012.46 166.996 1013.03C167.351 1013.61 167.528 1014.3 167.528 1015.09C167.528 1015.45 167.496 1015.79 167.43 1016.13C167.262 1017.11 166.898 1017.97 166.338 1018.7C165.788 1019.43 165.088 1020 164.238 1020.4C163.389 1020.8 162.446 1021 161.41 1021H157.994L159.73 1011.23H163.146ZM161.634 1019.4C162.661 1019.4 163.501 1019.11 164.154 1018.54C164.817 1017.96 165.242 1017.15 165.428 1016.13C165.475 1015.82 165.498 1015.55 165.498 1015.33C165.498 1014.55 165.265 1013.94 164.798 1013.51C164.341 1013.08 163.669 1012.87 162.782 1012.87H161.41L160.262 1019.4H161.634ZM168.744 1021.1C168.436 1021.1 168.188 1021.01 168.002 1020.83C167.815 1020.65 167.722 1020.43 167.722 1020.16C167.722 1019.79 167.862 1019.47 168.142 1019.21C168.431 1018.94 168.767 1018.8 169.15 1018.8C169.458 1018.8 169.7 1018.89 169.878 1019.07C170.064 1019.24 170.158 1019.46 170.158 1019.74C170.158 1020.11 170.018 1020.44 169.738 1020.71C169.458 1020.97 169.126 1021.1 168.744 1021.1ZM168.744 1015.3C168.436 1015.3 168.188 1015.21 168.002 1015.04C167.815 1014.86 167.722 1014.63 167.722 1014.36C167.722 1013.99 167.862 1013.67 168.142 1013.41C168.431 1013.14 168.767 1013.01 169.15 1013.01C169.458 1013.01 169.7 1013.09 169.878 1013.27C170.064 1013.44 170.158 1013.66 170.158 1013.94C170.158 1014.32 170.018 1014.64 169.738 1014.91C169.458 1015.17 169.126 1015.3 168.744 1015.3Z" fill="white"/>
<g clip-path="url(#clip1_5141_6199)">
<path d="M178.345 957.795L168.813 967.038L174.814 978.067H166.211L163.269 972.411L161.962 973.671L161.256 978.067H154L157.269 957.795H164.499L163.244 965.585L170.84 957.795H178.344H178.345Z" fill="white"/>
<path d="M209.907 972.465H215.28L214.378 978.069H201.762L205.03 957.797H212.26L209.907 972.465Z" fill="white"/>
<path d="M233.178 963.4H225.53L225.229 965.251H231.283L230.537 969.853H224.484L224.079 972.463H231.74L230.825 978.067H215.973L219.228 957.795H234.094L233.178 963.4V963.4Z" fill="white"/>
<path d="M246.012 965.844H256.001C255.705 967.686 255.24 969.323 254.608 970.754C253.976 972.186 253.251 973.354 252.431 974.258C251.612 975.162 250.675 975.905 249.62 976.488C248.566 977.071 247.502 977.48 246.43 977.716C245.358 977.952 244.216 978.07 243.005 978.07C241.698 978.07 240.468 977.885 239.318 977.517C238.168 977.149 237.146 976.617 236.253 975.923C235.36 975.229 234.651 974.327 234.128 973.217C233.605 972.107 233.344 970.862 233.344 969.482C233.344 967.7 233.688 966.031 234.377 964.475C235.065 962.919 235.998 961.598 237.175 960.509C238.352 959.421 239.742 958.564 241.346 957.938C242.949 957.313 244.64 957 246.418 957C248.292 957 249.989 957.364 251.511 958.092C253.032 958.821 254.198 959.871 255.008 961.242L248.72 965.163C248.606 964.332 248.273 963.751 247.72 963.421C247.166 963.091 246.41 962.926 245.451 962.926C244.658 962.926 243.962 963.089 243.365 963.414C242.769 963.74 242.293 964.188 241.94 964.758C241.588 965.328 241.326 965.966 241.156 966.673C240.986 967.38 240.901 968.149 240.901 968.981C240.901 971.089 241.926 972.143 243.974 972.143C245.656 972.143 246.898 971.492 247.7 970.189H243.386L246.014 965.844H246.012Z" fill="white"/>
<path d="M255.688 977.669L257.594 965.842H264.851L262.944 977.669H255.688Z" fill="white"/>
<path d="M283.051 957.396L282.136 963.001H278.148L275.795 977.669H268.591L270.944 963.001H258.051L258.954 957.396H283.05H283.051Z" fill="white"/>
<path d="M176.07 978.071L177.977 966.244H185.234L183.327 978.071H176.07Z" fill="white"/>
<path d="M203.438 957.795L202.522 963.4H198.535L196.181 978.067H188.977L191.331 963.4H178.438L179.341 957.795H203.437H203.438Z" fill="white"/>
</g>
<g clip-path="url(#clip2_5141_6199)">
<path d="M125.393 1008.9C128.978 1002.95 131.043 995.977 131.043 988.526C131.043 966.697 113.353 949.004 91.5341 949.004C72.3329 949.004 56.3371 962.707 52.7734 980.872C63.3091 988.286 75.9229 994.926 90.0012 1000.09C102.112 1004.53 114.107 1007.44 125.393 1008.9Z" fill="#DF4949"/>
<path d="M91.5322 1028.05C105.903 1028.05 118.477 1020.37 125.391 1008.89C114.105 1007.44 102.11 1004.53 89.9992 1000.09C75.9209 994.925 63.3071 988.285 52.7715 980.871C52.2842 983.348 52.0234 985.906 52.0234 988.525C52.0234 1010.35 69.7128 1028.05 91.5322 1028.05Z" fill="#F88181"/>
<g opacity="0.7">
<path fill-rule="evenodd" clip-rule="evenodd" d="M91.5343 1022.69C72.6991 1022.69 57.375 1007.37 57.375 988.526C57.375 986.642 57.5304 984.756 57.8359 982.917C59.1345 975.023 63.217 967.793 69.3251 962.56C75.5016 957.27 83.3902 954.355 91.5343 954.355C110.369 954.355 125.691 969.685 125.691 988.526C125.691 995.108 123.818 1001.5 120.273 1007C113.944 1016.83 103.2 1022.69 91.5343 1022.69ZM91.5343 954.553C74.8326 954.553 60.7411 966.497 58.0308 982.951C57.7279 984.777 57.5725 986.653 57.5725 988.526C57.5725 1007.26 72.8071 1022.5 91.5343 1022.5C103.131 1022.5 113.815 1016.66 120.107 1006.89C123.631 1001.42 125.493 995.071 125.493 988.526C125.493 969.793 110.259 954.553 91.5343 954.553Z" fill="white"/>
</g>
<g opacity="0.69">
<path fill-rule="evenodd" clip-rule="evenodd" d="M91.5352 1022.66C72.7185 1022.66 57.4102 1007.35 57.4102 988.525C57.4102 986.644 57.5656 984.757 57.8711 982.923C59.1696 975.035 63.2469 967.813 69.3497 962.586C75.5183 957.3 83.399 954.389 91.5352 954.389C110.352 954.389 125.658 969.702 125.658 988.525C125.658 995.099 123.787 1001.48 120.245 1006.98C113.923 1016.8 103.19 1022.66 91.5352 1022.66ZM91.5352 954.586C74.8493 954.586 60.771 966.517 58.0634 982.955C57.7605 984.781 57.6077 986.654 57.6077 988.525C57.6077 1007.24 72.8265 1022.46 91.5352 1022.46C103.122 1022.46 113.794 1016.63 120.079 1006.87C123.6 1001.41 125.463 995.062 125.463 988.525C125.463 969.81 110.241 954.586 91.5352 954.586Z" fill="white"/>
</g>
<g opacity="0.69">
<path fill-rule="evenodd" clip-rule="evenodd" d="M91.5334 1022.62C72.7378 1022.62 57.4453 1007.33 57.4453 988.524C57.4453 986.645 57.5981 984.762 57.901 982.928C59.1995 975.05 63.2742 967.833 69.369 962.611C75.535 957.331 83.4052 954.422 91.5334 954.422C110.329 954.422 125.622 969.719 125.622 988.524C125.622 995.093 123.752 1001.47 120.214 1006.96C113.898 1016.77 103.175 1022.62 91.5334 1022.62ZM91.5334 954.619C74.8634 954.619 60.8009 966.537 58.0959 982.959C57.793 984.783 57.6402 986.656 57.6402 988.524C57.6402 1007.22 72.8432 1022.43 91.5334 1022.43C103.11 1022.43 113.769 1016.61 120.051 1006.85C123.567 1001.39 125.427 995.056 125.427 988.524C125.427 969.828 110.221 954.619 91.5334 954.619Z" fill="white"/>
</g>
<g opacity="0.68">
<path fill-rule="evenodd" clip-rule="evenodd" d="M91.5344 1022.59C72.7572 1022.59 57.4805 1007.31 57.4805 988.526C57.4805 986.648 57.6332 984.766 57.9361 982.935C59.2347 975.065 63.3041 967.856 69.3937 962.639C75.5518 957.364 83.414 954.461 91.5344 954.461C110.312 954.461 125.588 969.743 125.588 988.526C125.588 995.087 123.721 1001.46 120.186 1006.94C113.875 1016.74 103.166 1022.59 91.5344 1022.59ZM91.5344 954.653C74.8827 954.653 60.8334 966.563 58.1284 982.967C57.8281 984.787 57.6754 986.658 57.6754 988.526C57.6754 1007.2 72.8652 1022.4 91.5344 1022.4C103.1 1022.4 113.749 1016.58 120.023 1006.84C123.536 1001.38 125.393 995.05 125.393 988.526C125.393 969.848 110.204 954.653 91.5344 954.653Z" fill="white"/>
</g>
<g opacity="0.67">
<path fill-rule="evenodd" clip-rule="evenodd" d="M91.5353 1022.56C72.7765 1022.56 57.5156 1007.29 57.5156 988.525C57.5156 986.649 57.6684 984.771 57.9713 982.939C59.2672 975.077 63.3313 967.876 69.4157 962.665C75.5685 957.395 83.4228 954.494 91.5353 954.494C110.294 954.494 125.555 969.76 125.555 988.525C125.555 995.08 123.69 1001.44 120.158 1006.92C113.855 1016.71 103.153 1022.56 91.5353 1022.56ZM91.5353 954.686C74.8995 954.686 60.8633 966.583 58.1636 982.971C57.8607 984.792 57.7079 986.66 57.7079 988.525C57.7079 1007.18 72.8819 1022.36 91.5353 1022.36C103.088 1022.36 113.726 1016.55 119.995 1006.82C123.506 1001.37 125.36 995.044 125.36 988.525C125.36 969.866 110.186 954.686 91.5353 954.686Z" fill="white"/>
</g>
<g opacity="0.67">
<path fill-rule="evenodd" clip-rule="evenodd" d="M91.5323 1022.52C72.792 1022.52 57.5469 1007.27 57.5469 988.524C57.5469 986.648 57.6996 984.772 58.0025 982.944C59.2984 975.089 63.3573 967.896 69.4364 962.69C75.5813 957.426 83.4277 954.527 91.5323 954.527C110.273 954.527 125.518 969.778 125.518 988.524C125.518 995.074 123.653 1001.43 120.126 1006.9C113.828 1016.68 103.14 1022.52 91.5323 1022.52ZM91.5323 954.72C74.9123 954.72 60.8919 966.603 58.1922 982.975C57.8919 984.793 57.7392 986.661 57.7392 988.524C57.7392 1007.16 72.8973 1022.33 91.5323 1022.33C103.074 1022.33 113.702 1016.52 119.965 1006.8C123.471 1001.36 125.325 995.035 125.325 988.524C125.325 969.883 110.165 954.72 91.5323 954.72Z" fill="white"/>
</g>
<g opacity="0.66">
<path fill-rule="evenodd" clip-rule="evenodd" d="M91.5332 1022.49C72.8113 1022.49 57.582 1007.25 57.582 988.525C57.582 986.654 57.7348 984.778 58.0377 982.95C59.331 975.103 63.3872 967.918 69.461 962.717C75.598 957.458 83.4392 954.562 91.5332 954.562C110.252 954.562 125.484 969.797 125.484 988.525C125.484 995.067 123.622 1001.42 120.098 1006.88C113.806 1016.65 103.128 1022.49 91.5332 1022.49ZM91.5332 954.755C74.929 954.755 60.9218 966.625 58.2273 982.981C57.9271 984.799 57.7743 986.662 57.7743 988.525C57.7743 1007.15 72.9193 1022.3 91.5332 1022.3C103.062 1022.3 113.682 1016.5 119.937 1006.78C123.44 1001.34 125.292 995.03 125.292 988.525C125.292 969.902 110.147 954.755 91.5332 954.755Z" fill="white"/>
</g>
<g opacity="0.65">
<path fill-rule="evenodd" clip-rule="evenodd" d="M91.5341 1022.45C72.8333 1022.45 57.6172 1007.23 57.6172 988.526C57.6172 986.655 57.77 984.782 58.0729 982.956C59.3661 975.12 63.4171 967.94 69.483 962.744C75.6147 957.491 83.448 954.598 91.5341 954.598C110.235 954.598 125.451 969.819 125.451 988.526C125.451 995.06 123.589 1001.4 120.07 1006.87C113.785 1016.63 103.118 1022.45 91.5341 1022.45ZM91.5341 954.787C74.9484 954.787 60.9544 966.649 58.2625 982.988C57.9596 984.803 57.8095 986.666 57.8095 988.526C57.8095 1007.13 72.9387 1022.26 91.5341 1022.26C103.052 1022.26 113.659 1016.47 119.909 1006.76C123.41 1001.33 125.259 995.023 125.259 988.526C125.259 969.922 110.13 954.787 91.5341 954.787Z" fill="white"/>
</g>
<g opacity="0.64">
<path fill-rule="evenodd" clip-rule="evenodd" d="M91.535 1022.42C72.8527 1022.42 57.6523 1007.21 57.6523 988.525C57.6523 986.657 57.8051 984.786 58.108 982.963C59.3986 975.132 63.447 967.96 69.5076 962.77C75.6341 957.521 83.4568 954.631 91.535 954.631C110.217 954.631 125.415 969.836 125.415 988.525C125.415 995.054 123.558 1001.39 120.042 1006.85C113.763 1016.6 103.106 1022.42 91.535 1022.42ZM91.535 954.821C74.9651 954.821 60.9842 966.669 58.295 982.992C57.9948 984.807 57.842 986.667 57.842 988.525C57.842 1007.11 72.958 1022.23 91.535 1022.23C103.043 1022.23 113.639 1016.44 119.881 1006.74C123.379 1001.32 125.225 995.017 125.225 988.525C125.225 969.939 110.112 954.821 91.535 954.821Z" fill="white"/>
</g>
<g opacity="0.64">
<path fill-rule="evenodd" clip-rule="evenodd" d="M91.5359 1022.38C72.872 1022.38 57.6875 1007.19 57.6875 988.524C57.6875 986.658 57.8403 984.788 58.1432 982.967C59.4312 975.144 63.4768 967.98 69.5296 962.795C75.6508 957.552 83.4656 954.664 91.5359 954.664C110.2 954.664 125.382 969.854 125.382 988.524C125.382 995.045 123.527 1001.38 120.014 1006.83C113.742 1016.57 103.096 1022.38 91.5359 1022.38ZM91.5359 954.854C74.9818 954.854 61.0168 966.689 58.3302 982.996C58.0299 984.809 57.8771 986.669 57.8771 988.524C57.8771 1007.09 72.9774 1022.19 91.5359 1022.19C103.03 1022.19 113.619 1016.41 119.856 1006.72C123.348 1001.3 125.195 995.008 125.195 988.524C125.195 969.956 110.095 954.854 91.5359 954.854Z" fill="white"/>
</g>
<g opacity="0.63">
<path fill-rule="evenodd" clip-rule="evenodd" d="M91.533 1022.35C72.8875 1022.35 57.7188 1007.17 57.7188 988.525C57.7188 986.662 57.8715 984.794 58.1744 982.973C59.4624 975.158 63.5028 968.002 69.5503 962.822C75.6636 957.584 83.4705 954.699 91.533 954.699C110.178 954.699 125.345 969.873 125.345 988.525C125.345 995.041 123.49 1001.36 119.982 1006.81C113.716 1016.54 103.08 1022.35 91.533 1022.35ZM91.533 954.889C74.9946 954.889 61.0454 966.711 58.3588 983.005C58.0612 984.815 57.9084 986.672 57.9084 988.525C57.9084 1007.07 72.9928 1022.16 91.533 1022.16C103.017 1022.16 113.592 1016.38 119.824 1006.71C123.314 1001.29 125.158 995.004 125.158 988.525C125.158 969.978 110.073 954.889 91.533 954.889Z" fill="white"/>
</g>
<g opacity="0.62">
<path fill-rule="evenodd" clip-rule="evenodd" d="M91.5351 1022.31C72.9107 1022.31 57.7578 1007.16 57.7578 988.526C57.7578 986.663 57.9106 984.797 58.2108 982.979C59.4962 975.172 63.5314 968.024 69.5736 962.85C75.6816 957.617 83.4806 954.734 91.5351 954.734C110.16 954.734 125.312 969.892 125.312 988.526C125.312 995.034 123.461 1001.35 119.955 1006.79C113.694 1016.51 103.072 1022.31 91.5351 1022.31ZM91.5351 954.921C75.0152 954.921 61.0765 966.736 58.3952 983.011C58.095 984.818 57.9448 986.673 57.9448 988.526C57.9448 1007.05 73.0135 1022.13 91.5351 1022.13C103.008 1022.13 113.573 1016.36 119.797 1006.69C123.284 1001.28 125.125 994.999 125.125 988.526C125.125 969.998 110.057 954.921 91.5351 954.921Z" fill="white"/>
</g>
<g opacity="0.62">
<path fill-rule="evenodd" clip-rule="evenodd" d="M91.5361 1022.28C72.9301 1022.28 57.793 1007.14 57.793 988.524C57.793 986.661 57.9457 984.798 58.246 982.983C59.5314 975.187 63.5612 968.044 69.5982 962.874C75.6983 957.647 83.4894 954.77 91.5361 954.77C110.142 954.77 125.279 969.912 125.279 988.524C125.279 995.027 123.428 1001.34 119.927 1006.77C113.674 1016.48 103.059 1022.28 91.5361 1022.28ZM91.5361 954.954C75.0319 954.954 61.1091 966.755 58.4304 983.015C58.1301 984.819 57.9773 986.672 57.9773 988.524C57.9773 1007.03 73.0328 1022.09 91.5361 1022.09C102.996 1022.09 113.55 1016.33 119.772 1006.67C123.254 1001.27 125.092 994.99 125.092 988.524C125.092 970.014 110.039 954.954 91.5361 954.954Z" fill="white"/>
</g>
<g opacity="0.61">
<path fill-rule="evenodd" clip-rule="evenodd" d="M91.5331 1022.24C72.9455 1022.24 57.8242 1007.12 57.8242 988.525C57.8242 986.665 57.977 984.804 58.2773 982.989C59.56 975.201 63.5872 968.066 69.6163 962.901C75.7111 957.679 83.4944 954.805 91.5331 954.805C110.121 954.805 125.242 969.931 125.242 988.525C125.242 995.02 123.393 1001.32 119.895 1006.75C113.647 1016.45 103.046 1022.24 91.5331 1022.24ZM91.5331 954.989C75.0448 954.989 61.135 966.777 58.459 983.021C58.1587 984.823 58.0086 986.675 58.0086 988.525C58.0086 1007.02 73.0483 1022.06 91.5331 1022.06C102.983 1022.06 113.526 1016.3 119.74 1006.65C123.219 1001.25 125.058 994.985 125.058 988.525C125.058 970.034 110.018 954.989 91.5331 954.989Z" fill="white"/>
</g>
<g opacity="0.6">
<path fill-rule="evenodd" clip-rule="evenodd" d="M91.534 1022.21C72.9649 1022.21 57.8594 1007.1 57.8594 988.526C57.8594 986.668 58.0121 984.808 58.3124 982.995C59.5951 975.215 63.6171 968.088 69.6409 962.929C75.7279 957.712 83.5032 954.84 91.534 954.84C110.1 954.84 125.209 969.95 125.209 988.526C125.209 995.015 123.362 1001.31 119.867 1006.73C113.627 1016.43 103.034 1022.21 91.534 1022.21ZM91.534 955.024C75.0641 955.024 61.1676 966.799 58.4941 983.027C58.1939 984.826 58.0437 986.679 58.0437 988.526C58.0437 1007 73.0676 1022.03 91.534 1022.03C102.97 1022.03 113.506 1016.27 119.712 1006.64C123.188 1001.24 125.024 994.978 125.024 988.526C125.024 970.053 110 955.024 91.534 955.024Z" fill="white"/>
</g>
<g opacity="0.6">
<path fill-rule="evenodd" clip-rule="evenodd" d="M91.5349 1022.17C72.9869 1022.17 57.8945 1007.08 57.8945 988.525C57.8945 986.67 58.0473 984.812 58.3476 983.002C59.6276 975.227 63.647 968.108 69.6629 962.954C75.7472 957.742 83.5146 954.873 91.5349 954.873C110.083 954.873 125.175 969.968 125.175 988.525C125.175 995.006 123.329 1001.3 119.839 1006.72C113.604 1016.4 103.024 1022.17 91.5349 1022.17ZM91.5349 955.055C75.0808 955.055 61.1975 966.822 58.5267 983.031C58.229 984.831 58.0789 986.68 58.0789 988.525C58.0789 1006.98 73.087 1021.99 91.5349 1021.99C102.961 1021.99 113.486 1016.25 119.684 1006.62C123.158 1001.23 124.991 994.972 124.991 988.525C124.991 970.071 109.983 955.055 91.5349 955.055Z" fill="white"/>
</g>
<g opacity="0.59">
<path fill-rule="evenodd" clip-rule="evenodd" d="M91.5358 1022.14C73.0062 1022.14 57.9297 1007.06 57.9297 988.526C57.9297 986.673 58.0825 984.816 58.3827 983.008C59.6602 975.241 63.6769 968.13 69.6875 962.981C75.7639 957.775 83.5234 954.908 91.5358 954.908C110.065 954.908 125.142 969.99 125.142 988.526C125.142 995.002 123.298 1001.29 119.811 1006.7C113.582 1016.37 103.012 1022.14 91.5358 1022.14ZM91.5358 955.09C75.0975 955.09 61.23 966.844 58.5618 983.037C58.2642 984.837 58.1114 986.684 58.1114 988.526C58.1114 1006.96 73.1063 1021.96 91.5358 1021.96C102.951 1021.96 113.463 1016.22 119.658 1006.6C123.124 1001.21 124.958 994.965 124.958 988.526C124.958 970.09 109.965 955.09 91.5358 955.09Z" fill="white"/>
</g>
<g opacity="0.58">
<path fill-rule="evenodd" clip-rule="evenodd" d="M91.5367 1022.1C73.0256 1022.1 57.9648 1007.04 57.9648 988.524C57.9648 986.675 58.1176 984.82 58.4179 983.012C59.6953 975.253 63.7068 968.15 69.7095 963.007C75.7806 957.805 83.5323 954.941 91.5367 954.941C110.048 954.941 125.106 970.007 125.106 988.524C125.106 994.993 123.265 1001.27 119.783 1006.68C113.562 1016.34 103.002 1022.1 91.5367 1022.1ZM91.5367 955.123C75.1143 955.123 61.2599 966.864 58.5943 983.041C58.2967 984.841 58.1466 986.685 58.1466 988.524C58.1466 1006.94 73.1257 1021.93 91.5367 1021.93C102.942 1021.93 113.443 1016.19 119.63 1006.58C123.094 1001.2 124.927 994.959 124.927 988.524C124.927 970.107 109.948 955.123 91.5367 955.123Z" fill="white"/>
</g>
<g opacity="0.58">
<path fill-rule="evenodd" clip-rule="evenodd" d="M91.535 1022.07C73.0423 1022.07 58 1007.02 58 988.525C58 986.676 58.1501 984.823 58.4478 983.019C59.7252 975.27 63.734 968.172 69.7315 963.034C75.7947 957.838 83.5384 954.977 91.535 954.977C110.025 954.977 125.07 970.026 125.07 988.525C125.07 994.989 123.232 1001.26 119.752 1006.66C113.536 1016.31 102.987 1022.07 91.535 1022.07ZM91.535 955.158C75.1284 955.158 61.2898 966.886 58.6269 983.048C58.3292 984.845 58.1791 986.686 58.1791 988.525C58.1791 1006.92 73.1424 1021.89 91.535 1021.89C102.927 1021.89 113.418 1016.16 119.599 1006.56C123.06 1001.19 124.891 994.952 124.891 988.525C124.891 970.127 109.928 955.158 91.535 955.158Z" fill="white"/>
</g>
<g opacity="0.57">
<path fill-rule="evenodd" clip-rule="evenodd" d="M91.5359 1022.04C73.0616 1022.04 58.0352 1007 58.0352 988.524C58.0352 986.677 58.1853 984.828 58.4829 983.023C59.7604 975.282 63.7613 968.192 69.7534 963.059C75.8114 957.869 83.5473 955.01 91.5359 955.01C110.008 955.01 125.037 970.044 125.037 988.524C125.037 994.98 123.198 1001.25 119.724 1006.64C113.516 1016.28 102.978 1022.04 91.5359 1022.04ZM91.5359 955.189C75.1477 955.189 61.3223 966.908 58.6594 983.052C58.3644 984.846 58.2143 986.688 58.2143 988.524C58.2143 1006.9 73.1617 1021.86 91.5359 1021.86C102.917 1021.86 113.397 1016.13 119.571 1006.54C123.03 1001.18 124.858 994.945 124.858 988.524C124.858 970.144 109.91 955.189 91.5359 955.189Z" fill="white"/>
</g>
<g opacity="0.56">
<path fill-rule="evenodd" clip-rule="evenodd" d="M91.5368 1022C73.0836 1022 58.0703 1006.98 58.0703 988.525C58.0703 986.678 58.2204 984.831 58.5181 983.028C59.7929 975.295 63.7912 968.213 69.7781 963.083C75.8282 957.9 83.5561 955.047 91.5368 955.047C109.99 955.047 125.003 970.065 125.003 988.525C125.003 994.975 123.168 1001.23 119.696 1006.62C113.493 1016.25 102.968 1022 91.5368 1022ZM91.5368 955.223C75.1644 955.223 61.3522 966.93 58.6946 983.057C58.3969 984.849 58.2468 986.688 58.2468 988.525C58.2468 1006.89 73.1811 1021.82 91.5368 1021.82C102.905 1021.82 113.377 1016.11 119.546 1006.53C122.999 1001.16 124.824 994.94 124.824 988.525C124.824 970.163 109.893 955.223 91.5368 955.223Z" fill="white"/>
</g>
<g opacity="0.55">
<path fill-rule="evenodd" clip-rule="evenodd" d="M91.5339 1021.97C73.0991 1021.97 58.1016 1006.97 58.1016 988.525C58.1016 986.681 58.2517 984.834 58.5493 983.037C59.8241 975.309 63.8172 968.235 69.7961 963.11C75.8436 957.933 83.561 955.082 91.5339 955.082C109.969 955.082 124.966 970.085 124.966 988.525C124.966 994.968 123.133 1001.22 119.664 1006.61C113.466 1016.23 102.952 1021.97 91.5339 1021.97ZM91.5339 955.259C75.1772 955.259 61.3808 966.952 58.7258 983.066C58.4282 984.853 58.278 986.689 58.278 988.525C58.278 1006.87 73.1965 1021.79 91.5339 1021.79C102.891 1021.79 113.351 1016.08 119.514 1006.51C122.964 1001.15 124.79 994.933 124.79 988.525C124.79 970.182 109.871 955.259 91.5339 955.259Z" fill="white"/>
</g>
<g opacity="0.55">
<path fill-rule="evenodd" clip-rule="evenodd" d="M91.5348 1021.93C73.1184 1021.93 58.1367 1006.94 58.1367 988.524C58.1367 986.683 58.2869 984.836 58.5845 983.041C59.8567 975.321 63.847 968.252 69.8208 963.136C75.8603 957.963 83.5724 955.115 91.5348 955.115C109.951 955.115 124.933 970.102 124.933 988.524C124.933 994.961 123.1 1001.21 119.636 1006.59C113.446 1016.2 102.942 1021.93 91.5348 1021.93ZM91.5348 955.292C75.194 955.292 61.4107 966.974 58.7583 983.07C58.4633 984.857 58.3132 986.691 58.3132 988.524C58.3132 1006.85 73.2159 1021.76 91.5348 1021.76C102.882 1021.76 113.33 1016.05 119.486 1006.49C122.934 1001.14 124.756 994.927 124.756 988.524C124.756 970.199 109.854 955.292 91.5348 955.292Z" fill="white"/>
</g>
<g opacity="0.54">
<path fill-rule="evenodd" clip-rule="evenodd" d="M91.5357 1021.9C73.1378 1021.9 58.1719 1006.93 58.1719 988.525C58.1719 986.686 58.322 984.842 58.6196 983.048C59.8918 975.338 63.8769 968.274 69.8428 963.163C75.8771 957.996 83.5813 955.15 91.5357 955.15C109.931 955.15 124.899 970.121 124.899 988.525C124.899 994.954 123.069 1001.19 119.605 1006.57C113.424 1016.17 102.93 1021.9 91.5357 1021.9ZM91.5357 955.324C75.2133 955.324 61.4432 966.996 58.7935 983.077C58.4958 984.86 58.3457 986.694 58.3457 988.525C58.3457 1006.83 73.2352 1021.72 91.5357 1021.72C102.869 1021.72 113.308 1016.02 119.458 1006.47C122.903 1001.13 124.723 994.92 124.723 988.525C124.723 970.219 109.836 955.324 91.5357 955.324Z" fill="white"/>
</g>
<g opacity="0.53">
<path fill-rule="evenodd" clip-rule="evenodd" d="M91.5366 1021.86C73.1598 1021.86 58.207 1006.91 58.207 988.526C58.207 986.69 58.3572 984.848 58.6548 983.054C59.9243 975.352 63.9068 968.296 69.8674 963.19C75.8938 958.028 83.5901 955.186 91.5366 955.186C109.913 955.186 124.866 970.141 124.866 988.526C124.866 994.947 123.038 1001.18 119.577 1006.55C113.403 1016.14 102.92 1021.86 91.5366 1021.86ZM91.5366 955.359C75.23 955.359 61.4731 967.018 58.826 983.083C58.531 984.866 58.3809 986.698 58.3809 988.526C58.3809 1006.81 73.2546 1021.69 91.5366 1021.69C102.86 1021.69 113.287 1016 119.432 1006.46C122.872 1001.12 124.69 994.916 124.69 988.526C124.69 970.238 109.819 955.359 91.5366 955.359Z" fill="white"/>
</g>
<g opacity="0.53">
<path fill-rule="evenodd" clip-rule="evenodd" d="M91.5336 1021.83C73.1752 1021.83 58.2383 1006.89 58.2383 988.525C58.2383 986.689 58.3884 984.85 58.686 983.058C59.953 975.364 63.9328 968.316 69.8881 963.215C75.9066 958.059 83.595 955.219 91.5336 955.219C109.892 955.219 124.829 970.161 124.829 988.525C124.829 994.941 123.001 1001.17 119.545 1006.53C113.377 1016.11 102.904 1021.83 91.5336 1021.83ZM91.5336 955.393C75.2428 955.393 61.5017 967.038 58.8573 983.087C58.5623 984.868 58.4121 986.699 58.4121 988.525C58.4121 1006.79 73.27 1021.66 91.5336 1021.66C102.846 1021.66 113.263 1015.97 119.4 1006.44C122.838 1001.1 124.655 994.907 124.655 988.525C124.655 970.256 109.797 955.393 91.5336 955.393Z" fill="white"/>
</g>
<g opacity="0.52">
<path fill-rule="evenodd" clip-rule="evenodd" d="M91.5345 1021.79C73.1946 1021.79 58.2734 1006.87 58.2734 988.524C58.2734 986.69 58.4262 984.854 58.7212 983.062C59.9881 975.377 63.9627 968.336 69.9101 963.241C75.9233 958.09 83.6038 955.252 91.5345 955.252C109.874 955.252 124.793 970.178 124.793 988.524C124.793 994.932 122.97 1001.15 119.517 1006.51C113.354 1016.08 102.895 1021.79 91.5345 1021.79ZM91.5345 955.426C75.2622 955.426 61.5316 967.061 58.8898 983.091C58.5974 984.872 58.4473 986.701 58.4473 988.524C58.4473 1006.78 73.2894 1021.62 91.5345 1021.62C102.834 1021.62 113.243 1015.94 119.372 1006.42C122.807 1001.09 124.622 994.9 124.622 988.524C124.622 970.273 109.78 955.426 91.5345 955.426Z" fill="white"/>
</g>
<g opacity="0.51">
<path fill-rule="evenodd" clip-rule="evenodd" d="M91.5354 1021.76C73.2139 1021.76 58.3086 1006.85 58.3086 988.525C58.3086 986.694 58.4587 984.86 58.7564 983.068C60.0206 975.391 63.9899 968.358 69.9347 963.268C75.94 958.122 83.6126 955.287 91.5354 955.287C109.854 955.287 124.76 970.197 124.76 988.525C124.76 994.928 122.937 1001.14 119.489 1006.49C113.334 1016.05 102.882 1021.76 91.5354 1021.76ZM91.5354 955.458C75.2789 955.458 61.5641 967.083 58.9249 983.097C58.6299 984.878 58.4798 986.704 58.4798 988.525C58.4798 1006.76 73.3087 1021.59 91.5354 1021.59C102.824 1021.59 113.22 1015.91 119.347 1006.4C122.776 1001.07 124.588 994.893 124.588 988.525C124.588 970.292 109.762 955.458 91.5354 955.458Z" fill="white"/>
</g>
<g opacity="0.51">
<path fill-rule="evenodd" clip-rule="evenodd" d="M91.5364 1021.73C73.2333 1021.73 58.3438 1006.83 58.3438 988.525C58.3438 986.694 58.4939 984.86 58.7915 983.076C60.0558 975.404 64.0198 968.38 69.9567 963.294C75.9594 958.154 83.6214 955.324 91.5364 955.324C109.837 955.324 124.726 970.216 124.726 988.525C124.726 994.92 122.906 1001.13 119.461 1006.47C113.311 1016.02 102.873 1021.73 91.5364 1021.73ZM91.5364 955.493C75.2956 955.493 61.594 967.104 58.9601 983.103C58.6651 984.881 58.515 986.705 58.515 988.525C58.515 1006.74 73.3281 1021.56 91.5364 1021.56C102.815 1021.56 113.2 1015.88 119.319 1006.38C122.746 1001.06 124.558 994.888 124.558 988.525C124.558 970.311 109.745 955.493 91.5364 955.493Z" fill="white"/>
</g>
<g opacity="0.5">
<path fill-rule="evenodd" clip-rule="evenodd" d="M91.5346 1021.69C73.2526 1021.69 58.3789 1006.81 58.3789 988.524C58.3789 986.696 58.529 984.864 58.824 983.081C60.0857 975.419 64.0471 968.4 69.9787 963.32C75.9735 958.185 83.6276 955.357 91.5346 955.357C109.817 955.357 124.69 970.236 124.69 988.524C124.69 994.914 122.873 1001.11 119.43 1006.45C113.286 1015.99 102.858 1021.69 91.5346 1021.69ZM91.5346 955.526C75.3123 955.526 61.6239 967.124 58.99 983.107C58.6976 984.883 58.5475 986.704 58.5475 988.524C58.5475 1006.72 73.3448 1021.52 91.5346 1021.52C102.8 1021.52 113.175 1015.85 119.288 1006.36C122.712 1001.05 124.522 994.882 124.522 988.524C124.522 970.328 109.724 955.526 91.5346 955.526Z" fill="white"/>
</g>
<g opacity="0.49">
<path fill-rule="evenodd" clip-rule="evenodd" d="M91.5355 1021.66C73.272 1021.66 58.4141 1006.79 58.4141 988.525C58.4141 986.699 58.5642 984.868 58.8592 983.087C60.1208 975.433 64.077 968.422 70.0007 963.347C75.9902 958.217 83.6391 955.393 91.5355 955.393C109.799 955.393 124.657 970.255 124.657 988.525C124.657 994.907 122.84 1001.1 119.402 1006.44C113.265 1015.97 102.848 1021.66 91.5355 1021.66ZM91.5355 955.561C75.3291 955.561 61.6564 967.149 59.0251 983.113C58.7301 984.886 58.5826 986.707 58.5826 988.525C58.5826 1006.7 73.3642 1021.49 91.5355 1021.49C102.79 1021.49 113.155 1015.83 119.26 1006.34C122.682 1001.04 124.488 994.875 124.488 988.525C124.488 970.348 109.707 955.561 91.5355 955.561Z" fill="white"/>
</g>
<g opacity="0.49">
<path fill-rule="evenodd" clip-rule="evenodd" d="M91.5326 1021.62C73.2874 1021.62 58.4453 1006.77 58.4453 988.526C58.4453 986.7 58.5954 984.874 58.8904 983.093C60.1495 975.447 64.103 968.444 70.0214 963.374C76.003 958.25 83.644 955.428 91.5326 955.428C109.778 955.428 124.62 970.275 124.62 988.526C124.62 994.902 122.805 1001.09 119.37 1006.42C113.239 1015.94 102.832 1021.62 91.5326 1021.62ZM91.5326 955.594C75.3419 955.594 61.6824 967.171 59.0537 983.119C58.7614 984.893 58.6112 986.711 58.6112 988.526C58.6112 1006.68 73.3796 1021.46 91.5326 1021.46C102.777 1021.46 113.131 1015.8 119.231 1006.33C122.647 1001.03 124.451 994.868 124.451 988.526C124.451 970.367 109.685 955.594 91.5326 955.594Z" fill="white"/>
</g>
<g opacity="0.48">
<path fill-rule="evenodd" clip-rule="evenodd" d="M91.5335 1021.59C73.3068 1021.59 58.4805 1006.76 58.4805 988.525C58.4805 986.702 58.6306 984.876 58.9256 983.097C60.1846 975.459 64.1329 968.464 70.0434 963.4C76.0197 958.28 83.6528 955.461 91.5335 955.461C109.758 955.461 124.586 970.292 124.586 988.525C124.586 994.893 122.772 1001.07 119.342 1006.4C113.218 1015.91 102.822 1021.59 91.5335 1021.59ZM91.5335 955.627C75.3586 955.627 61.7149 967.191 59.0889 983.126C58.7965 984.894 58.6464 986.71 58.6464 988.525C58.6464 1006.66 73.399 1021.42 91.5335 1021.42C102.764 1021.42 113.108 1015.77 119.203 1006.31C122.616 1001.01 124.421 994.862 124.421 988.525C124.421 970.384 109.668 955.627 91.5335 955.627Z" fill="white"/>
</g>
<g opacity="0.47">
<path fill-rule="evenodd" clip-rule="evenodd" d="M91.5344 1021.55C73.3288 1021.55 58.5156 1006.74 58.5156 988.524C58.5156 986.703 58.6658 984.88 58.9608 983.102C60.2171 975.471 64.1627 968.484 70.068 963.425C76.0364 958.311 83.6616 955.494 91.5344 955.494C109.74 955.494 124.551 970.312 124.551 988.524C124.551 994.887 122.741 1001.06 119.314 1006.38C113.196 1015.88 102.81 1021.55 91.5344 1021.55ZM91.5344 955.66C75.3753 955.66 61.7448 967.211 59.1241 983.13C58.8291 984.898 58.6816 986.711 58.6816 988.524C58.6816 1006.64 73.4183 1021.39 91.5344 1021.39C102.755 1021.39 113.088 1015.74 119.175 1006.29C122.586 1001 124.387 994.855 124.387 988.524C124.387 970.402 109.65 955.66 91.5344 955.66Z" fill="white"/>
</g>
<g opacity="0.46">
<path fill-rule="evenodd" clip-rule="evenodd" d="M91.5353 1021.52C73.3481 1021.52 58.5508 1006.72 58.5508 988.525C58.5508 986.707 58.7009 984.884 58.9959 983.108C60.2523 975.488 64.1926 968.506 70.09 963.452C76.0558 958.343 83.6704 955.529 91.5353 955.529C109.722 955.529 124.517 970.332 124.517 988.525C124.517 994.88 122.71 1001.05 119.286 1006.36C113.176 1015.85 102.801 1021.52 91.5353 1021.52ZM91.5353 955.695C75.3947 955.695 61.7773 967.236 59.1566 983.137C58.8642 984.902 58.7167 986.715 58.7167 988.525C58.7167 1006.63 73.4377 1021.35 91.5353 1021.35C102.743 1021.35 113.068 1015.72 119.149 1006.27C122.555 1000.99 124.354 994.848 124.354 988.525C124.354 970.421 109.63 955.695 91.5353 955.695Z" fill="white"/>
</g>
<g opacity="0.46">
<path fill-rule="evenodd" clip-rule="evenodd" d="M91.5323 1021.48C73.3636 1021.48 58.582 1006.7 58.582 988.526C58.582 986.71 58.7322 984.89 59.0245 983.116C60.2809 975.502 64.216 968.528 70.1107 963.479C76.0686 958.376 83.6753 955.564 91.5323 955.564C109.701 955.564 124.48 970.351 124.48 988.526C124.48 994.876 122.673 1001.04 119.254 1006.34C113.149 1015.82 102.784 1021.48 91.5323 1021.48ZM91.5323 955.728C75.4075 955.728 61.8033 967.258 59.1878 983.143C58.8955 984.908 58.7453 986.718 58.7453 988.526C58.7453 1006.61 73.4531 1021.32 91.5323 1021.32C102.729 1021.32 113.041 1015.69 119.117 1006.26C122.52 1000.98 124.317 994.844 124.317 988.526C124.317 970.44 109.609 955.728 91.5323 955.728Z" fill="white"/>
</g>
<g opacity="0.45">
<path fill-rule="evenodd" clip-rule="evenodd" d="M91.5345 1021.45C73.3842 1021.45 58.6211 1006.68 58.6211 988.525C58.6211 986.709 58.7686 984.889 59.061 983.121C60.3147 975.514 64.2471 968.548 70.1339 963.505C76.0866 958.406 83.6854 955.598 91.5345 955.598C109.682 955.598 124.448 970.368 124.448 988.525C124.448 994.867 122.644 1001.02 119.227 1006.32C113.127 1015.79 102.776 1021.45 91.5345 1021.45ZM91.5345 955.761C75.4255 955.761 61.8371 967.278 59.2216 983.147C58.9293 984.907 58.7818 986.717 58.7818 988.525C58.7818 1006.59 73.4737 1021.29 91.5345 1021.29C102.721 1021.29 113.022 1015.66 119.091 1006.24C122.491 1000.96 124.287 994.835 124.287 988.525C124.287 970.458 109.593 955.761 91.5345 955.761Z" fill="white"/>
</g>
<g opacity="0.44">
<path fill-rule="evenodd" clip-rule="evenodd" d="M91.5354 1021.42C73.4062 1021.42 58.6562 1006.66 58.6562 988.525C58.6562 986.712 58.8037 984.894 59.0961 983.126C60.3499 975.527 64.277 968.569 70.1586 963.531C76.1033 958.438 83.6942 955.635 91.5354 955.635C109.665 955.635 124.415 970.39 124.415 988.525C124.415 994.862 122.61 1001.01 119.199 1006.3C113.107 1015.77 102.766 1021.42 91.5354 1021.42ZM91.5354 955.795C75.4448 955.795 61.8696 967.302 59.2568 983.153C58.9644 984.913 58.8169 986.72 58.8169 988.525C58.8169 1006.57 73.4931 1021.25 91.5354 1021.25C102.711 1021.25 113.002 1015.63 119.062 1006.22C122.458 1000.95 124.254 994.83 124.254 988.525C124.254 970.477 109.575 955.795 91.5354 955.795Z" fill="white"/>
</g>
<g opacity="0.44">
<path fill-rule="evenodd" clip-rule="evenodd" d="M91.5324 1021.38C73.4216 1021.38 58.6875 1006.64 58.6875 988.526C58.6875 986.716 58.835 984.9 59.1274 983.132C60.3785 975.542 64.303 968.591 70.1766 963.558C76.1161 958.471 83.7018 955.67 91.5324 955.67C109.643 955.67 124.377 970.409 124.377 988.526C124.377 994.855 122.576 1001 119.167 1006.29C113.08 1015.74 102.75 1021.38 91.5324 1021.38ZM91.5324 955.831C75.4576 955.831 61.8956 967.324 59.2854 983.159C58.9957 984.919 58.8482 986.724 58.8482 988.526C58.8482 1006.55 73.5085 1021.22 91.5324 1021.22C102.695 1021.22 112.975 1015.61 119.033 1006.2C122.423 1000.94 124.217 994.823 124.217 988.526C124.217 970.496 109.554 955.831 91.5324 955.831Z" fill="white"/>
</g>
<g opacity="0.43">
<path fill-rule="evenodd" clip-rule="evenodd" d="M91.5333 1021.35C73.441 1021.35 58.7227 1006.62 58.7227 988.525C58.7227 986.717 58.8702 984.905 59.1625 983.137C60.4136 975.554 64.3329 968.611 70.2013 963.584C76.1328 958.501 83.7106 955.703 91.5333 955.703C109.626 955.703 124.344 970.426 124.344 988.525C124.344 994.846 122.545 1000.98 119.139 1006.27C113.058 1015.71 102.738 1021.35 91.5333 1021.35ZM91.5333 955.861C75.4744 955.861 61.9281 967.344 59.3206 983.163C59.0282 984.92 58.8807 986.725 58.8807 988.525C58.8807 1006.53 73.5279 1021.19 91.5333 1021.19C102.685 1021.19 112.955 1015.58 119.005 1006.18C122.392 1000.92 124.183 994.817 124.183 988.525C124.183 970.513 109.536 955.861 91.5333 955.861Z" fill="white"/>
</g>
<g opacity="0.42">
<path fill-rule="evenodd" clip-rule="evenodd" d="M91.5343 1021.31C73.4603 1021.31 58.7578 1006.6 58.7578 988.526C58.7578 986.718 58.9053 984.908 59.1977 983.143C60.4462 975.57 64.3628 968.633 70.2232 963.611C76.1522 958.534 83.7194 955.738 91.5343 955.738C109.606 955.738 124.311 970.446 124.311 988.526C124.311 994.841 122.512 1000.97 119.111 1006.25C113.038 1015.68 102.728 1021.31 91.5343 1021.31ZM91.5343 955.896C75.4911 955.896 61.958 967.366 59.3557 983.169C59.0633 984.927 58.9158 986.726 58.9158 988.526C58.9158 1006.52 73.5499 1021.15 91.5343 1021.15C102.673 1021.15 112.935 1015.55 118.977 1006.17C122.362 1000.91 124.153 994.81 124.153 988.526C124.153 970.533 109.519 955.896 91.5343 955.896Z" fill="white"/>
</g>
<g opacity="0.42">
<path fill-rule="evenodd" clip-rule="evenodd" d="M91.5352 1021.28C73.4797 1021.28 58.793 1006.58 58.793 988.525C58.793 986.72 58.9405 984.912 59.2328 983.15C60.4813 975.582 64.3927 968.653 70.2479 963.636C76.1689 958.564 83.7282 955.771 91.5352 955.771C109.588 955.771 124.277 970.463 124.277 988.525C124.277 994.835 122.481 1000.96 119.083 1006.23C113.015 1015.65 102.716 1021.28 91.5352 1021.28ZM91.5352 955.93C75.5104 955.93 61.9905 967.388 59.3882 983.173C59.0985 984.928 58.951 986.728 58.951 988.525C58.951 1006.5 73.5666 1021.12 91.5352 1021.12C102.663 1021.12 112.912 1015.52 118.949 1006.15C122.331 1000.9 124.119 994.803 124.119 988.525C124.119 970.55 109.501 955.93 91.5352 955.93Z" fill="white"/>
</g>
<g opacity="0.41">
<path fill-rule="evenodd" clip-rule="evenodd" d="M91.5361 1021.24C73.5017 1021.24 58.8281 1006.57 58.8281 988.526C58.8281 986.723 58.9756 984.916 59.268 983.156C60.5138 975.597 64.4226 968.675 70.2699 963.664C76.1856 958.597 83.7371 955.807 91.5361 955.807C109.571 955.807 124.244 970.485 124.244 988.526C124.244 994.828 122.448 1000.94 119.055 1006.21C112.995 1015.62 102.707 1021.24 91.5361 1021.24ZM91.5361 955.965C75.5271 955.965 62.0204 967.41 59.4234 983.18C59.131 984.934 58.9862 986.731 58.9862 988.526C58.9862 1006.48 73.586 1021.09 91.5361 1021.09C102.654 1021.09 112.892 1015.5 118.924 1006.13C122.3 1000.89 124.086 994.799 124.086 988.526C124.086 970.569 109.484 955.965 91.5361 955.965Z" fill="white"/>
</g>
<g opacity="0.4">
<path fill-rule="evenodd" clip-rule="evenodd" d="M91.5331 1021.21C73.5171 1021.21 58.8594 1006.55 58.8594 988.524C58.8594 986.722 59.0069 984.917 59.2992 983.16C60.5424 975.609 64.4459 968.695 70.2906 963.689C76.1984 958.627 83.742 955.84 91.5331 955.84C109.549 955.84 124.207 970.502 124.207 988.524C124.207 994.819 122.413 1000.93 119.023 1006.19C112.968 1015.59 102.69 1021.21 91.5331 1021.21ZM91.5331 955.995C75.54 955.995 62.049 967.43 59.452 983.186C59.1623 984.936 59.0174 986.73 59.0174 988.524C59.0174 1006.46 73.604 1021.05 91.5331 1021.05C102.638 1021.05 112.865 1015.47 118.892 1006.11C122.266 1000.87 124.049 994.79 124.049 988.524C124.049 970.587 109.462 955.995 91.5331 955.995Z" fill="white"/>
</g>
<g opacity="0.4">
<path fill-rule="evenodd" clip-rule="evenodd" d="M91.5353 1021.17C73.5377 1021.17 58.8984 1006.53 58.8984 988.525C58.8984 986.723 59.0433 984.921 59.3357 983.166C60.5789 975.623 64.4771 968.717 70.3165 963.716C76.2164 958.66 83.7521 955.875 91.5353 955.875C109.533 955.875 124.172 970.522 124.172 988.525C124.172 994.815 122.384 1000.92 118.996 1006.18C112.949 1015.57 102.682 1021.17 91.5353 1021.17ZM91.5353 956.03C75.558 956.03 62.0802 967.452 59.4884 983.193C59.1987 984.939 59.0512 986.734 59.0512 988.525C59.0512 1006.44 73.6247 1021.02 91.5353 1021.02C102.629 1021.02 112.846 1015.44 118.865 1006.09C122.236 1000.86 124.019 994.786 124.019 988.525C124.019 970.606 109.446 956.03 91.5353 956.03Z" fill="white"/>
</g>
<g opacity="0.39">
<path fill-rule="evenodd" clip-rule="evenodd" d="M91.5362 1021.14C73.5571 1021.14 58.9336 1006.51 58.9336 988.526C58.9336 986.727 59.0811 984.927 59.3708 983.172C60.6114 975.639 64.507 968.739 70.3384 963.743C76.2331 958.692 83.7609 955.91 91.5362 955.91C109.513 955.91 124.139 970.541 124.139 988.526C124.139 994.808 122.35 1000.9 118.968 1006.16C112.926 1015.54 102.67 1021.14 91.5362 1021.14ZM91.5362 956.066C75.5773 956.066 62.1127 967.477 59.521 983.199C59.2339 984.943 59.0864 986.737 59.0864 988.526C59.0864 1006.42 73.644 1020.99 91.5362 1020.99C102.62 1020.99 112.826 1015.41 118.839 1006.07C122.205 1000.85 123.986 994.779 123.986 988.526C123.986 970.625 109.428 956.066 91.5362 956.066Z" fill="white"/>
</g>
<g opacity="0.38">
<path fill-rule="evenodd" clip-rule="evenodd" d="M91.5332 1021.1C73.5752 1021.1 58.9648 1006.49 58.9648 988.525C58.9648 986.728 59.1123 984.931 59.4021 983.176C60.6426 975.651 64.5329 968.756 70.3592 963.768C76.2486 958.722 83.7684 955.945 91.5332 955.945C109.491 955.945 124.102 970.561 124.102 988.525C124.102 994.801 122.316 1000.89 118.936 1006.14C112.9 1015.51 102.656 1021.1 91.5332 1021.1ZM91.5332 956.095C75.5901 956.095 62.1413 967.496 59.5522 983.202C59.2625 984.946 59.1176 986.738 59.1176 988.525C59.1176 1006.4 73.6595 1020.95 91.5332 1020.95C102.604 1020.95 112.799 1015.38 118.807 1006.05C122.171 1000.83 123.949 994.772 123.949 988.525C123.949 970.642 109.407 956.095 91.5332 956.095Z" fill="white"/>
</g>
<g opacity="0.37">
<path fill-rule="evenodd" clip-rule="evenodd" d="M91.5341 1021.07C73.5945 1021.07 59 1006.47 59 988.525C59 986.731 59.1475 984.934 59.4372 983.185C60.6752 975.665 64.5628 968.778 70.3811 963.795C76.2653 958.755 83.7772 955.98 91.5341 955.98C109.474 955.98 124.068 970.58 124.068 988.525C124.068 994.794 122.282 1000.88 118.908 1006.12C112.879 1015.48 102.647 1021.07 91.5341 1021.07ZM91.5341 956.131C75.6068 956.131 62.1712 967.518 59.5874 983.208C59.2976 984.95 59.1501 986.739 59.1501 988.525C59.1501 1006.39 73.6788 1020.92 91.5341 1020.92C102.594 1020.92 112.779 1015.36 118.779 1006.04C122.14 1000.82 123.915 994.765 123.915 988.525C123.915 970.664 109.389 956.131 91.5341 956.131Z" fill="white"/>
</g>
<g opacity="0.37">
<path fill-rule="evenodd" clip-rule="evenodd" d="M91.535 1021.04C73.6139 1021.04 59.0352 1006.45 59.0352 988.526C59.0352 986.735 59.1827 984.94 59.4724 983.191C60.7103 975.679 64.5927 968.8 70.4058 963.823C76.282 958.787 83.7861 956.016 91.535 956.016C109.456 956.016 124.035 970.599 124.035 988.526C124.035 994.789 122.252 1000.87 118.878 1006.1C112.857 1015.45 102.634 1021.04 91.535 1021.04ZM91.535 956.166C75.6262 956.166 62.2038 967.54 59.6199 983.215C59.3328 984.956 59.1853 986.743 59.1853 988.526C59.1853 1006.37 73.6982 1020.89 91.535 1020.89C102.584 1020.89 112.756 1015.33 118.751 1006.02C122.11 1000.81 123.885 994.76 123.885 988.526C123.885 970.684 109.372 956.166 91.535 956.166Z" fill="white"/>
</g>
<g opacity="0.36">
<path fill-rule="evenodd" clip-rule="evenodd" d="M91.536 1021C73.6332 1021 59.0703 1006.43 59.0703 988.525C59.0703 986.736 59.2178 984.942 59.5075 983.195C60.7428 975.691 64.6226 968.82 70.4278 963.848C76.2988 958.818 83.7949 956.049 91.536 956.049C109.436 956.049 124.002 970.617 124.002 988.525C124.002 994.78 122.221 1000.85 118.85 1006.08C112.834 1015.42 102.625 1021 91.536 1021ZM91.536 956.199C75.6429 956.199 62.2336 967.563 59.655 983.219C59.3653 984.96 59.2204 986.744 59.2204 988.525C59.2204 1006.35 73.7175 1020.85 91.536 1020.85C102.572 1020.85 112.736 1015.3 118.726 1006C122.079 1000.8 123.851 994.751 123.851 988.525C123.851 970.701 109.354 956.199 91.536 956.199Z" fill="white"/>
</g>
<g opacity="0.35">
<path fill-rule="evenodd" clip-rule="evenodd" d="M91.5369 1020.96C73.6552 1020.96 59.1055 1006.41 59.1055 988.524C59.1055 986.735 59.253 984.944 59.5427 983.199C60.7754 975.703 64.6525 968.84 70.4524 963.87C76.3155 958.849 83.8037 956.082 91.5369 956.082C109.419 956.082 123.968 970.634 123.968 988.524C123.968 994.774 122.188 1000.84 118.822 1006.06C112.814 1015.39 102.612 1020.96 91.5369 1020.96ZM91.5369 956.23C75.6596 956.23 62.2662 967.583 59.6876 983.223C59.4005 984.962 59.2556 986.743 59.2556 988.524C59.2556 1006.33 73.7369 1020.82 91.5369 1020.82C102.562 1020.82 112.716 1015.27 118.698 1005.98C122.048 1000.78 123.818 994.745 123.818 988.524C123.818 970.718 109.337 956.23 91.5369 956.23Z" fill="white"/>
</g>
<g opacity="0.35">
<path fill-rule="evenodd" clip-rule="evenodd" d="M91.5339 1020.93C73.6707 1020.93 59.1367 1006.39 59.1367 988.525C59.1367 986.739 59.2842 984.947 59.5713 983.205C60.8066 975.72 64.6758 968.862 70.4705 963.898C76.3283 958.881 83.8086 956.117 91.5339 956.117C109.397 956.117 123.928 970.656 123.928 988.525C123.928 994.767 122.153 1000.82 118.79 1006.04C112.787 1015.37 102.599 1020.93 91.5339 1020.93ZM91.5339 956.265C75.6724 956.265 62.2921 967.605 59.7188 983.229C59.4317 984.966 59.2842 986.747 59.2842 988.525C59.2842 1006.31 73.7523 1020.78 91.5339 1020.78C102.546 1020.78 112.692 1015.24 118.666 1005.96C122.014 1000.77 123.781 994.738 123.781 988.525C123.781 970.738 109.315 956.265 91.5339 956.265Z" fill="white"/>
</g>
<g opacity="0.34">
<path fill-rule="evenodd" clip-rule="evenodd" d="M91.5348 1020.9C73.69 1020.9 59.1719 1006.38 59.1719 988.526C59.1719 986.74 59.3194 984.953 59.6065 983.212C60.8391 975.734 64.7057 968.884 70.4951 963.925C76.345 958.914 83.8174 956.152 91.5348 956.152C109.38 956.152 123.895 970.675 123.895 988.526C123.895 994.763 122.12 1000.81 118.762 1006.03C112.767 1015.34 102.587 1020.9 91.5348 1020.9ZM91.5348 956.3C75.6918 956.3 62.3247 967.63 59.7513 983.235C59.4642 984.969 59.3194 986.75 59.3194 988.526C59.3194 1006.3 73.7717 1020.75 91.5348 1020.75C102.537 1020.75 112.669 1015.22 118.638 1005.95C121.983 1000.76 123.75 994.734 123.75 988.526C123.75 970.757 109.298 956.3 91.5348 956.3Z" fill="white"/>
</g>
<g opacity="0.33">
<path fill-rule="evenodd" clip-rule="evenodd" d="M91.5357 1020.86C73.7094 1020.86 59.207 1006.35 59.207 988.525C59.207 986.741 59.3545 984.957 59.6443 983.216C60.8743 975.746 64.7356 968.904 70.5171 963.95C76.3644 958.944 83.8262 956.186 91.5357 956.186C109.362 956.186 123.862 970.693 123.862 988.525C123.862 994.754 122.089 1000.8 118.734 1006.01C112.744 1015.31 102.577 1020.86 91.5357 1020.86ZM91.5357 956.333C75.7085 956.333 62.3546 967.65 59.7865 983.24C59.4994 984.973 59.3545 986.749 59.3545 988.525C59.3545 1006.28 73.791 1020.72 91.5357 1020.72C102.527 1020.72 112.649 1015.19 118.612 1005.93C121.952 1000.75 123.717 994.725 123.717 988.525C123.717 970.774 109.28 956.333 91.5357 956.333Z" fill="white"/>
</g>
<g opacity="0.33">
<path fill-rule="evenodd" clip-rule="evenodd" d="M91.534 1020.83C73.7287 1020.83 59.2422 1006.34 59.2422 988.525C59.2422 986.744 59.3871 984.96 59.6741 983.224C60.9042 975.76 64.7629 968.925 70.539 963.977C76.3784 958.976 83.8351 956.223 91.534 956.223C109.339 956.223 123.826 970.711 123.826 988.525C123.826 994.749 122.056 1000.78 118.703 1005.99C112.719 1015.28 102.562 1020.83 91.534 1020.83ZM91.534 956.365C75.7226 956.365 62.3844 967.671 59.819 983.248C59.5319 984.976 59.3871 986.752 59.3871 988.525C59.3871 1006.26 73.8077 1020.68 91.534 1020.68C102.512 1020.68 112.624 1015.16 118.582 1005.91C121.919 1000.73 123.681 994.72 123.681 988.525C123.681 970.793 109.26 956.365 91.534 956.365Z" fill="white"/>
</g>
<g opacity="0.32">
<path fill-rule="evenodd" clip-rule="evenodd" d="M91.5349 1020.79C73.7481 1020.79 59.2773 1006.32 59.2773 988.526C59.2773 986.748 59.4222 984.967 59.7093 983.23C60.9393 975.774 64.7928 968.947 70.561 964.004C76.3952 959.009 83.8439 956.258 91.5349 956.258C109.322 956.258 123.792 970.733 123.792 988.526C123.792 994.742 122.022 1000.78 118.675 1005.97C112.698 1015.25 102.553 1020.79 91.5349 1020.79ZM91.5349 956.4C75.7393 956.4 62.417 967.693 59.8515 983.254C59.5671 984.98 59.4196 986.756 59.4196 988.526C59.4196 1006.24 73.8271 1020.65 91.5349 1020.65C102.503 1020.65 112.604 1015.13 118.554 1005.89C121.888 1000.72 123.648 994.715 123.648 988.526C123.648 970.812 109.243 956.4 91.5349 956.4Z" fill="white"/>
</g>
<g opacity="0.31">
<path fill-rule="evenodd" clip-rule="evenodd" d="M91.5358 1020.76C73.7674 1020.76 59.3125 1006.3 59.3125 988.525C59.3125 986.749 59.4574 984.968 59.7445 983.234C60.9719 975.788 64.8227 968.967 70.5857 964.029C76.4119 959.039 83.8527 956.291 91.5358 956.291C109.304 956.291 123.759 970.751 123.759 988.525C123.759 994.735 121.992 1000.76 118.647 1005.95C112.676 1015.22 102.54 1020.76 91.5358 1020.76ZM91.5358 956.433C75.7587 956.433 62.4469 967.715 59.8867 983.258C59.5996 984.984 59.4547 986.757 59.4547 988.525C59.4547 1006.22 73.8464 1020.62 91.5358 1020.62C102.493 1020.62 112.583 1015.1 118.528 1005.87C121.857 1000.71 123.617 994.706 123.617 988.525C123.617 970.83 109.225 956.433 91.5358 956.433Z" fill="white"/>
</g>
<g opacity="0.31">
<path fill-rule="evenodd" clip-rule="evenodd" d="M91.5367 1020.73C73.7868 1020.73 59.3477 1006.28 59.3477 988.526C59.3477 986.753 59.4925 984.974 59.7796 983.241C61.007 975.803 64.8525 968.989 70.6076 964.057C76.4286 959.072 83.8615 956.326 91.5367 956.326C109.287 956.326 123.726 970.77 123.726 988.526C123.726 994.728 121.958 1000.75 118.619 1005.93C112.655 1015.2 102.531 1020.73 91.5367 1020.73ZM91.5367 956.468C75.7754 956.468 62.4794 967.737 59.9192 983.264C59.6348 984.99 59.4899 986.761 59.4899 988.526C59.4899 1006.2 73.8658 1020.58 91.5367 1020.58C102.481 1020.58 112.561 1015.08 118.5 1005.86C121.827 1000.69 123.584 994.702 123.584 988.526C123.584 970.849 109.208 956.468 91.5367 956.468Z" fill="white"/>
</g>
<g opacity="0.3">
<path fill-rule="evenodd" clip-rule="evenodd" d="M91.5337 1020.69C73.8049 1020.69 59.3789 1006.26 59.3789 988.525C59.3789 986.752 59.5238 984.976 59.8109 983.245C61.0356 975.815 64.8759 969.009 70.6284 964.082C76.4414 959.102 83.8664 956.359 91.5337 956.359C109.263 956.359 123.689 970.788 123.689 988.525C123.689 994.719 121.924 1000.73 118.587 1005.91C112.629 1015.17 102.515 1020.69 91.5337 1020.69ZM91.5337 956.499C75.7882 956.499 62.5054 967.757 59.9505 983.269C59.6634 984.992 59.5211 986.76 59.5211 988.525C59.5211 1006.18 73.8812 1020.55 91.5337 1020.55C102.467 1020.55 112.537 1015.05 118.468 1005.84C121.792 1000.68 123.546 994.693 123.546 988.525C123.546 970.867 109.186 956.499 91.5337 956.499Z" fill="white"/>
</g>
<g opacity="0.29">
<path fill-rule="evenodd" clip-rule="evenodd" d="M91.5347 1020.65C73.8242 1020.65 59.4141 1006.24 59.4141 988.526C59.4141 986.753 59.5589 984.979 59.846 983.251C61.0682 975.829 64.9058 969.031 70.6503 964.109C76.4581 959.135 83.8752 956.395 91.5347 956.395C109.245 956.395 123.653 970.809 123.653 988.526C123.653 994.715 121.893 1000.72 118.559 1005.89C112.606 1015.14 102.505 1020.65 91.5347 1020.65ZM91.5347 956.534C75.8076 956.534 62.5379 967.779 59.983 983.275C59.6985 984.995 59.5537 986.761 59.5537 988.526C59.5537 1006.17 73.9006 1020.51 91.5347 1020.51C102.458 1020.51 112.514 1015.02 118.44 1005.82C121.759 1000.67 123.513 994.689 123.513 988.526C123.513 970.886 109.169 956.534 91.5347 956.534Z" fill="white"/>
</g>
<g opacity="0.28">
<path fill-rule="evenodd" clip-rule="evenodd" d="M91.5356 1020.62C73.8436 1020.62 59.4492 1006.22 59.4492 988.525C59.4492 986.754 59.5941 984.984 59.8812 983.255C61.1033 975.841 64.9357 969.051 70.675 964.135C76.4775 959.165 83.884 956.428 91.5356 956.428C109.228 956.428 123.619 970.827 123.619 988.525C123.619 994.706 121.86 1000.71 118.531 1005.87C112.586 1015.11 102.493 1020.62 91.5356 1020.62ZM91.5356 956.567C75.8243 956.567 62.5678 967.802 60.0181 983.279C59.7337 984.997 59.5888 986.762 59.5888 988.525C59.5888 1006.15 73.9199 1020.48 91.5356 1020.48C102.445 1020.48 112.494 1014.99 118.415 1005.8C121.728 1000.66 123.482 994.68 123.482 988.525C123.482 970.903 109.151 956.567 91.5356 956.567Z" fill="white"/>
</g>
<g opacity="0.28">
<path fill-rule="evenodd" clip-rule="evenodd" d="M91.5365 1020.59C73.8629 1020.59 59.4844 1006.2 59.4844 988.526C59.4844 986.758 59.6319 984.987 59.9163 983.264C61.1358 975.855 64.9656 969.073 70.6996 964.162C76.4942 959.198 83.8955 956.463 91.5365 956.463C109.21 956.463 123.586 970.846 123.586 988.526C123.586 994.702 121.829 1000.7 118.503 1005.86C112.563 1015.08 102.483 1020.59 91.5365 1020.59ZM91.5365 956.603C75.841 956.603 62.6003 967.824 60.0533 983.285C59.7688 985.003 59.624 986.766 59.624 988.526C59.624 1006.13 73.9393 1020.45 91.5365 1020.45C102.436 1020.45 112.473 1014.97 118.387 1005.78C121.697 1000.64 123.449 994.675 123.449 988.526C123.449 970.923 109.134 956.603 91.5365 956.603Z" fill="white"/>
</g>
<g opacity="0.27">
<path fill-rule="evenodd" clip-rule="evenodd" d="M91.5348 1020.55C73.8796 1020.55 59.5195 1006.18 59.5195 988.525C59.5195 986.759 59.6644 984.991 59.9489 983.268C61.1684 975.87 64.9928 969.093 70.7189 964.187C76.5083 959.228 83.9017 956.496 91.5348 956.496C109.187 956.496 123.55 970.864 123.55 988.525C123.55 994.695 121.793 1000.68 118.472 1005.84C112.54 1015.05 102.468 1020.55 91.5348 1020.55ZM91.5348 956.633C75.8551 956.633 62.6276 967.844 60.0832 983.289C59.7987 985.005 59.6565 986.767 59.6565 988.525C59.6565 1006.11 73.956 1020.41 91.5348 1020.41C102.423 1020.41 112.451 1014.94 118.356 1005.76C121.664 1000.63 123.413 994.666 123.413 988.525C123.413 970.94 109.114 956.633 91.5348 956.633Z" fill="white"/>
</g>
<g opacity="0.26">
<path fill-rule="evenodd" clip-rule="evenodd" d="M91.5357 1020.52C73.9016 1020.52 59.5547 1006.16 59.5547 988.525C59.5547 986.762 59.6969 984.994 59.984 983.274C61.2009 975.883 65.0227 969.114 70.7436 964.214C76.525 959.26 83.9105 956.533 91.5357 956.533C109.17 956.533 123.517 970.885 123.517 988.525C123.517 994.688 121.762 1000.67 118.444 1005.82C112.517 1015.02 102.459 1020.52 91.5357 1020.52ZM91.5357 956.668C75.8744 956.668 62.6601 967.865 60.1183 983.295C59.8339 985.01 59.689 986.77 59.689 988.525C59.689 1006.09 73.9754 1020.38 91.5357 1020.38C102.411 1020.38 112.428 1014.91 118.331 1005.75C121.633 1000.62 123.38 994.661 123.38 988.525C123.38 970.959 109.096 956.668 91.5357 956.668Z" fill="white"/>
</g>
<g opacity="0.25">
<path fill-rule="evenodd" clip-rule="evenodd" d="M91.5327 1020.48C73.9171 1020.48 59.5859 1006.15 59.5859 988.526C59.5859 986.766 59.7308 985 60.0153 983.28C61.2321 975.897 65.0487 969.136 70.7616 964.241C76.5378 959.293 83.9154 956.568 91.5327 956.568C109.148 956.568 123.479 970.904 123.479 988.526C123.479 994.681 121.728 1000.66 118.412 1005.8C112.491 1014.99 102.442 1020.48 91.5327 1020.48ZM91.5327 956.703C75.8872 956.703 62.6887 967.89 60.147 983.301C59.8651 985.016 59.7203 986.774 59.7203 988.526C59.7203 1006.07 73.9908 1020.35 91.5327 1020.35C102.398 1020.35 112.404 1014.88 118.299 1005.73C121.599 1000.6 123.345 994.657 123.345 988.526C123.345 970.978 109.075 956.703 91.5327 956.703Z" fill="white"/>
</g>
<g opacity="0.25">
<path fill-rule="evenodd" clip-rule="evenodd" d="M91.5336 1020.45C73.9364 1020.45 59.6211 1006.13 59.6211 988.527C59.6211 986.767 59.766 985.004 60.0504 983.286C61.2647 975.911 65.0786 969.158 70.7863 964.268C76.5545 959.325 83.9242 956.604 91.5336 956.604C109.131 956.604 123.446 970.924 123.446 988.527C123.446 994.676 121.695 1000.64 118.384 1005.78C112.471 1014.97 102.433 1020.45 91.5336 1020.45ZM91.5336 956.738C75.904 956.738 62.7186 967.912 60.1821 983.307C59.8977 985.02 59.7554 986.775 59.7554 988.527C59.7554 1006.05 74.0102 1020.32 91.5336 1020.32C102.388 1020.32 112.381 1014.86 118.27 1005.71C121.568 1000.59 123.312 994.65 123.312 988.527C123.312 970.997 109.057 956.738 91.5336 956.738Z" fill="white"/>
</g>
<g opacity="0.24">
<path fill-rule="evenodd" clip-rule="evenodd" d="M91.5345 1020.41C73.9558 1020.41 59.6562 1006.11 59.6562 988.524C59.6562 986.766 59.8011 985.006 60.0856 983.288C61.2998 975.921 65.1085 969.176 70.8082 964.291C76.5739 959.354 83.933 956.635 91.5345 956.635C109.111 956.635 123.413 970.939 123.413 988.524C123.413 994.665 121.664 1000.63 118.356 1005.76C112.448 1014.93 102.42 1020.41 91.5345 1020.41ZM91.5345 956.767C75.9207 956.767 62.7511 967.93 60.2173 983.312C59.9328 985.019 59.7879 986.774 59.7879 988.524C59.7879 1006.03 74.0295 1020.28 91.5345 1020.28C102.376 1020.28 112.361 1014.82 118.242 1005.69C121.537 1000.58 123.278 994.642 123.278 988.524C123.278 971.013 109.04 956.767 91.5345 956.767Z" fill="white"/>
</g>
<g opacity="0.24">
<path fill-rule="evenodd" clip-rule="evenodd" d="M91.5354 1020.38C73.9778 1020.38 59.6914 1006.09 59.6914 988.525C59.6914 986.767 59.8363 985.01 60.1207 983.297C61.3323 975.938 65.1357 969.198 70.8329 964.319C76.5906 959.386 83.9419 956.67 91.5354 956.67C109.093 956.67 123.379 970.958 123.379 988.525C123.379 994.661 121.631 1000.62 118.328 1005.75C112.428 1014.91 102.411 1020.38 91.5354 1020.38ZM91.5354 956.802C75.94 956.802 62.781 967.952 60.2498 983.318C59.968 985.023 59.8231 986.775 59.8231 988.525C59.8231 1006.01 74.0489 1020.24 91.5354 1020.24C102.366 1020.24 112.341 1014.8 118.217 1005.67C121.507 1000.57 123.245 994.635 123.245 988.525C123.245 971.032 109.022 956.802 91.5354 956.802Z" fill="white"/>
</g>
<g opacity="0.23">
<path fill-rule="evenodd" clip-rule="evenodd" d="M91.5324 1020.34C73.9932 1020.34 59.7227 1006.07 59.7227 988.525C59.7227 986.771 59.8675 985.013 60.1494 983.303C61.361 975.952 65.1617 969.22 70.8509 964.346C76.6034 959.419 83.9468 956.705 91.5324 956.705C109.072 956.705 123.342 970.98 123.342 988.525C123.342 994.654 121.596 1000.6 118.296 1005.73C112.401 1014.88 102.395 1020.34 91.5324 1020.34ZM91.5324 956.837C75.9528 956.837 62.8096 967.977 60.281 983.324C59.9966 985.029 59.8544 986.779 59.8544 988.525C59.8544 1006 74.0643 1020.21 91.5324 1020.21C102.353 1020.21 112.314 1014.77 118.185 1005.66C121.472 1000.55 123.211 994.63 123.211 988.525C123.211 971.052 109.001 956.837 91.5324 956.837Z" fill="white"/>
</g>
<g opacity="0.22">
<path fill-rule="evenodd" clip-rule="evenodd" d="M91.5334 1020.31C74.0126 1020.31 59.7578 1006.05 59.7578 988.526C59.7578 986.774 59.9027 985.017 60.1871 983.309C61.3961 975.966 65.1916 969.242 70.8756 964.373C76.6201 959.451 83.9582 956.74 91.5334 956.74C109.054 956.74 123.306 971 123.306 988.526C123.306 994.65 121.565 1000.59 118.268 1005.71C112.378 1014.85 102.385 1020.31 91.5334 1020.31ZM91.5334 956.872C75.9696 956.872 62.8395 967.999 60.3136 983.331C60.0317 985.033 59.8895 986.78 59.8895 988.526C59.8895 1005.98 74.0837 1020.18 91.5334 1020.18C102.34 1020.18 112.294 1014.75 118.157 1005.64C121.441 1000.54 123.177 994.623 123.177 988.526C123.177 971.071 108.98 956.872 91.5334 956.872Z" fill="white"/>
</g>
<g opacity="0.22">
<path fill-rule="evenodd" clip-rule="evenodd" d="M91.5356 1020.27C74.0332 1020.27 59.7969 1006.03 59.7969 988.525C59.7969 986.776 59.9391 985.021 60.2209 983.314C61.4299 975.978 65.2227 969.26 70.8988 964.399C76.6381 959.482 83.9683 956.773 91.5356 956.773C109.035 956.773 123.274 971.017 123.274 988.525C123.274 994.641 121.533 1000.58 118.241 1005.69C112.359 1014.82 102.377 1020.27 91.5356 1020.27ZM91.5356 956.903C75.9876 956.903 62.8733 968.019 60.35 983.335C60.0682 985.037 59.9233 986.781 59.9233 988.525C59.9233 1005.96 74.1043 1020.15 91.5356 1020.15C102.332 1020.15 112.275 1014.72 118.13 1005.62C121.412 1000.53 123.145 994.617 123.145 988.525C123.145 971.088 108.967 956.903 91.5356 956.903Z" fill="white"/>
</g>
<g opacity="0.21">
<path fill-rule="evenodd" clip-rule="evenodd" d="M91.5326 1020.24C74.0513 1020.24 59.8281 1006.01 59.8281 988.524C59.8281 986.777 59.9704 985.025 60.2522 983.318C61.4612 975.991 65.2487 969.28 70.9195 964.424C76.6509 959.513 83.9732 956.807 91.5326 956.807C109.014 956.807 123.237 971.035 123.237 988.524C123.237 994.634 121.499 1000.56 118.209 1005.67C112.333 1014.79 102.361 1020.24 91.5326 1020.24ZM91.5326 956.936C76.003 956.936 62.9019 968.041 60.3786 983.339C60.0968 985.038 59.9546 986.783 59.9546 988.524C59.9546 1005.94 74.1197 1020.11 91.5326 1020.11C102.318 1020.11 112.248 1014.69 118.101 1005.6C121.377 1000.52 123.111 994.608 123.111 988.524C123.111 971.106 108.943 956.936 91.5326 956.936Z" fill="white"/>
</g>
<g opacity="0.2">
<path fill-rule="evenodd" clip-rule="evenodd" d="M91.5335 1020.21C74.0706 1020.21 59.8633 1006 59.8633 988.526C59.8633 986.78 60.0055 985.03 60.2873 983.325C61.4937 976.006 65.2786 969.303 70.9415 964.452C76.6677 959.546 83.982 956.846 91.5335 956.846C108.996 956.846 123.204 971.058 123.204 988.526C123.204 994.629 121.465 1000.55 118.181 1005.65C112.31 1014.77 102.348 1020.21 91.5335 1020.21ZM91.5335 956.972C76.0197 956.972 62.9318 968.065 60.4138 983.346C60.1319 985.043 59.9897 986.787 59.9897 988.526C59.9897 1005.92 74.1391 1020.08 91.5335 1020.08C102.306 1020.08 112.228 1014.66 118.073 1005.58C121.347 1000.5 123.077 994.605 123.077 988.526C123.077 971.126 108.925 956.972 91.5335 956.972Z" fill="white"/>
</g>
<g opacity="0.19">
<path fill-rule="evenodd" clip-rule="evenodd" d="M91.5344 1020.17C74.09 1020.17 59.8984 1005.98 59.8984 988.525C59.8984 986.781 60.0407 985.034 60.3225 983.332C61.5288 976.021 65.3085 969.323 70.9661 964.478C76.687 959.577 83.9909 956.879 91.5344 956.879C108.979 956.879 123.17 971.075 123.17 988.525C123.17 994.622 121.435 1000.54 118.153 1005.63C112.29 1014.74 102.339 1020.17 91.5344 1020.17ZM91.5344 957.005C76.0364 957.005 62.9643 968.085 60.4463 983.351C60.1671 985.047 60.0249 986.789 60.0249 988.525C60.0249 1005.9 74.1585 1020.05 91.5344 1020.05C102.297 1020.05 112.205 1014.63 118.045 1005.56C121.316 1000.49 123.044 994.596 123.044 988.525C123.044 971.144 108.908 957.005 91.5344 957.005Z" fill="white"/>
</g>
<g opacity="0.19">
<path fill-rule="evenodd" clip-rule="evenodd" d="M91.5353 1020.14C74.1093 1020.14 59.9336 1005.95 59.9336 988.524C59.9336 986.783 60.0758 985.039 60.3577 983.336C61.5614 976.033 65.3384 969.343 70.9881 964.503C76.7037 959.608 83.9997 956.912 91.5353 956.912C108.961 956.912 123.137 971.093 123.137 988.524C123.137 994.613 121.404 1000.52 118.122 1005.61C112.267 1014.71 102.329 1020.14 91.5353 1020.14ZM91.5353 957.036C76.0558 957.036 62.9942 968.105 60.4814 983.355C60.2023 985.052 60.0574 986.791 60.0574 988.524C60.0574 1005.89 74.1778 1020.01 91.5353 1020.01C102.284 1020.01 112.185 1014.6 118.019 1005.55C121.285 1000.48 123.011 994.59 123.011 988.524C123.011 971.161 108.89 957.036 91.5353 957.036Z" fill="white"/>
</g>
<g opacity="0.18">
<path fill-rule="evenodd" clip-rule="evenodd" d="M91.5362 1020.1C74.1287 1020.1 59.9688 1005.94 59.9688 988.525C59.9688 986.784 60.111 985.042 60.3928 983.343C61.5939 976.047 65.3656 969.365 71.0128 964.53C76.7205 959.64 84.0085 956.947 91.5362 956.947C108.941 956.947 123.104 971.112 123.104 988.525C123.104 994.609 121.371 1000.51 118.094 1005.6C112.247 1014.68 102.317 1020.1 91.5362 1020.1ZM91.5362 957.071C76.0725 957.071 63.0267 968.129 60.5166 983.361C60.2348 985.055 60.0925 986.792 60.0925 988.525C60.0925 1005.87 74.1972 1019.98 91.5362 1019.98C102.275 1019.98 112.165 1014.58 117.991 1005.53C121.255 1000.46 122.98 994.583 122.98 988.525C122.98 971.18 108.873 957.071 91.5362 957.071Z" fill="white"/>
</g>
<g opacity="0.17">
<path fill-rule="evenodd" clip-rule="evenodd" d="M91.5332 1020.07C74.1468 1020.07 60 1005.92 60 988.526C60 986.785 60.1422 985.043 60.4241 983.349C61.6251 976.061 65.3916 969.387 71.0308 964.557C76.7333 959.673 84.0134 956.982 91.5332 956.982C108.92 956.982 123.066 971.134 123.066 988.526C123.066 994.602 121.336 1000.5 118.062 1005.58C112.22 1014.65 102.303 1020.07 91.5332 1020.07ZM91.5332 957.106C76.0853 957.106 63.0527 968.151 60.5452 983.37C60.266 985.059 60.1238 986.792 60.1238 988.526C60.1238 1005.85 74.2152 1019.95 91.5332 1019.95C102.261 1019.95 112.138 1014.55 117.959 1005.51C121.22 1000.45 122.943 994.578 122.943 988.526C122.943 971.2 108.851 957.106 91.5332 957.106Z" fill="white"/>
</g>
<g opacity="0.16">
<path fill-rule="evenodd" clip-rule="evenodd" d="M91.5341 1020.03C74.1661 1020.03 60.0352 1005.9 60.0352 988.525C60.0352 986.786 60.1774 985.047 60.4592 983.353C61.6603 976.073 65.4215 969.407 71.0555 964.583C76.75 959.703 84.0222 957.016 91.5341 957.016C108.902 957.016 123.031 971.151 123.031 988.525C123.031 994.596 121.305 1000.48 118.037 1005.56C112.197 1014.62 102.291 1020.03 91.5341 1020.03ZM91.5341 957.139C76.102 957.139 63.0852 968.171 60.5804 983.374C60.3012 985.06 60.159 986.794 60.159 988.525C60.159 1005.83 74.2346 1019.91 91.5341 1019.91C102.249 1019.91 112.118 1014.52 117.934 1005.49C121.189 1000.44 122.909 994.572 122.909 988.525C122.909 971.217 108.834 957.139 91.5341 957.139Z" fill="white"/>
</g>
<g opacity="0.16">
<path fill-rule="evenodd" clip-rule="evenodd" d="M91.5351 1020C74.1855 1020 60.0703 1005.88 60.0703 988.526C60.0703 986.792 60.2125 985.053 60.4944 983.359C61.6928 976.09 65.4514 969.429 71.0774 964.61C76.7693 959.736 84.0337 957.051 91.5351 957.051C108.885 957.051 122.997 971.171 122.997 988.526C122.997 994.589 121.272 1000.47 118.006 1005.54C112.177 1014.59 102.281 1020 91.5351 1020ZM91.5351 957.172C76.1214 957.172 63.1151 968.193 60.6129 983.38C60.3337 985.067 60.1915 986.798 60.1915 988.526C60.1915 1005.81 74.2513 1019.88 91.5351 1019.88C102.239 1019.88 112.098 1014.49 117.906 1005.48C121.159 1000.43 122.876 994.565 122.876 988.526C122.876 971.237 108.816 957.172 91.5351 957.172Z" fill="white"/>
</g>
<g opacity="0.15">
<path fill-rule="evenodd" clip-rule="evenodd" d="M91.5333 1019.96C74.2022 1019.96 60.1055 1005.86 60.1055 988.525C60.1055 986.791 60.2477 985.055 60.5269 983.363C61.7227 976.102 65.4787 969.449 71.0994 964.635C76.7834 959.766 84.0399 957.084 91.5333 957.084C108.862 957.084 122.961 971.188 122.961 988.525C122.961 994.58 121.239 1000.46 117.975 1005.52C112.152 1014.56 102.267 1019.96 91.5333 1019.96ZM91.5333 957.205C76.1355 957.205 63.145 968.216 60.6454 983.384C60.3662 985.068 60.224 986.797 60.224 988.525C60.224 1005.79 74.2707 1019.84 91.5333 1019.84C102.227 1019.84 112.073 1014.46 117.875 1005.46C121.125 1000.41 122.843 994.559 122.843 988.525C122.843 971.254 108.796 957.205 91.5333 957.205Z" fill="white"/>
</g>
<g opacity="0.15">
<path fill-rule="evenodd" clip-rule="evenodd" d="M91.5343 1019.93C74.2242 1019.93 60.1406 1005.84 60.1406 988.525C60.1406 986.794 60.2829 985.06 60.5621 983.372C61.7578 976.115 65.5085 969.47 71.1241 964.659C76.8001 959.798 84.0487 957.121 91.5343 957.121C108.844 957.121 122.928 971.207 122.928 988.525C122.928 994.575 121.205 1000.44 117.947 1005.5C112.131 1014.54 102.257 1019.93 91.5343 1019.93ZM91.5343 957.24C76.1522 957.24 63.1749 968.237 60.6806 983.39C60.4014 985.074 60.2592 986.799 60.2592 988.525C60.2592 1005.78 74.29 1019.81 91.5343 1019.81C102.215 1019.81 112.052 1014.44 117.847 1005.44C121.092 1000.4 122.809 994.551 122.809 988.525C122.809 971.273 108.779 957.24 91.5343 957.24Z" fill="white"/>
</g>
<g opacity="0.14">
<path fill-rule="evenodd" clip-rule="evenodd" d="M91.5352 1019.9C74.2435 1019.9 60.1758 1005.82 60.1758 988.526C60.1758 986.798 60.318 985.067 60.5972 983.378C61.7904 976.129 65.5384 969.492 71.146 964.689C76.8169 959.831 84.0575 957.156 91.5352 957.156C108.827 957.156 122.895 971.229 122.895 988.526C122.895 994.568 121.175 1000.43 117.919 1005.48C112.109 1014.51 102.245 1019.9 91.5352 1019.9ZM91.5352 957.275C76.1689 957.275 63.2074 968.259 60.7131 983.396C60.4339 985.077 60.2943 986.803 60.2943 988.526C60.2943 1005.76 74.3094 1019.78 91.5352 1019.78C102.205 1019.78 112.032 1014.41 117.819 1005.42C121.061 1000.39 122.776 994.547 122.776 988.526C122.776 971.295 108.761 957.275 91.5352 957.275Z" fill="white"/>
</g>
<g opacity="0.13">
<path fill-rule="evenodd" clip-rule="evenodd" d="M91.5361 1019.86C83.1681 1019.86 75.3006 1016.6 69.3849 1010.68C63.4691 1004.76 60.2109 996.893 60.2109 988.525C60.2109 986.799 60.3532 985.068 60.6324 983.382C61.8255 976.142 65.5683 969.512 71.1707 964.712C76.8336 959.861 84.0663 957.189 91.5361 957.189C99.9014 957.189 107.769 960.449 113.685 966.366C119.603 972.284 122.861 980.154 122.861 988.525C122.861 994.561 121.144 1000.42 117.891 1005.46C112.086 1014.48 102.235 1019.86 91.5361 1019.86ZM91.5361 957.305C76.1883 957.305 63.2399 968.279 60.7483 983.4C60.4691 985.081 60.3268 986.805 60.3268 988.525C60.3268 1005.74 74.3287 1019.74 91.5361 1019.74C102.196 1019.74 112.01 1014.38 117.794 1005.4C121.031 1000.37 122.743 994.538 122.743 988.525C122.743 971.309 108.743 957.305 91.5361 957.305Z" fill="white"/>
</g>
<g opacity="0.13">
<path fill-rule="evenodd" clip-rule="evenodd" d="M91.5331 1019.83C83.1731 1019.83 75.3161 1016.57 69.4056 1010.66C63.4977 1004.74 60.2422 996.884 60.2422 988.524C60.2422 986.798 60.3844 985.07 60.6636 983.386C61.8541 976.154 65.5917 969.532 71.1887 964.737C76.8464 959.892 84.0712 957.223 91.5331 957.223C99.8905 957.223 107.747 960.477 113.658 966.389C119.568 972.302 122.824 980.161 122.824 988.524C122.824 994.552 121.107 1000.4 117.859 1005.44C112.062 1014.45 102.219 1019.83 91.5331 1019.83ZM91.5331 957.339C76.2011 957.339 63.2659 968.302 60.7769 983.405C60.5003 985.08 60.3581 986.803 60.3581 988.524C60.3581 1005.72 74.3442 1019.71 91.5331 1019.71C102.179 1019.71 111.985 1014.35 117.762 1005.38C120.996 1000.36 122.708 994.531 122.708 988.524C122.708 971.329 108.722 957.339 91.5331 957.339Z" fill="white"/>
</g>
<g opacity="0.12">
<path fill-rule="evenodd" clip-rule="evenodd" d="M91.534 1019.79C83.1845 1019.79 75.3354 1016.54 69.4302 1010.63C63.5276 1004.73 60.2773 996.875 60.2773 988.525C60.2773 986.802 60.4196 985.073 60.6961 983.392C61.8893 976.17 65.6216 969.554 71.2134 964.764C76.8631 959.924 84.08 957.258 91.534 957.258C99.8809 957.258 107.73 960.509 113.635 966.414C119.538 972.321 122.791 980.173 122.791 988.525C122.791 994.548 121.076 1000.39 117.831 1005.43C112.039 1014.42 102.209 1019.79 91.534 1019.79ZM91.534 957.374C76.2178 957.374 63.2984 968.324 60.812 983.411C60.5328 985.086 60.3932 986.807 60.3932 988.525C60.3932 1005.7 74.3635 1019.68 91.534 1019.68C102.17 1019.68 111.965 1014.32 117.734 1005.36C120.965 1000.35 122.675 994.524 122.675 988.525C122.675 971.349 108.705 957.374 91.534 957.374Z" fill="white"/>
</g>
<g opacity="0.11">
<path fill-rule="evenodd" clip-rule="evenodd" d="M91.5349 1019.76C83.1933 1019.76 75.3548 1016.51 69.4575 1010.61C63.5601 1004.71 60.3125 996.868 60.3125 988.526C60.3125 986.805 60.4547 985.079 60.7339 983.398C61.9218 976.184 65.6514 969.576 71.2353 964.792C76.8825 959.957 84.0915 957.293 91.5349 957.293C99.8739 957.293 107.712 960.542 113.61 966.441C119.507 972.338 122.755 980.181 122.755 988.526C122.755 994.541 121.043 1000.38 117.803 1005.41C112.019 1014.39 102.197 1019.76 91.5349 1019.76ZM91.5349 957.409C76.2372 957.409 63.3283 968.346 60.8446 983.417C60.568 985.093 60.4284 986.811 60.4284 988.526C60.4284 1005.68 74.3829 1019.64 91.5349 1019.64C102.16 1019.64 111.943 1014.3 117.708 1005.35C120.935 1000.34 122.641 994.52 122.641 988.526C122.641 971.368 108.687 957.409 91.5349 957.409Z" fill="white"/>
</g>
<g opacity="0.11">
<path fill-rule="evenodd" clip-rule="evenodd" d="M91.5358 1019.72C83.2048 1019.72 75.3715 1016.48 69.4821 1010.59C63.5926 1004.69 60.3477 996.858 60.3477 988.527C60.3477 986.809 60.4899 985.086 60.7664 983.405C61.9543 976.199 65.6813 969.598 71.26 964.819C76.8992 959.989 84.1003 957.328 91.5358 957.328C99.8643 957.328 107.698 960.574 113.587 966.466C119.479 972.357 122.721 980.193 122.721 988.527C122.721 994.537 121.012 1000.37 117.775 1005.39C111.996 1014.37 102.187 1019.72 91.5358 1019.72ZM91.5358 957.441C76.2539 957.441 63.3609 968.371 60.8797 983.426C60.6031 985.099 60.4609 986.814 60.4609 988.527C60.4609 1005.67 74.4022 1019.61 91.5358 1019.61C102.148 1019.61 111.922 1014.27 117.68 1005.33C120.904 1000.33 122.608 994.516 122.608 988.527C122.608 971.387 108.669 957.441 91.5358 957.441Z" fill="white"/>
</g>
<g opacity="0.1">
<path fill-rule="evenodd" clip-rule="evenodd" d="M91.5368 1019.69C83.2136 1019.69 75.3909 1016.44 69.5067 1010.56C63.6252 1004.67 60.3828 996.847 60.3828 988.524C60.3828 986.806 60.525 985.085 60.8016 983.41C61.9895 976.209 65.7112 969.616 71.282 964.842C76.9159 960.018 84.1091 957.359 91.5368 957.359C99.8573 957.359 107.68 960.6 113.564 966.486C119.448 972.372 122.688 980.198 122.688 988.524C122.688 994.526 120.979 1000.35 117.747 1005.37C111.976 1014.33 102.175 1019.69 91.5368 1019.69ZM91.5368 957.473C76.2706 957.473 63.3907 968.389 60.9149 983.428C60.6357 985.096 60.4961 986.811 60.4961 988.524C60.4961 1005.64 74.4216 1019.57 91.5368 1019.57C102.138 1019.57 111.902 1014.24 117.652 1005.31C120.873 1000.31 122.575 994.505 122.575 988.524C122.575 971.403 108.652 957.473 91.5368 957.473Z" fill="white"/>
</g>
<g opacity="0.09">
<path fill-rule="evenodd" clip-rule="evenodd" d="M91.535 1019.65C83.2224 1019.65 75.4076 1016.41 69.5313 1010.53C63.6524 1004.65 60.418 996.837 60.418 988.525C60.418 986.809 60.5576 985.089 60.8341 983.416C62.0194 976.223 65.7385 969.638 71.3039 964.869C76.93 960.05 84.1153 957.395 91.535 957.395C99.845 957.395 107.66 960.633 113.539 966.511C119.415 972.392 122.652 980.209 122.652 988.525C122.652 994.521 120.945 1000.34 117.716 1005.35C111.951 1014.31 102.163 1019.65 91.535 1019.65ZM91.535 957.508C76.2847 957.508 63.4206 968.411 60.9448 983.434C60.6682 985.102 60.5286 986.815 60.5286 988.525C60.5286 1005.63 74.4383 1019.54 91.535 1019.54C102.123 1019.54 111.877 1014.21 117.624 1005.29C120.84 1000.3 122.541 994.5 122.541 988.525C122.541 971.422 108.632 957.508 91.535 957.508Z" fill="white"/>
</g>
<g opacity="0.08">
<path fill-rule="evenodd" clip-rule="evenodd" d="M91.536 1019.62C83.2312 1019.62 75.4269 1016.38 69.5559 1010.51C63.6849 1004.64 60.4531 996.832 60.4531 988.527C60.4531 986.814 60.5927 985.096 60.8693 983.423C62.0545 976.241 65.7684 969.662 71.3259 964.898C76.9467 960.084 84.1241 957.434 91.536 957.434C99.8381 957.434 107.642 960.666 113.513 966.539C119.384 972.412 122.619 980.219 122.619 988.527C122.619 994.516 120.915 1000.33 117.688 1005.34C111.928 1014.28 102.151 1019.62 91.536 1019.62ZM91.536 957.542C76.304 957.542 63.4505 968.434 60.9799 983.442C60.7033 985.109 60.5637 986.819 60.5637 988.527C60.5637 1005.61 74.4577 1019.51 91.536 1019.51C102.114 1019.51 111.857 1014.19 117.596 1005.28C120.809 1000.29 122.508 994.495 122.508 988.527C122.508 971.443 108.614 957.542 91.536 957.542Z" fill="white"/>
</g>
<g opacity="0.07">
<path fill-rule="evenodd" clip-rule="evenodd" d="M91.5369 1019.58C83.2427 1019.58 75.4463 1016.35 69.5806 1010.49C63.7175 1004.62 60.4883 996.82 60.4883 988.526C60.4883 986.81 60.6279 985.098 60.9044 983.427C62.0871 976.253 65.7983 969.682 71.3505 964.923C76.9634 960.115 84.1329 957.467 91.5369 957.467C99.8284 957.467 107.625 960.697 113.491 966.562C119.356 972.427 122.585 980.229 122.585 988.526C122.585 994.509 120.881 1000.31 117.66 1005.32C111.908 1014.25 102.141 1019.58 91.5369 1019.58ZM91.5369 957.575C76.3207 957.575 63.483 968.457 61.0124 983.446C60.7385 985.108 60.5989 986.818 60.5989 988.526C60.5989 1005.59 74.477 1019.47 91.5369 1019.47C102.104 1019.47 111.834 1014.16 117.568 1005.26C120.779 1000.27 122.475 994.488 122.475 988.526C122.475 971.46 108.597 957.575 91.5369 957.575Z" fill="white"/>
</g>
<g opacity="0.07">
<path fill-rule="evenodd" clip-rule="evenodd" d="M91.5339 1019.55C83.2476 1019.55 75.4591 1016.32 69.6013 1010.46C63.7461 1004.6 60.5195 996.811 60.5195 988.525C60.5195 986.812 60.6591 985.099 60.9357 983.432C62.1183 976.265 65.8216 969.702 71.3686 964.949C76.9789 960.145 84.1378 957.5 91.5339 957.5C99.8175 957.5 107.606 960.728 113.464 966.585C119.322 972.445 122.548 980.236 122.548 988.525C122.548 994.5 120.847 1000.3 117.628 1005.3C111.881 1014.22 102.125 1019.55 91.5339 1019.55ZM91.5339 957.608C76.3336 957.608 63.5117 968.477 61.0437 983.45C60.7671 985.113 60.6275 986.82 60.6275 988.525C60.6275 1005.57 74.4925 1019.44 91.5339 1019.44C102.088 1019.44 111.81 1014.13 117.536 1005.24C120.744 1000.26 122.438 994.479 122.438 988.525C122.438 971.478 108.575 957.608 91.5339 957.608Z" fill="white"/>
</g>
<g opacity="0.06">
<path fill-rule="evenodd" clip-rule="evenodd" d="M91.5348 1019.52C83.259 1019.52 75.4785 1016.29 69.6285 1010.44C63.776 1004.58 60.5547 996.801 60.5547 988.526C60.5547 986.816 60.6943 985.106 60.9708 983.438C62.1508 976.279 65.8515 969.724 71.3932 964.976C76.9956 960.178 84.1467 957.535 91.5348 957.535C99.8079 957.535 107.589 960.758 113.438 966.612C119.291 972.464 122.515 980.247 122.515 988.526C122.515 994.496 120.813 1000.29 117.6 1005.28C111.858 1014.19 102.115 1019.52 91.5348 1019.52ZM91.5348 957.643C76.3503 957.643 63.5415 968.499 61.0762 983.456C60.8023 985.119 60.6627 986.824 60.6627 988.526C60.6627 1005.55 74.5118 1019.41 91.5348 1019.41C102.078 1019.41 111.79 1014.1 117.51 1005.22C120.713 1000.25 122.407 994.475 122.407 988.526C122.407 971.497 108.558 957.643 91.5348 957.643Z" fill="white"/>
</g>
<g opacity="0.05">
<path fill-rule="evenodd" clip-rule="evenodd" d="M91.5357 1019.48C83.2705 1019.48 75.4978 1016.26 69.6531 1010.41C63.8085 1004.57 60.5898 996.793 60.5898 988.525C60.5898 986.817 60.7294 985.11 61.006 983.445C62.1834 976.291 65.8814 969.744 71.4179 965.001C77.0123 960.208 84.1581 957.568 91.5357 957.568C99.8009 957.568 107.571 960.788 113.416 966.635C119.26 972.481 122.482 980.254 122.482 988.525C122.482 994.487 120.783 1000.27 117.572 1005.26C111.838 1014.16 102.103 1019.48 91.5357 1019.48ZM91.5357 957.674C76.3696 957.674 63.5741 968.519 61.1114 983.46C60.8374 985.12 60.6978 986.825 60.6978 988.525C60.6978 1005.53 74.5312 1019.37 91.5357 1019.37C102.069 1019.37 111.767 1014.07 117.482 1005.2C120.683 1000.23 122.374 994.466 122.374 988.525C122.374 971.514 108.54 957.674 91.5357 957.674Z" fill="white"/>
</g>
<g opacity="0.05">
<path fill-rule="evenodd" clip-rule="evenodd" d="M91.5366 1019.44C83.2793 1019.44 75.5172 1016.23 69.6778 1010.39C63.841 1004.55 60.625 996.783 60.625 988.525C60.625 986.821 60.7646 985.113 61.0412 983.451C62.2185 976.305 65.9113 969.766 71.4399 965.028C77.029 960.241 84.1669 957.604 91.5366 957.604C99.7913 957.604 107.553 960.821 113.393 966.659C119.232 972.501 122.448 980.265 122.448 988.525C122.448 994.48 120.752 1000.26 117.544 1005.24C111.815 1014.14 102.093 1019.44 91.5366 1019.44ZM91.5366 957.709C76.3864 957.709 63.604 968.543 61.1465 983.467C60.87 985.124 60.7304 986.826 60.7304 988.525C60.7304 1005.52 74.5505 1019.34 91.5366 1019.34C102.056 1019.34 111.747 1014.05 117.454 1005.18C120.652 1000.22 122.34 994.462 122.34 988.525C122.34 971.534 108.523 957.709 91.5366 957.709Z" fill="white"/>
</g>
<g opacity="0.04">
<path fill-rule="evenodd" clip-rule="evenodd" d="M91.5336 1019.41C83.2842 1019.41 75.53 1016.2 69.7011 1010.36C63.8696 1004.53 60.6562 996.774 60.6562 988.524C60.6562 986.822 60.7958 985.118 61.0724 983.455C62.2471 976.32 65.9372 969.783 71.4606 965.054C77.0418 960.272 84.1718 957.637 91.5336 957.637C99.7804 957.637 107.532 960.851 113.366 966.682C119.198 972.515 122.408 980.272 122.408 988.524C122.408 994.474 120.715 1000.25 117.512 1005.22C111.791 1014.11 102.08 1019.41 91.5336 1019.41ZM91.5336 957.742C76.3992 957.742 63.6326 968.563 61.1751 983.471C60.9012 985.128 60.7616 986.828 60.7616 988.524C60.7616 1005.5 74.566 1019.3 91.5336 1019.3C102.043 1019.3 111.723 1014.02 117.422 1005.16C120.617 1000.21 122.306 994.453 122.306 988.524C122.306 971.551 108.501 957.742 91.5336 957.742Z" fill="white"/>
</g>
<g opacity="0.04">
<path fill-rule="evenodd" clip-rule="evenodd" d="M91.5358 1019.38C83.2969 1019.38 75.5506 1016.17 69.727 1010.34C63.9008 1004.51 60.6953 996.764 60.6953 988.525C60.6953 986.826 60.8323 985.121 61.1088 983.461C62.2836 976.334 65.9684 969.805 71.4838 965.081C77.0598 960.304 84.1819 957.672 91.5358 957.672C99.7721 957.672 107.518 960.881 113.342 966.709C119.168 972.535 122.376 980.284 122.376 988.525C122.376 994.467 120.685 1000.23 117.485 1005.2C111.77 1014.08 102.069 1019.38 91.5358 1019.38ZM91.5358 957.777C76.4172 957.777 63.6637 968.585 61.2116 983.477C60.9376 985.134 60.798 986.831 60.798 988.525C60.798 1005.48 74.5866 1019.27 91.5358 1019.27C102.035 1019.27 111.701 1013.99 117.398 1005.15C120.588 1000.2 122.274 994.448 122.274 988.525C122.274 971.57 108.485 957.777 91.5358 957.777Z" fill="white"/>
</g>
<g opacity="0.03">
<path fill-rule="evenodd" clip-rule="evenodd" d="M91.5328 1019.34C83.3019 1019.34 75.566 1016.14 69.7477 1010.32C63.9294 1004.5 60.7266 996.757 60.7266 988.526C60.7266 986.829 60.8635 985.127 61.1401 983.467C62.3122 976.348 65.9944 969.826 71.5019 965.107C77.0726 960.336 84.1868 957.709 91.5328 957.709C99.7612 957.709 107.497 960.913 113.315 966.733C119.134 972.553 122.339 980.292 122.339 988.526C122.339 994.462 120.651 1000.22 117.453 1005.19C111.743 1014.05 102.055 1019.34 91.5328 1019.34ZM91.5328 957.812C76.4326 957.812 63.6924 968.606 61.2402 983.483C60.9662 985.137 60.8293 986.834 60.8293 988.526C60.8293 1005.46 74.602 1019.24 91.5328 1019.24C102.018 1019.24 111.677 1013.96 117.366 1005.13C120.553 1000.18 122.236 994.441 122.236 988.526C122.236 971.589 108.464 957.812 91.5328 957.812Z" fill="white"/>
</g>
<g opacity="0.02">
<path fill-rule="evenodd" clip-rule="evenodd" d="M91.5338 1019.31C83.3133 1019.31 75.5854 1016.1 69.7723 1010.29C63.9619 1004.48 60.7617 996.745 60.7617 988.524C60.7617 986.825 60.9013 985.126 61.1752 983.471C62.3473 976.36 66.0243 969.846 71.5265 965.133C77.092 960.366 84.1957 957.742 91.5338 957.742C99.7516 957.742 107.479 960.943 113.293 966.756C119.106 972.571 122.306 980.301 122.306 988.524C122.306 994.455 120.617 1000.21 117.425 1005.17C111.723 1014.02 102.043 1019.31 91.5338 1019.31ZM91.5338 957.842C76.4493 957.842 63.7249 968.629 61.2753 983.489C61.0014 985.136 60.8618 986.83 60.8618 988.524C60.8618 1005.44 74.6214 1019.2 91.5338 1019.2C102.009 1019.2 111.654 1013.93 117.338 1005.11C120.523 1000.17 122.203 994.434 122.203 988.524C122.203 971.606 108.446 957.842 91.5338 957.842Z" fill="white"/>
</g>
<g opacity="0.02">
<path fill-rule="evenodd" clip-rule="evenodd" d="M91.5347 1019.27C83.3221 1019.27 75.6047 1016.07 69.7996 1010.27C63.9944 1004.46 60.7969 996.738 60.7969 988.525C60.7969 986.829 60.9365 985.132 61.2104 983.477C62.3799 976.374 66.0515 969.868 71.5512 965.16C77.1087 960.399 84.2045 957.777 91.5347 957.777C99.7446 957.777 107.462 960.976 113.27 966.78C119.075 972.59 122.272 980.31 122.272 988.525C122.272 994.448 120.587 1000.2 117.397 1005.15C111.7 1013.99 102.033 1019.27 91.5347 1019.27ZM91.5347 957.877C76.466 957.877 63.7548 968.651 61.3079 983.496C61.0366 985.142 60.897 986.834 60.897 988.525C60.897 1005.42 74.6407 1019.17 91.5347 1019.17C101.999 1019.17 111.634 1013.91 117.313 1005.09C120.492 1000.16 122.172 994.43 122.172 988.525C122.172 971.626 108.429 957.877 91.5347 957.877Z" fill="white"/>
</g>
<g opacity="0.01">
<path fill-rule="evenodd" clip-rule="evenodd" d="M91.5356 1019.24C83.3336 1019.24 75.6215 1016.04 69.8242 1010.24C64.0243 1004.44 60.832 996.726 60.832 988.524C60.832 986.83 60.9716 985.136 61.2456 983.484C62.415 976.388 66.0814 969.888 71.5731 965.185C77.1254 960.43 84.2133 957.811 91.5356 957.811C99.735 957.811 107.447 961.004 113.244 966.806C119.044 972.605 122.239 980.32 122.239 988.524C122.239 994.442 120.553 1000.18 117.369 1005.13C111.68 1013.96 102.021 1019.24 91.5356 1019.24ZM91.5356 957.911C76.4828 957.911 63.7873 968.671 61.343 983.5C61.0691 985.147 60.9321 986.835 60.9321 988.524C60.9321 1005.4 74.6601 1019.14 91.5356 1019.14C101.987 1019.14 111.614 1013.88 117.285 1005.07C120.461 1000.14 122.139 994.421 122.139 988.524C122.139 971.643 108.411 957.911 91.5356 957.911Z" fill="white"/>
</g>
<path d="M121.953 988.526C121.953 994.583 120.183 1000.23 117.127 1004.98C111.712 1013.38 102.27 1018.96 91.5311 1018.96C74.7267 1018.96 61.1094 1005.33 61.1094 988.526C61.1094 986.824 61.249 985.156 61.5176 983.53C63.8961 969.099 76.4256 958.094 91.5311 958.094C108.33 958.094 121.953 971.716 121.953 988.526Z" fill="white"/>
</g>
<rect x="61.6797" y="959" width="59.6861" height="59.6861" rx="1.61314" fill="white"/>
</g>
<defs>
<linearGradient id="paint0_linear_5141_6199" x1="461" y1="709.5" x2="172.749" y2="1188.05" gradientUnits="userSpaceOnUse">
<stop stop-color="#18191E" stop-opacity="0"/>
<stop offset="0.910308" stop-color="#18191E" stop-opacity="0.9"/>
</linearGradient>
<linearGradient id="paint1_linear_5141_6199" x1="586.166" y1="472.079" x2="1185.01" y2="1144.52" gradientUnits="userSpaceOnUse">
<stop stop-color="#FF0000" stop-opacity="0.15"/>
<stop offset="1" stop-color="#CB3030"/>
</linearGradient>
<clipPath id="clip0_5141_6199">
<rect width="1080" height="1080" fill="white"/>
</clipPath>
<clipPath id="clip1_5141_6199">
<rect width="129.051" height="21.0696" fill="white" transform="translate(154 957)"/>
</clipPath>
<clipPath id="clip2_5141_6199">
<rect width="79.0438" height="79.0438" fill="white" transform="translate(52 949)"/>
</clipPath>
</defs>
</svg>
