<svg width="1080" height="1080" viewBox="0 0 1080 1080" fill="none" xmlns="http://www.w3.org/2000/svg">
<g clip-path="url(#clip0_5141_5712)">
<rect width="1080" height="1080" fill="url(#paint0_linear_5141_5712)" fill-opacity="0.85"/>
<g clip-path="url(#clip1_5141_5712)">
<path d="M371.183 906.986L359.366 918.446L366.806 932.121H356.14L352.493 925.108L350.872 926.67L349.997 932.121H341L345.053 906.986H354.017L352.461 916.645L361.878 906.986H371.183H371.183Z" fill="white"/>
<path d="M410.313 925.174H416.976L415.857 932.123H400.215L404.267 906.988H413.231L410.313 925.174Z" fill="white"/>
<path d="M439.168 913.935H429.685L429.313 916.23H436.818L435.893 921.936H428.388L427.886 925.172H437.385L436.25 932.121H417.836L421.872 906.986H440.303L439.168 913.935V913.935Z" fill="white"/>
<path d="M455.08 916.965H467.464C467.096 919.249 466.521 921.278 465.737 923.053C464.954 924.828 464.054 926.276 463.038 927.396C462.022 928.517 460.861 929.439 459.553 930.162C458.246 930.884 456.927 931.392 455.598 931.684C454.269 931.977 452.853 932.122 451.351 932.122C449.731 932.122 448.206 931.894 446.781 931.437C445.354 930.981 444.087 930.322 442.98 929.461C441.872 928.601 440.994 927.482 440.346 926.106C439.697 924.73 439.373 923.187 439.373 921.476C439.373 919.266 439.8 917.196 440.654 915.268C441.507 913.339 442.664 911.7 444.123 910.351C445.582 909.001 447.306 907.939 449.294 907.163C451.282 906.388 453.379 906 455.583 906C457.906 906 460.011 906.451 461.897 907.354C463.783 908.257 465.228 909.559 466.233 911.259L458.436 916.121C458.296 915.09 457.882 914.37 457.196 913.961C456.51 913.552 455.572 913.347 454.384 913.347C453.401 913.347 452.538 913.549 451.798 913.953C451.058 914.357 450.469 914.911 450.031 915.618C449.594 916.325 449.27 917.116 449.059 917.993C448.848 918.869 448.743 919.823 448.743 920.854C448.743 923.468 450.013 924.775 452.552 924.775C454.638 924.775 456.178 923.967 457.172 922.352H451.823L455.081 916.965H455.08Z" fill="white"/>
<path d="M467.072 931.626L469.436 916.963H478.433L476.069 931.626H467.072Z" fill="white"/>
<path d="M501.002 906.492L499.867 913.441H494.923L492.005 931.627H483.073L485.991 913.441H470.006L471.126 906.492H501.001H501.002Z" fill="white"/>
<path d="M368.363 932.124L370.727 917.461H379.724L377.36 932.124H368.363Z" fill="white"/>
<path d="M402.293 906.986L401.158 913.935H396.214L393.296 932.121H384.364L387.282 913.935H371.297L372.417 906.986H402.292H402.293Z" fill="white"/>
</g>
<path d="M342.027 951.521C342.314 949.849 342.911 948.36 343.818 947.054C344.726 945.749 345.873 944.737 347.258 944.021C348.643 943.288 350.188 942.922 351.892 942.922C353.357 942.922 354.614 943.201 355.665 943.758C356.732 944.3 357.544 945.072 358.102 946.075C358.659 947.078 358.93 948.249 358.914 949.586H353.325C353.165 949.029 352.879 948.599 352.465 948.296C352.051 947.978 351.541 947.819 350.936 947.819C350.044 947.819 349.28 948.153 348.643 948.822C348.006 949.491 347.592 950.39 347.401 951.521C347.337 951.839 347.306 952.182 347.306 952.548C347.306 953.376 347.505 954.029 347.903 954.506C348.317 954.984 348.898 955.223 349.646 955.223C350.251 955.223 350.817 955.072 351.342 954.769C351.868 954.451 352.306 954.013 352.656 953.456H358.245C357.767 954.793 357.075 955.963 356.167 956.967C355.259 957.97 354.177 958.75 352.919 959.307C351.677 959.849 350.323 960.119 348.858 960.119C347.377 960.119 346.111 959.849 345.06 959.307C344.01 958.75 343.213 957.97 342.672 956.967C342.131 955.948 341.86 954.769 341.86 953.432C341.86 952.779 341.916 952.142 342.027 951.521ZM367.033 960.167C365.6 960.167 364.342 959.873 363.259 959.283C362.176 958.694 361.34 957.866 360.751 956.799C360.162 955.717 359.867 954.483 359.867 953.097C359.867 951.075 360.281 949.292 361.109 947.747C361.953 946.187 363.124 944.976 364.621 944.116C366.133 943.241 367.869 942.803 369.828 942.803C371.292 942.803 372.566 943.097 373.649 943.687C374.748 944.26 375.592 945.08 376.181 946.147C376.77 947.198 377.065 948.416 377.065 949.801C377.065 951.807 376.643 953.599 375.799 955.175C374.971 956.752 373.792 957.978 372.264 958.854C370.751 959.729 369.007 960.167 367.033 960.167ZM367.845 955.223C368.673 955.223 369.39 955.008 369.995 954.578C370.616 954.132 371.085 953.551 371.404 952.835C371.722 952.102 371.882 951.314 371.882 950.47C371.882 949.594 371.643 948.917 371.165 948.44C370.703 947.946 370.035 947.699 369.159 947.699C368.331 947.699 367.606 947.914 366.985 948.344C366.364 948.774 365.886 949.355 365.552 950.088C365.234 950.804 365.074 951.585 365.074 952.428C365.074 953.304 365.305 953.989 365.767 954.483C366.245 954.976 366.937 955.223 367.845 955.223ZM385.498 943.089L383.826 952.62C383.778 952.874 383.755 953.137 383.755 953.408C383.755 953.949 383.898 954.379 384.184 954.698C384.471 955 384.925 955.151 385.546 955.151C386.31 955.151 386.915 954.928 387.361 954.483C387.807 954.021 388.102 953.4 388.245 952.62L389.917 943.089H395.195L393.523 952.62C393.237 954.276 392.664 955.669 391.804 956.799C390.96 957.93 389.917 958.774 388.675 959.331C387.449 959.889 386.095 960.167 384.614 960.167C382.719 960.167 381.207 959.674 380.076 958.686C378.946 957.683 378.38 956.258 378.38 954.411C378.38 953.822 378.436 953.225 378.548 952.62L380.22 943.089H385.498ZM410.476 960H405.173L401.065 951.497L399.56 960H394.258L397.244 943.089H402.546L406.63 951.736L408.159 943.089H413.461L410.476 960ZM428.898 943.089L428.158 947.293H423.667L421.422 960H416.12L418.365 947.293H413.922L414.663 943.089H428.898ZM434.66 947.293L434.301 949.395H439.556L438.839 953.384H433.585L433.155 955.772H439.126L438.386 960H427.112L430.098 943.089H441.371L440.631 947.293H434.66ZM451.013 943.089C452.828 943.089 454.205 943.495 455.145 944.308C456.084 945.12 456.554 946.202 456.554 947.556C456.554 947.954 456.522 948.312 456.459 948.631C456.252 949.777 455.758 950.788 454.978 951.664C454.197 952.524 453.186 953.145 451.944 953.527L454.476 960H448.648L446.522 953.933L445.448 960H440.145L443.131 943.089H451.013ZM447.143 950.398H449.245C449.755 950.398 450.153 950.287 450.44 950.064C450.742 949.825 450.941 949.459 451.037 948.965C451.053 948.886 451.061 948.782 451.061 948.655C451.061 948.304 450.949 948.034 450.726 947.843C450.503 947.636 450.177 947.532 449.747 947.532H447.645L447.143 950.398ZM470.835 943.089L470.095 947.293H463.455L463.049 949.634H467.826L467.109 953.623H462.332L461.21 960H455.907L458.893 943.089H470.835ZM476.955 947.293L476.596 949.395H481.851L481.135 953.384H475.88L475.45 955.772H481.421L480.681 960H469.407L472.393 943.089H483.666L482.926 947.293H476.955ZM490.728 943.089L487.743 960H482.44L485.426 943.089H490.728ZM506.164 943.089L505.424 947.293H500.934L498.688 960H493.386L495.631 947.293H491.188L491.929 943.089H506.164Z" fill="#FF6064"/>
<path d="M346.505 971.448L344.096 985.123H341.333L343.762 971.448H346.505ZM353.996 971.448C355.263 971.448 356.353 971.67 357.267 972.114C358.195 972.545 358.9 973.165 359.383 973.975C359.88 974.785 360.128 975.745 360.128 976.855C360.128 977.352 360.082 977.835 359.991 978.305C359.756 979.677 359.246 980.878 358.463 981.91C357.692 982.929 356.712 983.719 355.524 984.281C354.335 984.842 353.016 985.123 351.566 985.123H346.786L349.215 971.448H353.996ZM351.88 982.89C353.316 982.89 354.492 982.485 355.406 981.675C356.334 980.865 356.928 979.742 357.189 978.305C357.254 977.874 357.287 977.502 357.287 977.188C357.287 976.091 356.961 975.242 356.307 974.641C355.667 974.041 354.727 973.74 353.486 973.74H351.566L349.96 982.89H351.88ZM362.024 985.26C361.593 985.26 361.247 985.136 360.986 984.888C360.725 984.64 360.594 984.326 360.594 983.948C360.594 983.425 360.79 982.981 361.182 982.615C361.587 982.237 362.057 982.047 362.592 982.047C363.024 982.047 363.363 982.171 363.611 982.419C363.872 982.654 364.003 982.968 364.003 983.36C364.003 983.882 363.807 984.333 363.415 984.712C363.024 985.077 362.56 985.26 362.024 985.26ZM362.024 977.149C361.593 977.149 361.247 977.025 360.986 976.777C360.725 976.529 360.594 976.215 360.594 975.837C360.594 975.314 360.79 974.87 361.182 974.504C361.587 974.125 362.057 973.936 362.592 973.936C363.024 973.936 363.363 974.06 363.611 974.308C363.872 974.543 364.003 974.857 364.003 975.249C364.003 975.771 363.807 976.222 363.415 976.601C363.024 976.966 362.56 977.149 362.024 977.149Z" fill="white"/>
<path d="M141.136 809.242C141.063 811.792 139.337 819.939 137.1 827.354C134.987 834.791 131.091 844.982 128.486 850.152C125.881 855.322 121.603 862.625 119.12 866.407C116.511 870.166 109.958 877.956 104.43 883.625C98.2476 890.072 89.6191 897.232 81.4507 902.553C74.2895 907.286 63.4484 913.15 57.4379 915.784L55.3459 916.637C52.0346 917.987 52.0158 922.697 55.2923 924.13C65.9959 928.81 74.8064 933.146 81.9627 936.864C91.005 941.697 104.837 949.957 112.747 955.355C120.68 960.629 132.156 969.105 138.343 974.065C144.53 979.024 154.091 987.412 159.463 992.609C164.835 997.806 172.445 1005.59 176.33 1009.75C180.192 1014.03 183.975 1018.04 184.736 1018.82C185.622 1019.62 189.842 1016.92 198.323 1009.86C205.018 1004.15 215.532 994.382 221.693 988.059C227.728 981.713 238.383 969.023 245.352 959.641C252.174 950.361 261.218 936.612 265.245 929.263C269.398 921.937 274.822 911.124 277.312 905.165C279.927 899.228 283.823 889.036 286.176 882.412C288.403 875.764 292.325 861.861 294.702 851.524L298.043 836.897C298.55 834.673 297.098 832.475 294.852 832.07L145.848 805.221C143.428 804.785 141.191 806.615 141.139 809.073L141.136 809.242ZM-42.1863 1014.97L-54.9459 1085.78C-55.3088 1087.8 -54.0921 1089.76 -52.129 1090.34C-45.4466 1092.31 -39.4264 1094.14 -34.2102 1095.74C-28.2568 1097.71 -19.0133 1101.42 -13.8399 1104.15C-8.66653 1106.88 -0.541898 1111.8 4.14556 1115.08C8.83302 1118.36 16.6669 1124.9 21.5047 1129.49C26.3426 1134.08 34.0585 1143.41 38.7655 1150.16C43.4725 1156.9 49.5483 1167.48 52.2026 1173.47C54.9593 1179.6 58.0743 1188.75 59.3665 1193.73C60.6588 1198.7 62.2551 1207.7 62.8696 1213.58C63.4841 1219.46 63.578 1230.37 63.1759 1237.6C62.7514 1244.96 61.5022 1253.32 60.6137 1256.11L60.3802 1256.81C59.6127 1259.12 61.0686 1261.57 63.4637 1262.01L212.489 1288.98C214.746 1289.39 216.884 1287.81 217.168 1285.54C220.394 1259.62 221.579 1246.29 221.745 1239.26C222.022 1232.01 221.778 1219.79 221.33 1212.27C220.859 1204.88 219.572 1192.73 218.433 1185.48C217.294 1178.22 213.974 1163.78 210.958 1153.37C208.044 1143.11 203.058 1128.62 200.004 1121.28C196.803 1114.04 192.236 1104.37 189.879 1099.59C187.5 1094.93 181.891 1085.34 177.501 1078.27C173.11 1071.2 165.538 1060.35 160.595 1054.2C155.651 1048.06 147.232 1038.34 141.927 1032.77C136.52 1027.05 127.218 1017.94 121.098 1012.61C115.001 1007.15 104.647 998.88 98.0188 994.225C91.3905 989.57 80.791 982.662 74.3802 978.944C67.9918 975.101 56.7946 969.367 49.6708 966.033C42.4224 962.676 30.3204 957.676 22.7108 954.895C15.1011 952.114 1.32386 947.837 -7.79163 945.554C-16.8848 943.146 -25.3991 941.099 -26.6461 940.875C-28.6412 940.515 -29.5487 944.837 -42.1639 1014.85L-42.1863 1014.97Z" fill="url(#paint1_linear_5141_5712)"/>
<g clip-path="url(#clip2_5141_5712)">
<path d="M306.343 991.119C314.37 977.797 318.994 962.191 318.994 945.506C318.994 896.624 279.383 857.006 230.524 857.006C187.527 857.006 151.709 887.692 143.729 928.366C167.321 944.969 195.566 959.837 227.091 971.395C254.21 981.342 281.07 987.85 306.343 991.119Z" fill="#DF4949"/>
<path d="M230.523 1034.01C262.703 1034.01 290.86 1016.81 306.342 991.12C281.069 987.851 254.21 981.343 227.091 971.396C195.566 959.838 167.32 944.97 143.728 928.367C142.637 933.913 142.053 939.642 142.053 945.507C142.053 994.382 181.664 1034.01 230.523 1034.01Z" fill="#F88181"/>
<g opacity="0.7">
<path fill-rule="evenodd" clip-rule="evenodd" d="M230.523 1022.02C188.346 1022.02 154.031 987.696 154.031 945.505C154.031 941.287 154.379 937.062 155.063 932.944C157.971 915.268 167.113 899.078 180.791 887.361C194.622 875.514 212.286 868.988 230.523 868.988C272.7 868.988 307.009 903.314 307.009 945.505C307.009 960.244 302.815 974.551 294.876 986.87C280.703 1008.88 256.645 1022.02 230.523 1022.02ZM230.523 869.431C193.123 869.431 161.569 896.175 155.5 933.021C154.822 937.11 154.474 941.31 154.474 945.505C154.474 987.448 188.588 1021.57 230.523 1021.57C256.492 1021.57 280.414 1008.51 294.505 986.628C302.396 974.38 306.566 960.161 306.566 945.505C306.566 903.556 272.452 869.431 230.523 869.431Z" fill="white"/>
</g>
<g opacity="0.69">
<path fill-rule="evenodd" clip-rule="evenodd" d="M230.522 1021.94C188.387 1021.94 154.107 987.649 154.107 945.505C154.107 941.292 154.455 937.068 155.14 932.961C158.047 915.297 167.177 899.125 180.843 887.419C194.656 875.584 212.303 869.064 230.522 869.064C272.658 869.064 306.931 903.355 306.931 945.505C306.931 960.225 302.744 974.515 294.811 986.828C280.656 1008.81 256.621 1021.94 230.522 1021.94ZM230.522 869.507C193.158 869.507 161.633 896.222 155.57 933.032C154.892 937.121 154.55 941.316 154.55 945.505C154.55 987.407 188.629 1021.5 230.522 1021.5C256.468 1021.5 280.367 1008.45 294.439 986.587C302.325 974.35 306.495 960.143 306.495 945.505C306.495 903.597 272.41 869.507 230.522 869.507Z" fill="white"/>
</g>
<g opacity="0.69">
<path fill-rule="evenodd" clip-rule="evenodd" d="M230.524 1021.86C188.435 1021.86 154.191 987.609 154.191 945.506C154.191 941.3 154.533 937.081 155.212 932.975C158.119 915.334 167.244 899.174 180.892 887.48C194.699 875.656 212.322 869.143 230.524 869.143C272.612 869.143 306.856 903.398 306.856 945.506C306.856 960.215 302.669 974.487 294.747 986.789C280.604 1008.75 256.593 1021.86 230.524 1021.86ZM230.524 869.585C193.195 869.585 161.706 896.271 155.648 933.045C154.97 937.128 154.628 941.323 154.628 945.506C154.628 987.367 188.671 1021.43 230.524 1021.43C256.446 1021.43 280.315 1008.39 294.382 986.547C302.256 974.322 306.42 960.132 306.42 945.506C306.42 903.64 272.37 869.585 230.524 869.585Z" fill="white"/>
</g>
<g opacity="0.68">
<path fill-rule="evenodd" clip-rule="evenodd" d="M230.523 1021.79C188.476 1021.79 154.268 987.567 154.268 945.506C154.268 941.299 154.61 937.086 155.288 932.986C158.196 915.363 167.308 899.22 180.944 887.538C194.734 875.726 212.34 869.225 230.523 869.225C272.57 869.225 306.779 903.445 306.779 945.506C306.779 960.197 302.597 974.457 294.682 986.741C280.55 1008.69 256.569 1021.79 230.523 1021.79ZM230.523 869.655C193.236 869.655 161.776 896.323 155.718 933.057C155.046 937.134 154.704 941.323 154.704 945.506C154.704 987.325 188.718 1021.35 230.523 1021.35C256.422 1021.35 280.267 1008.32 294.316 986.505C302.184 974.292 306.342 960.114 306.342 945.506C306.342 903.681 272.329 869.655 230.523 869.655Z" fill="white"/>
</g>
<g opacity="0.67">
<path fill-rule="evenodd" clip-rule="evenodd" d="M230.523 1021.71C188.517 1021.71 154.344 987.525 154.344 945.505C154.344 941.304 154.686 937.098 155.364 932.997C158.266 915.392 167.367 899.267 180.991 887.597C194.769 875.797 212.357 869.301 230.523 869.301C272.529 869.301 306.702 903.485 306.702 945.505C306.702 960.184 302.526 974.433 294.617 986.699C280.503 1008.62 256.539 1021.71 230.523 1021.71ZM230.523 869.731C193.271 869.731 161.84 896.37 155.795 933.068C155.116 937.145 154.774 941.328 154.774 945.505C154.774 987.283 188.753 1021.27 230.523 1021.27C256.392 1021.27 280.214 1008.26 294.251 986.469C302.113 974.268 306.265 960.102 306.265 945.505C306.265 903.721 272.287 869.731 230.523 869.731Z" fill="white"/>
</g>
<g opacity="0.67">
<path fill-rule="evenodd" clip-rule="evenodd" d="M230.522 1021.63C188.558 1021.63 154.42 987.477 154.42 945.505C154.42 941.304 154.762 937.103 155.44 933.008C158.342 915.421 167.431 899.314 181.044 887.655C194.804 875.867 212.374 869.377 230.522 869.377C272.487 869.377 306.625 903.526 306.625 945.505C306.625 960.172 302.449 974.403 294.551 986.657C280.449 1008.56 256.515 1021.63 230.522 1021.63ZM230.522 869.808C193.306 869.808 161.91 896.417 155.865 933.079C155.193 937.15 154.85 941.333 154.85 945.505C154.85 987.241 188.794 1021.2 230.522 1021.2C256.367 1021.2 280.166 1008.2 294.192 986.427C302.042 974.238 306.194 960.084 306.194 945.505C306.194 903.762 272.245 869.808 230.522 869.808Z" fill="white"/>
</g>
<g opacity="0.66">
<path fill-rule="evenodd" clip-rule="evenodd" d="M230.524 1021.56C188.6 1021.56 154.498 987.437 154.498 945.506C154.498 941.317 154.84 937.116 155.518 933.022C158.414 915.451 167.497 899.362 181.098 887.716C194.841 875.939 212.399 869.455 230.524 869.455C272.441 869.455 306.549 903.569 306.549 945.506C306.549 960.156 302.379 974.375 294.488 986.617C280.397 1008.49 256.487 1021.56 230.524 1021.56ZM230.524 869.886C193.342 869.886 161.977 896.465 155.943 933.092C155.271 937.163 154.929 941.335 154.929 945.506C154.929 987.201 188.842 1021.13 230.524 1021.13C256.339 1021.13 280.12 1008.14 294.128 986.387C301.972 974.21 306.119 960.073 306.119 945.506C306.119 903.805 272.205 869.886 230.524 869.886Z" fill="white"/>
</g>
<g opacity="0.65">
<path fill-rule="evenodd" clip-rule="evenodd" d="M230.523 1021.47C188.647 1021.47 154.574 987.396 154.574 945.506C154.574 941.317 154.916 937.122 155.595 933.033C158.491 915.486 167.562 899.409 181.145 887.774C194.875 876.009 212.416 869.531 230.523 869.531C272.399 869.531 306.472 903.616 306.472 945.506C306.472 960.138 302.302 974.345 294.423 986.575C280.35 1008.43 256.463 1021.47 230.523 1021.47ZM230.523 869.956C193.383 869.956 162.047 896.518 156.019 933.104C155.341 937.169 155.005 941.34 155.005 945.506C155.005 987.16 188.883 1021.05 230.523 1021.05C256.315 1021.05 280.067 1008.08 294.063 986.345C301.901 974.18 306.042 960.055 306.042 945.506C306.042 903.846 272.163 869.956 230.523 869.956Z" fill="white"/>
</g>
<g opacity="0.64">
<path fill-rule="evenodd" clip-rule="evenodd" d="M230.523 1021.4C188.688 1021.4 154.65 987.354 154.65 945.505C154.65 941.322 154.992 937.133 155.671 933.05C158.561 915.515 167.626 899.456 181.197 887.833C194.916 876.08 212.433 869.607 230.523 869.607C272.357 869.607 306.389 903.656 306.389 945.505C306.389 960.125 302.231 974.315 294.357 986.534C280.296 1008.36 256.433 1021.4 230.523 1021.4ZM230.523 870.032C193.418 870.032 162.111 896.565 156.09 933.115C155.417 937.18 155.075 941.346 155.075 945.505C155.075 987.118 188.924 1020.97 230.523 1020.97C256.291 1020.97 280.019 1008.02 293.997 986.304C301.83 974.15 305.964 960.043 305.964 945.505C305.964 903.886 272.122 870.032 230.523 870.032Z" fill="white"/>
</g>
<g opacity="0.64">
<path fill-rule="evenodd" clip-rule="evenodd" d="M230.522 1021.32C188.729 1021.32 154.727 987.312 154.727 945.504C154.727 941.327 155.069 937.138 155.747 933.061C158.631 915.544 167.69 899.502 181.244 887.891C194.951 876.15 212.451 869.684 230.522 869.684C272.316 869.684 306.312 903.697 306.312 945.504C306.312 960.107 302.16 974.285 294.292 986.492C280.249 1008.3 256.409 1021.32 230.522 1021.32ZM230.522 870.108C193.453 870.108 162.182 896.611 156.166 933.126C155.493 937.185 155.151 941.351 155.151 945.504C155.151 987.076 188.965 1020.9 230.522 1020.9C256.261 1020.9 279.971 1007.95 293.938 986.262C301.759 974.119 305.893 960.024 305.893 945.504C305.893 903.927 272.08 870.108 230.522 870.108Z" fill="white"/>
</g>
<g opacity="0.63">
<path fill-rule="evenodd" clip-rule="evenodd" d="M230.524 1021.24C188.771 1021.24 154.805 987.266 154.805 945.506C154.805 941.335 155.147 937.152 155.825 933.075C158.709 915.575 167.757 899.551 181.299 887.951C194.988 876.222 212.47 869.762 230.524 869.762C272.276 869.762 306.237 903.74 306.237 945.506C306.237 960.097 302.084 974.257 294.228 986.452C280.197 1008.23 256.381 1021.24 230.524 1021.24ZM230.524 870.187C193.49 870.187 162.254 896.66 156.238 933.145C155.571 937.199 155.229 941.358 155.229 945.506C155.229 987.036 189.007 1020.83 230.524 1020.83C256.239 1020.83 279.92 1007.89 293.874 986.222C301.689 974.091 305.818 960.014 305.818 945.506C305.818 903.976 272.04 870.187 230.524 870.187Z" fill="white"/>
</g>
<g opacity="0.62">
<path fill-rule="evenodd" clip-rule="evenodd" d="M230.523 1021.17C188.818 1021.17 154.887 987.224 154.887 945.505C154.887 941.334 155.229 937.157 155.901 933.086C158.779 915.604 167.815 899.597 181.345 888.01C195.023 876.292 212.487 869.838 230.523 869.838C272.228 869.838 306.16 903.781 306.16 945.505C306.16 960.078 302.013 974.227 294.163 986.41C280.143 1008.18 256.357 1021.17 230.523 1021.17ZM230.523 870.257C193.531 870.257 162.318 896.712 156.314 933.157C155.642 937.204 155.305 941.358 155.305 945.505C155.305 986.994 189.048 1020.75 230.523 1020.75C256.215 1020.75 279.872 1007.83 293.809 986.18C301.618 974.067 305.741 960.002 305.741 945.505C305.741 904.017 271.998 870.257 230.523 870.257Z" fill="white"/>
</g>
<g opacity="0.62">
<path fill-rule="evenodd" clip-rule="evenodd" d="M230.523 1021.09C188.859 1021.09 154.963 987.182 154.963 945.505C154.963 941.334 155.305 937.162 155.977 933.097C158.856 915.639 167.88 899.644 181.398 888.068C195.058 876.363 212.504 869.92 230.523 869.92C272.186 869.92 306.082 903.827 306.082 945.505C306.082 960.066 301.936 974.197 294.098 986.368C280.096 1008.11 256.327 1021.09 230.523 1021.09ZM230.523 870.333C193.566 870.333 162.389 896.759 156.39 933.168C155.718 937.209 155.376 941.357 155.376 945.505C155.376 986.952 189.089 1020.67 230.523 1020.67C256.185 1020.67 279.818 1007.76 293.75 986.138C301.547 974.037 305.664 959.983 305.664 945.505C305.664 904.057 271.956 870.333 230.523 870.333Z" fill="white"/>
</g>
<g opacity="0.61">
<path fill-rule="evenodd" clip-rule="evenodd" d="M230.522 1021.01C188.9 1021.01 155.039 987.143 155.039 945.506C155.039 941.341 155.381 937.175 156.054 933.11C158.926 915.67 167.944 899.693 181.445 888.129C195.093 876.435 212.521 869.998 230.522 869.998C272.145 869.998 306.005 903.87 306.005 945.506C306.005 960.05 301.865 974.168 294.032 986.322C280.042 1008.05 256.302 1021.01 230.522 1021.01ZM230.522 870.411C193.6 870.411 162.453 896.808 156.46 933.181C155.788 937.217 155.452 941.364 155.452 945.506C155.452 986.912 189.13 1020.6 230.522 1020.6C256.161 1020.6 279.771 1007.7 293.684 986.104C301.475 974.009 305.592 959.973 305.592 945.506C305.592 904.1 271.915 870.411 230.522 870.411Z" fill="white"/>
</g>
<g opacity="0.6">
<path fill-rule="evenodd" clip-rule="evenodd" d="M230.524 1020.94C188.942 1020.94 155.117 987.095 155.117 945.506C155.117 941.346 155.459 937.181 156.132 933.122C159.004 915.699 168.01 899.739 181.499 888.187C195.129 876.505 212.54 870.074 230.524 870.074C272.099 870.074 305.93 903.911 305.93 945.506C305.93 960.037 301.795 974.138 293.969 986.281C279.996 1007.98 256.274 1020.94 230.524 1020.94ZM230.524 870.487C193.643 870.487 162.525 896.854 156.539 933.192C155.866 937.222 155.53 941.37 155.53 945.506C155.53 986.871 189.172 1020.52 230.524 1020.52C256.133 1020.52 279.725 1007.64 293.621 986.062C301.406 973.979 305.517 959.955 305.517 945.506C305.517 904.141 271.875 870.487 230.524 870.487Z" fill="white"/>
</g>
<g opacity="0.6">
<path fill-rule="evenodd" clip-rule="evenodd" d="M230.523 1020.85C188.989 1020.85 155.193 987.053 155.193 945.505C155.193 941.352 155.535 937.192 156.208 933.139C159.074 915.728 168.075 899.786 181.546 888.246C195.17 876.575 212.564 870.15 230.523 870.15C272.057 870.15 305.853 903.951 305.853 945.505C305.853 960.019 301.718 974.108 293.903 986.239C279.943 1007.92 256.25 1020.85 230.523 1020.85ZM230.523 870.557C193.678 870.557 162.589 896.907 156.609 933.204C155.942 937.233 155.606 941.375 155.606 945.505C155.606 986.829 189.213 1020.45 230.523 1020.45C256.109 1020.45 279.677 1007.58 293.555 986.02C301.335 973.949 305.44 959.942 305.44 945.505C305.44 904.182 271.833 870.557 230.523 870.557Z" fill="white"/>
</g>
<g opacity="0.59">
<path fill-rule="evenodd" clip-rule="evenodd" d="M230.523 1020.78C189.03 1020.78 155.27 987.011 155.27 945.505C155.27 941.357 155.612 937.197 156.284 933.15C159.145 915.757 168.139 899.833 181.598 888.304C195.205 876.646 212.581 870.227 230.523 870.227C272.015 870.227 305.776 903.998 305.776 945.505C305.776 960.007 301.647 974.078 293.838 986.197C279.889 1007.85 256.22 1020.78 230.523 1020.78ZM230.523 870.634C193.713 870.634 162.66 896.954 156.685 933.215C156.019 937.245 155.676 941.381 155.676 945.505C155.676 986.787 189.254 1020.37 230.523 1020.37C256.085 1020.37 279.624 1007.51 293.496 985.979C301.258 973.919 305.363 959.924 305.363 945.505C305.363 904.222 271.791 870.634 230.523 870.634Z" fill="white"/>
</g>
<g opacity="0.58">
<path fill-rule="evenodd" clip-rule="evenodd" d="M230.522 1020.7C189.071 1020.7 155.346 986.971 155.346 945.506C155.346 941.364 155.688 937.211 156.36 933.163C159.221 915.788 168.203 899.881 181.645 888.365C195.24 876.718 212.598 870.305 230.522 870.305C271.973 870.305 305.692 904.041 305.692 945.506C305.692 959.991 301.57 974.05 293.773 986.157C279.841 1007.79 256.196 1020.7 230.522 1020.7ZM230.522 870.712C193.748 870.712 162.724 897.002 156.755 933.228C156.089 937.258 155.753 941.388 155.753 945.506C155.753 986.747 189.295 1020.3 230.522 1020.3C256.061 1020.3 279.576 1007.46 293.43 985.939C301.186 973.897 305.291 959.914 305.291 945.506C305.291 904.265 271.749 870.712 230.522 870.712Z" fill="white"/>
</g>
<g opacity="0.58">
<path fill-rule="evenodd" clip-rule="evenodd" d="M230.523 1020.62C189.113 1020.62 155.43 986.924 155.43 945.506C155.43 941.364 155.766 937.216 156.432 933.175C159.293 915.823 168.27 899.928 181.7 888.423C195.277 876.788 212.617 870.381 230.523 870.381C271.928 870.381 305.617 904.082 305.617 945.506C305.617 959.978 301.5 974.02 293.709 986.115C279.79 1007.73 256.168 1020.62 230.523 1020.62ZM230.523 870.788C193.785 870.788 162.796 897.049 156.833 933.239C156.167 937.263 155.831 941.387 155.831 945.506C155.831 986.705 189.337 1020.22 230.523 1020.22C256.032 1020.22 279.524 1007.39 293.367 985.897C301.117 973.867 305.216 959.896 305.216 945.506C305.216 904.306 271.709 870.788 230.523 870.788Z" fill="white"/>
</g>
<g opacity="0.57">
<path fill-rule="evenodd" clip-rule="evenodd" d="M230.523 1020.55C189.154 1020.55 155.506 986.882 155.506 945.505C155.506 941.369 155.842 937.227 156.509 933.186C159.369 915.852 168.328 899.975 181.746 888.482C195.312 876.859 212.634 870.457 230.523 870.457C271.886 870.457 305.54 904.122 305.54 945.505C305.54 959.96 301.423 973.99 293.644 986.073C279.742 1007.66 256.144 1020.55 230.523 1020.55ZM230.523 870.858C193.825 870.858 162.867 897.101 156.904 933.251C156.243 937.269 155.907 941.393 155.907 945.505C155.907 986.663 189.378 1020.15 230.523 1020.15C256.008 1020.15 279.477 1007.33 293.302 985.855C301.046 973.837 305.139 959.883 305.139 945.505C305.139 904.347 271.668 870.858 230.523 870.858Z" fill="white"/>
</g>
<g opacity="0.56">
<path fill-rule="evenodd" clip-rule="evenodd" d="M230.522 1020.47C189.201 1020.47 155.582 986.84 155.582 945.504C155.582 941.369 155.918 937.233 156.585 933.197C159.439 915.881 168.393 900.021 181.799 888.534C195.347 876.929 212.651 870.539 230.522 870.539C271.844 870.539 305.463 904.169 305.463 945.504C305.463 959.948 301.352 973.96 293.578 986.032C279.688 1007.6 256.12 1020.47 230.522 1020.47ZM230.522 870.934C193.86 870.934 162.931 897.148 156.98 933.262C156.313 937.274 155.977 941.392 155.977 945.504C155.977 986.622 189.419 1020.07 230.522 1020.07C255.978 1020.07 279.429 1007.27 293.242 985.813C300.974 973.807 305.062 959.871 305.062 945.504C305.062 904.387 271.626 870.934 230.522 870.934Z" fill="white"/>
</g>
<g opacity="0.55">
<path fill-rule="evenodd" clip-rule="evenodd" d="M230.522 1020.39C189.242 1020.39 155.658 986.8 155.658 945.506C155.658 941.376 155.994 937.24 156.661 933.216C159.516 915.911 168.457 900.07 181.845 888.594C195.387 877.001 212.669 870.617 230.522 870.617C271.802 870.617 305.386 904.212 305.386 945.506C305.386 959.931 301.281 973.932 293.513 985.992C279.635 1007.53 256.09 1020.39 230.522 1020.39ZM230.522 871.012C193.895 871.012 163.001 897.197 157.056 933.281C156.39 937.281 156.053 941.394 156.053 945.506C156.053 986.582 189.46 1020 230.522 1020C255.954 1020 279.375 1007.2 293.177 985.773C300.903 973.779 304.991 959.855 304.991 945.506C304.991 904.43 271.584 871.012 230.522 871.012Z" fill="white"/>
</g>
<g opacity="0.55">
<path fill-rule="evenodd" clip-rule="evenodd" d="M230.523 1020.32C189.284 1020.32 155.736 986.752 155.736 945.505C155.736 941.381 156.073 937.245 156.739 933.227C159.588 915.94 168.523 900.111 181.9 888.653C195.424 877.071 212.694 870.693 230.523 870.693C271.762 870.693 305.31 904.253 305.31 945.505C305.31 959.919 301.205 973.902 293.45 985.95C279.589 1007.47 256.068 1020.32 230.523 1020.32ZM230.523 871.089C193.932 871.089 163.068 897.249 157.128 933.292C156.468 937.293 156.131 941.399 156.131 945.505C156.131 986.54 189.503 1019.92 230.523 1019.92C255.932 1019.92 279.33 1007.14 293.113 985.737C300.834 973.755 304.915 959.842 304.915 945.505C304.915 904.471 271.544 871.089 230.523 871.089Z" fill="white"/>
</g>
<g opacity="0.54">
<path fill-rule="evenodd" clip-rule="evenodd" d="M230.523 1020.24C189.325 1020.24 155.812 986.71 155.812 945.505C155.812 941.387 156.149 937.257 156.815 933.239C159.664 915.975 168.588 900.157 181.947 888.711C195.459 877.142 212.711 870.77 230.523 870.77C271.715 870.77 305.233 904.293 305.233 945.505C305.233 959.901 301.134 973.872 293.378 985.908C279.536 1007.4 256.038 1020.24 230.523 1020.24ZM230.523 871.159C193.973 871.159 163.138 897.296 157.204 933.304C156.538 937.298 156.202 941.404 156.202 945.505C156.202 986.498 189.543 1019.84 230.523 1019.84C255.902 1019.84 279.276 1007.08 293.048 985.696C300.763 973.725 304.838 959.824 304.838 945.505C304.838 904.512 271.502 871.159 230.523 871.159Z" fill="white"/>
</g>
<g opacity="0.53">
<path fill-rule="evenodd" clip-rule="evenodd" d="M230.522 1020.16C189.372 1020.16 155.889 986.671 155.889 945.506C155.889 941.394 156.225 937.27 156.891 933.252C159.734 916.006 168.652 900.206 181.999 888.772C195.494 877.214 212.728 870.848 230.522 870.848C271.673 870.848 305.156 904.336 305.156 945.506C305.156 959.885 301.063 973.844 293.313 985.862C279.488 1007.34 256.014 1020.16 230.522 1020.16ZM230.522 871.237C194.008 871.237 163.202 897.345 157.275 933.317C156.614 937.311 156.278 941.412 156.278 945.506C156.278 986.458 189.584 1019.77 230.522 1019.77C255.878 1019.77 279.228 1007.02 292.988 985.656C300.691 973.696 304.761 959.814 304.761 945.506C304.761 904.554 271.461 871.237 230.522 871.237Z" fill="white"/>
</g>
<g opacity="0.53">
<path fill-rule="evenodd" clip-rule="evenodd" d="M230.522 1020.08C189.413 1020.08 155.965 986.629 155.965 945.506C155.965 941.393 156.301 937.275 156.968 933.263C159.804 916.035 168.716 900.253 182.052 888.83C195.529 877.284 212.745 870.924 230.522 870.924C271.631 870.924 305.079 904.383 305.079 945.506C305.079 959.872 300.986 973.814 293.247 985.82C279.434 1007.28 255.984 1020.08 230.522 1020.08ZM230.522 871.313C194.043 871.313 163.273 897.391 157.351 933.328C156.69 937.317 156.354 941.417 156.354 945.506C156.354 986.416 189.625 1019.7 230.522 1019.7C255.854 1019.7 279.181 1006.95 292.923 985.614C300.62 973.666 304.69 959.796 304.69 945.506C304.69 904.595 271.419 871.313 230.522 871.313Z" fill="white"/>
</g>
<g opacity="0.52">
<path fill-rule="evenodd" clip-rule="evenodd" d="M230.523 1020C189.455 1020 156.043 986.587 156.043 945.505C156.043 941.399 156.385 937.286 157.046 933.274C159.883 916.064 168.783 900.299 182.1 888.889C195.566 877.354 212.764 871 230.523 871C271.591 871 304.998 904.423 304.998 945.505C304.998 959.854 300.916 973.784 293.184 985.779C279.383 1007.21 255.962 1020 230.523 1020ZM230.523 871.389C194.085 871.389 163.339 897.444 157.423 933.339C156.768 937.328 156.432 941.422 156.432 945.505C156.432 986.374 189.668 1019.62 230.523 1019.62C255.826 1019.62 279.135 1006.89 292.86 985.572C300.551 973.636 304.614 959.783 304.614 945.505C304.614 904.636 271.379 871.389 230.523 871.389Z" fill="white"/>
</g>
<g opacity="0.51">
<path fill-rule="evenodd" clip-rule="evenodd" d="M230.523 1019.93C189.496 1019.93 156.119 986.539 156.119 945.505C156.119 941.404 156.455 937.298 157.122 933.286C159.953 916.093 168.841 900.346 182.153 888.947C195.601 877.425 212.782 871.076 230.523 871.076C271.544 871.076 304.921 904.464 304.921 945.505C304.921 959.842 300.839 973.754 293.119 985.737C279.335 1007.15 255.932 1019.93 230.523 1019.93ZM230.523 871.46C194.12 871.46 163.409 897.49 157.499 933.351C156.839 937.339 156.503 941.428 156.503 945.505C156.503 986.333 189.708 1019.54 230.523 1019.54C255.802 1019.54 279.081 1006.83 292.8 985.53C300.479 973.606 304.537 959.765 304.537 945.505C304.537 904.677 271.337 871.46 230.523 871.46Z" fill="white"/>
</g>
<g opacity="0.51">
<path fill-rule="evenodd" clip-rule="evenodd" d="M230.522 1019.85C189.537 1019.85 156.195 986.499 156.195 945.506C156.195 941.406 156.532 937.299 157.198 933.305C160.029 916.124 168.906 900.395 182.2 889.008C195.641 877.497 212.799 871.16 230.522 871.16C271.502 871.16 304.843 904.507 304.843 945.506C304.843 959.825 300.768 973.726 293.053 985.697C279.281 1007.08 255.907 1019.85 230.522 1019.85ZM230.522 871.538C194.155 871.538 163.473 897.539 157.575 933.364C156.915 937.346 156.579 941.429 156.579 945.506C156.579 986.287 189.749 1019.47 230.522 1019.47C255.778 1019.47 279.034 1006.77 292.735 985.49C300.408 973.584 304.466 959.755 304.466 945.506C304.466 904.719 271.295 871.538 230.522 871.538Z" fill="white"/>
</g>
<g opacity="0.5">
<path fill-rule="evenodd" clip-rule="evenodd" d="M230.524 1019.77C189.586 1019.77 156.279 986.457 156.279 945.506C156.279 941.411 156.615 937.31 157.276 933.316C160.101 916.159 168.972 900.441 182.254 889.066C195.678 877.567 212.818 871.236 230.524 871.236C271.462 871.236 304.768 904.554 304.768 945.506C304.768 959.813 300.699 973.696 292.99 985.655C279.23 1007.02 255.879 1019.77 230.524 1019.77ZM230.524 871.614C194.198 871.614 163.546 897.586 157.648 933.375C156.993 937.352 156.657 941.429 156.657 945.506C156.657 986.245 189.792 1019.4 230.524 1019.4C255.75 1019.4 278.982 1006.71 292.671 985.449C300.339 973.554 304.391 959.742 304.391 945.506C304.391 904.76 271.256 871.614 230.524 871.614Z" fill="white"/>
</g>
<g opacity="0.49">
<path fill-rule="evenodd" clip-rule="evenodd" d="M230.523 1019.7C189.626 1019.7 156.355 986.416 156.355 945.505C156.355 941.416 156.692 937.316 157.352 933.327C160.177 916.188 169.036 900.488 182.301 889.125C195.713 877.637 212.841 871.312 230.523 871.312C271.42 871.312 304.691 904.594 304.691 945.505C304.691 959.795 300.621 973.666 292.924 985.613C279.182 1006.95 255.855 1019.7 230.523 1019.7ZM230.523 871.69C194.233 871.69 163.616 897.638 157.724 933.386C157.063 937.357 156.733 941.434 156.733 945.505C156.733 986.203 189.833 1019.32 230.523 1019.32C255.726 1019.32 278.934 1006.64 292.606 985.407C300.268 973.524 304.314 959.724 304.314 945.505C304.314 904.801 271.214 871.69 230.523 871.69Z" fill="white"/>
</g>
<g opacity="0.49">
<path fill-rule="evenodd" clip-rule="evenodd" d="M230.523 1019.62C189.667 1019.62 156.432 986.368 156.432 945.504C156.432 941.416 156.768 937.327 157.428 933.339C160.248 916.217 169.101 900.535 182.353 889.183C195.748 877.708 212.858 871.389 230.523 871.389C271.378 871.389 304.614 904.635 304.614 945.504C304.614 959.782 300.55 973.636 292.859 985.571C279.128 1006.89 255.825 1019.62 230.523 1019.62ZM230.523 871.76C194.268 871.76 163.68 897.685 157.794 933.398C157.139 937.368 156.803 941.439 156.803 945.504C156.803 986.161 189.873 1019.24 230.523 1019.24C255.701 1019.24 278.887 1006.58 292.546 985.365C300.196 973.494 304.236 959.706 304.236 945.504C304.236 904.842 271.172 871.76 230.523 871.76Z" fill="white"/>
</g>
<g opacity="0.48">
<path fill-rule="evenodd" clip-rule="evenodd" d="M230.522 1019.55C189.708 1019.55 156.508 986.328 156.508 945.506C156.508 941.423 156.844 937.334 157.505 933.352C160.324 916.248 169.165 900.583 182.4 889.243C195.783 877.78 212.875 871.467 230.522 871.467C271.331 871.467 304.537 904.678 304.537 945.506C304.537 959.766 300.473 973.608 292.794 985.532C279.081 1006.82 255.801 1019.55 230.522 1019.55ZM230.522 871.838C194.302 871.838 163.751 897.734 157.87 933.417C157.216 937.376 156.879 941.441 156.879 945.506C156.879 986.122 189.914 1019.17 230.522 1019.17C255.671 1019.17 278.833 1006.52 292.481 985.331C300.125 973.466 304.165 959.695 304.165 945.506C304.165 904.884 271.13 871.838 230.522 871.838Z" fill="white"/>
</g>
<g opacity="0.47">
<path fill-rule="evenodd" clip-rule="evenodd" d="M230.524 1019.46C189.756 1019.46 156.586 986.286 156.586 945.505C156.586 941.428 156.922 937.346 157.583 933.363C160.396 916.277 169.231 900.63 182.455 889.302C195.82 877.85 212.894 871.543 230.524 871.543C271.291 871.543 304.456 904.725 304.456 945.505C304.456 959.754 300.404 973.578 292.73 985.49C279.029 1006.77 255.773 1019.46 230.524 1019.46ZM230.524 871.915C194.339 871.915 163.817 897.78 157.948 933.428C157.288 937.387 156.958 941.446 156.958 945.505C156.958 986.08 189.957 1019.1 230.524 1019.1C255.649 1019.1 278.787 1006.46 292.418 985.289C300.056 973.436 304.09 959.683 304.09 945.505C304.09 904.925 271.09 871.915 230.524 871.915Z" fill="white"/>
</g>
<g opacity="0.46">
<path fill-rule="evenodd" clip-rule="evenodd" d="M230.523 1019.38C189.797 1019.38 156.662 986.244 156.662 945.505C156.662 941.434 156.998 937.351 157.659 933.374C160.472 916.312 169.296 900.677 182.501 889.36C195.86 877.92 212.912 871.619 230.523 871.619C271.249 871.619 304.378 904.765 304.378 945.505C304.378 959.736 300.332 973.548 292.665 985.448C278.981 1006.7 255.749 1019.38 230.523 1019.38ZM230.523 871.991C194.38 871.991 163.887 897.833 158.019 933.439C157.364 937.392 157.034 941.452 157.034 945.505C157.034 986.038 189.998 1019.02 230.523 1019.02C255.619 1019.02 278.74 1006.39 292.358 985.247C299.984 973.412 304.013 959.665 304.013 945.505C304.013 904.966 271.043 871.991 230.523 871.991Z" fill="white"/>
</g>
<g opacity="0.46">
<path fill-rule="evenodd" clip-rule="evenodd" d="M230.523 1019.31C189.838 1019.31 156.738 986.199 156.738 945.506C156.738 941.441 157.074 937.364 157.729 933.394C160.543 916.343 169.354 900.725 182.554 889.421C195.895 877.993 212.929 871.697 230.523 871.697C271.207 871.697 304.301 904.808 304.301 945.506C304.301 959.725 300.255 973.519 292.599 985.402C278.928 1006.64 255.719 1019.31 230.523 1019.31ZM230.523 872.063C194.415 872.063 163.952 897.881 158.095 933.453C157.44 937.406 157.104 941.459 157.104 945.506C157.104 985.998 190.039 1018.94 230.523 1018.94C255.595 1018.94 278.686 1006.34 292.293 985.207C299.913 973.384 303.936 959.654 303.936 945.506C303.936 905.009 271.001 872.063 230.523 872.063Z" fill="white"/>
</g>
<g opacity="0.45">
<path fill-rule="evenodd" clip-rule="evenodd" d="M230.522 1019.23C189.879 1019.23 156.82 986.157 156.82 945.506C156.82 941.441 157.151 937.364 157.805 933.405C160.613 916.372 169.419 900.772 182.601 889.479C195.93 878.063 212.946 871.773 230.522 871.773C271.16 871.773 304.224 904.849 304.224 945.506C304.224 959.707 300.184 973.489 292.534 985.36C278.874 1006.57 255.695 1019.23 230.522 1019.23ZM230.522 872.139C194.45 872.139 164.022 897.928 158.165 933.464C157.51 937.405 157.18 941.458 157.18 945.506C157.18 985.956 190.079 1018.87 230.522 1018.87C255.571 1018.87 278.638 1006.27 292.227 985.166C299.842 973.354 303.864 959.636 303.864 945.506C303.864 905.049 270.959 872.139 230.522 872.139Z" fill="white"/>
</g>
<g opacity="0.44">
<path fill-rule="evenodd" clip-rule="evenodd" d="M230.524 1019.15C189.927 1019.15 156.898 986.115 156.898 945.505C156.898 941.446 157.229 937.375 157.883 933.416C160.691 916.4 169.485 900.819 182.655 889.538C195.967 878.133 212.965 871.855 230.524 871.855C271.12 871.855 304.149 904.895 304.149 945.505C304.149 959.695 300.109 973.459 292.471 985.318C278.828 1006.51 255.673 1019.15 230.524 1019.15ZM230.524 872.215C194.493 872.215 164.094 897.981 158.243 933.475C157.589 937.416 157.258 941.464 157.258 945.505C157.258 985.914 190.122 1018.79 230.524 1018.79C255.549 1018.79 278.593 1006.2 292.164 985.124C299.767 973.324 303.789 959.624 303.789 945.505C303.789 905.09 270.919 872.215 230.524 872.215Z" fill="white"/>
</g>
<g opacity="0.44">
<path fill-rule="evenodd" clip-rule="evenodd" d="M230.523 1019.08C189.968 1019.08 156.975 986.073 156.975 945.505C156.975 941.451 157.305 937.386 157.96 933.427C160.761 916.429 169.549 900.865 182.702 889.596C196.002 878.203 212.988 871.932 230.523 871.932C271.078 871.932 304.072 904.936 304.072 945.505C304.072 959.676 300.037 973.429 292.405 985.277C278.775 1006.44 255.643 1019.08 230.523 1019.08ZM230.523 872.292C194.527 872.292 164.158 898.027 158.313 933.486C157.665 937.428 157.334 941.469 157.334 945.505C157.334 985.872 190.163 1018.72 230.523 1018.72C255.519 1018.72 278.539 1006.14 292.104 985.082C299.695 973.294 303.712 959.606 303.712 945.505C303.712 905.131 270.877 872.292 230.523 872.292Z" fill="white"/>
</g>
<g opacity="0.43">
<path fill-rule="evenodd" clip-rule="evenodd" d="M230.523 1019C190.009 1019 157.051 986.033 157.051 945.506C157.051 941.459 157.381 937.399 158.036 933.441C160.837 916.46 169.614 900.914 182.754 889.657C196.037 878.276 213.005 872.01 230.523 872.01C271.036 872.01 303.994 904.979 303.994 945.506C303.994 959.66 299.966 973.401 292.34 985.237C278.721 1006.38 255.613 1019 230.523 1019ZM230.523 872.364C194.562 872.364 164.229 898.076 158.39 933.5C157.735 937.435 157.405 941.476 157.405 945.506C157.405 985.833 190.204 1018.64 230.523 1018.64C255.495 1018.64 278.491 1006.08 292.039 985.042C299.624 973.266 303.635 959.595 303.635 945.506C303.635 905.174 270.836 872.364 230.523 872.364Z" fill="white"/>
</g>
<g opacity="0.42">
<path fill-rule="evenodd" clip-rule="evenodd" d="M230.522 1018.93C190.05 1018.93 157.127 985.985 157.127 945.506C157.127 941.458 157.457 937.405 158.112 933.452C160.908 916.495 169.678 900.961 182.801 889.715C196.078 878.346 213.023 872.086 230.522 872.086C270.988 872.086 303.917 905.02 303.917 945.506C303.917 959.648 299.889 973.371 292.274 985.195C278.674 1006.32 255.589 1018.93 230.522 1018.93ZM230.522 872.44C194.597 872.44 164.293 898.123 158.466 933.511C157.811 937.446 157.481 941.476 157.481 945.506C157.481 985.791 190.25 1018.57 230.522 1018.57C255.465 1018.57 278.444 1006.02 291.974 985.006C299.553 973.236 303.563 959.577 303.563 945.506C303.563 905.214 270.794 872.44 230.522 872.44Z" fill="white"/>
</g>
<g opacity="0.42">
<path fill-rule="evenodd" clip-rule="evenodd" d="M230.524 1018.84C190.093 1018.84 157.205 985.944 157.205 945.505C157.205 941.464 157.535 937.416 158.19 933.469C160.986 916.524 169.744 901.007 182.856 889.774C196.114 878.416 213.042 872.162 230.524 872.162C270.949 872.162 303.842 905.061 303.842 945.505C303.842 959.636 299.82 973.341 292.211 985.153C278.622 1006.25 255.561 1018.84 230.524 1018.84ZM230.524 872.516C194.64 872.516 164.365 898.175 158.538 933.522C157.889 937.452 157.559 941.481 157.559 945.505C157.559 985.749 190.287 1018.49 230.524 1018.49C255.443 1018.49 278.392 1005.96 291.91 984.964C299.483 973.211 303.488 959.565 303.488 945.505C303.488 905.255 270.754 872.516 230.524 872.516Z" fill="white"/>
</g>
<g opacity="0.41">
<path fill-rule="evenodd" clip-rule="evenodd" d="M230.523 1018.76C190.139 1018.76 157.281 985.902 157.281 945.504C157.281 941.469 157.612 937.421 158.266 933.48C161.056 916.553 169.809 901.054 182.902 889.832C196.149 878.486 213.059 872.238 230.523 872.238C270.907 872.238 303.765 905.107 303.765 945.504C303.765 959.617 299.742 973.311 292.146 985.111C278.574 1006.19 255.537 1018.76 230.523 1018.76ZM230.523 872.592C194.675 872.592 164.43 898.222 158.614 933.533C157.96 937.463 157.635 941.487 157.635 945.504C157.635 985.707 190.328 1018.42 230.523 1018.42C255.419 1018.42 278.344 1005.9 291.851 984.922C299.412 973.181 303.411 959.552 303.411 945.504C303.411 905.296 270.712 872.592 230.523 872.592Z" fill="white"/>
</g>
<g opacity="0.4">
<path fill-rule="evenodd" clip-rule="evenodd" d="M230.523 1018.69C190.18 1018.69 157.357 985.862 157.357 945.506C157.357 941.47 157.688 937.429 158.342 933.494C161.126 916.584 169.867 901.103 182.955 889.893C196.184 878.559 213.076 872.316 230.523 872.316C270.865 872.316 303.688 905.15 303.688 945.506C303.688 959.601 299.671 973.283 292.08 985.071C278.521 1006.12 255.507 1018.69 230.523 1018.69ZM230.523 872.665C194.71 872.665 164.5 898.271 158.684 933.553C158.036 937.47 157.711 941.488 157.711 945.506C157.711 985.667 190.375 1018.34 230.523 1018.34C255.389 1018.34 278.291 1005.83 291.785 984.883C299.341 973.153 303.334 959.536 303.334 945.506C303.334 905.339 270.67 872.665 230.523 872.665Z" fill="white"/>
</g>
<g opacity="0.4">
<path fill-rule="evenodd" clip-rule="evenodd" d="M230.522 1018.61C190.221 1018.61 157.439 985.814 157.439 945.505C157.439 941.47 157.764 937.434 158.419 933.505C161.202 916.613 169.931 901.149 183.007 889.951C196.219 878.629 213.093 872.393 230.522 872.393C270.823 872.393 303.605 905.191 303.605 945.505C303.605 959.589 299.6 973.253 292.015 985.029C278.473 1006.06 255.482 1018.61 230.522 1018.61ZM230.522 872.741C194.745 872.741 164.564 898.317 158.761 933.564C158.112 937.475 157.782 941.493 157.782 945.505C157.782 985.625 190.415 1018.26 230.522 1018.26C255.365 1018.26 278.243 1005.77 291.72 984.841C299.269 973.123 303.262 959.524 303.262 945.505C303.262 905.379 270.629 872.741 230.522 872.741Z" fill="white"/>
</g>
<g opacity="0.39">
<path fill-rule="evenodd" clip-rule="evenodd" d="M230.523 1018.54C190.263 1018.54 157.518 985.772 157.518 945.505C157.518 941.475 157.848 937.445 158.497 933.516C161.275 916.648 169.998 901.196 183.056 890.009C196.256 878.699 213.112 872.469 230.523 872.469C270.778 872.469 303.529 905.231 303.529 945.505C303.529 959.57 299.525 973.223 291.951 984.988C278.421 1005.99 255.454 1018.54 230.523 1018.54ZM230.523 872.817C194.787 872.817 164.637 898.37 158.833 933.575C158.19 937.481 157.86 941.499 157.86 945.505C157.86 985.584 190.458 1018.19 230.523 1018.19C255.342 1018.19 278.197 1005.71 291.662 984.799C299.2 973.093 303.187 959.506 303.187 945.505C303.187 905.42 270.589 872.817 230.523 872.817Z" fill="white"/>
</g>
<g opacity="0.38">
<path fill-rule="evenodd" clip-rule="evenodd" d="M230.523 1018.46C190.31 1018.46 157.594 985.732 157.594 945.506C157.594 941.482 157.924 937.459 158.573 933.529C161.351 916.679 170.062 901.239 183.109 890.07C196.297 878.771 213.136 872.553 230.523 872.553C270.736 872.553 303.452 905.28 303.452 945.506C303.452 959.56 299.453 973.195 291.886 984.942C278.368 1005.93 255.43 1018.46 230.523 1018.46ZM230.523 872.889C194.822 872.889 164.707 898.418 158.909 933.588C158.26 937.494 157.936 941.506 157.936 945.506C157.936 985.544 190.499 1018.12 230.523 1018.12C255.312 1018.12 278.144 1005.64 291.597 984.759C299.129 973.065 303.11 959.495 303.11 945.506C303.11 905.463 270.547 872.889 230.523 872.889Z" fill="white"/>
</g>
<g opacity="0.37">
<path fill-rule="evenodd" clip-rule="evenodd" d="M230.522 1018.38C190.351 1018.38 157.67 985.691 157.67 945.506C157.67 941.488 158 937.464 158.649 933.546C161.421 916.708 170.127 901.285 183.155 890.128C196.332 878.842 213.153 872.629 230.522 872.629C270.694 872.629 303.375 905.321 303.375 945.506C303.375 959.542 299.376 973.165 291.821 984.9C278.32 1005.87 255.406 1018.38 230.522 1018.38ZM230.522 872.965C194.857 872.965 164.771 898.465 158.985 933.6C158.336 937.499 158.006 941.505 158.006 945.506C158.006 985.502 190.54 1018.04 230.522 1018.04C255.288 1018.04 278.096 1005.59 291.532 984.717C299.058 973.041 303.033 959.477 303.033 945.506C303.033 905.51 270.505 872.965 230.522 872.965Z" fill="white"/>
</g>
<g opacity="0.37">
<path fill-rule="evenodd" clip-rule="evenodd" d="M230.522 1018.31C190.392 1018.31 157.746 985.643 157.746 945.505C157.746 941.493 158.076 937.475 158.725 933.558C161.497 916.737 170.191 901.332 183.208 890.187C196.366 878.912 213.17 872.705 230.522 872.705C270.652 872.705 303.298 905.362 303.298 945.505C303.298 959.529 299.305 973.141 291.749 984.858C278.267 1005.8 255.376 1018.31 230.522 1018.31ZM230.522 873.041C194.898 873.041 164.841 898.512 159.055 933.611C158.413 937.511 158.082 941.511 158.082 945.505C158.082 985.46 190.58 1017.97 230.522 1017.97C255.264 1017.97 278.042 1005.52 291.466 984.675C298.986 973.011 302.962 959.465 302.962 945.505C302.962 905.55 270.463 873.041 230.522 873.041Z" fill="white"/>
</g>
<g opacity="0.36">
<path fill-rule="evenodd" clip-rule="evenodd" d="M230.523 1018.23C190.434 1018.23 157.824 985.601 157.824 945.505C157.824 941.499 158.155 937.481 158.803 933.569C161.569 916.766 170.257 901.379 183.257 890.245C196.403 878.982 213.189 872.781 230.523 872.781C270.606 872.781 303.223 905.402 303.223 945.505C303.223 959.511 299.235 973.111 291.686 984.816C278.215 1005.74 255.354 1018.23 230.523 1018.23ZM230.523 873.118C194.935 873.118 164.908 898.564 159.134 933.622C158.485 937.522 158.16 941.516 158.16 945.505C158.16 985.418 190.623 1017.89 230.523 1017.89C255.236 1017.89 277.997 1005.46 291.409 984.633C298.917 972.981 302.886 959.446 302.886 945.505C302.886 905.591 270.424 873.118 230.523 873.118Z" fill="white"/>
</g>
<g opacity="0.35">
<path fill-rule="evenodd" clip-rule="evenodd" d="M230.523 1018.15C190.481 1018.15 157.9 985.561 157.9 945.506C157.9 941.5 158.231 937.488 158.879 933.582C161.64 916.797 170.322 901.427 183.309 890.3C196.438 879.054 213.206 872.859 230.523 872.859C270.565 872.859 303.145 905.445 303.145 945.506C303.145 959.501 299.158 973.083 291.621 984.776C278.167 1005.67 255.324 1018.15 230.523 1018.15ZM230.523 873.19C194.97 873.19 164.978 898.613 159.204 933.635C158.561 937.529 158.237 941.518 158.237 945.506C158.237 985.378 190.664 1017.82 230.523 1017.82C255.212 1017.82 277.949 1005.4 291.343 984.599C298.846 972.953 302.809 959.436 302.809 945.506C302.809 905.634 270.382 873.19 230.523 873.19Z" fill="white"/>
</g>
<g opacity="0.35">
<path fill-rule="evenodd" clip-rule="evenodd" d="M230.522 1018.07C190.522 1018.07 157.977 985.519 157.977 945.506C157.977 941.505 158.307 937.493 158.95 933.593C161.716 916.832 170.38 901.474 183.356 890.358C196.473 879.125 213.223 872.936 230.522 872.936C270.523 872.936 303.062 905.492 303.062 945.506C303.062 959.483 299.087 973.047 291.555 984.735C278.114 1005.61 255.3 1018.07 230.522 1018.07ZM230.522 873.266C195.004 873.266 165.042 898.66 159.28 933.647C158.637 937.535 158.307 941.523 158.307 945.506C158.307 985.336 190.705 1017.74 230.522 1017.74C255.182 1017.74 277.901 1005.34 291.278 984.558C298.774 972.923 302.732 959.418 302.732 945.506C302.732 905.675 270.34 873.266 230.522 873.266Z" fill="white"/>
</g>
<g opacity="0.34">
<path fill-rule="evenodd" clip-rule="evenodd" d="M230.522 1017.99C190.563 1017.99 158.053 985.478 158.053 945.505C158.053 941.505 158.383 937.505 159.026 933.605C161.786 916.861 170.445 901.521 183.408 890.417C196.508 879.195 213.241 873.012 230.522 873.012C270.481 873.012 302.985 905.533 302.985 945.505C302.985 959.47 299.01 973.023 291.49 984.693C278.066 1005.54 255.27 1017.99 230.522 1017.99ZM230.522 873.342C195.045 873.342 165.113 898.712 159.35 933.658C158.707 937.54 158.383 941.528 158.383 945.505C158.383 985.295 190.746 1017.67 230.522 1017.67C255.158 1017.67 277.848 1005.27 291.213 984.516C298.703 972.893 302.661 959.405 302.661 945.505C302.661 905.715 270.298 873.342 230.522 873.342Z" fill="white"/>
</g>
<g opacity="0.33">
<path fill-rule="evenodd" clip-rule="evenodd" d="M230.523 1017.92C190.605 1017.92 158.131 985.43 158.131 945.504C158.131 941.51 158.461 937.516 159.11 933.616C161.864 916.889 170.511 901.567 183.457 890.475C196.551 879.265 213.26 873.088 230.523 873.088C270.441 873.088 302.91 905.573 302.91 945.504C302.91 959.452 298.941 972.993 291.426 984.651C278.014 1005.48 255.248 1017.92 230.523 1017.92ZM230.523 873.418C195.082 873.418 165.179 898.759 159.428 933.669C158.786 937.551 158.461 941.528 158.461 945.504C158.461 985.253 190.788 1017.59 230.523 1017.59C255.136 1017.59 277.802 1005.21 291.155 984.474C298.634 972.869 302.586 959.387 302.586 945.504C302.586 905.756 270.258 873.418 230.523 873.418Z" fill="white"/>
</g>
<g opacity="0.33">
<path fill-rule="evenodd" clip-rule="evenodd" d="M230.523 1017.84C190.652 1017.84 158.213 985.39 158.213 945.506C158.213 941.517 158.537 937.523 159.18 933.635C161.935 916.92 170.575 901.616 183.51 890.536C196.586 879.337 213.283 873.172 230.523 873.172C270.394 873.172 302.833 905.616 302.833 945.506C302.833 959.442 298.869 972.959 291.361 984.611C277.961 1005.41 255.218 1017.84 230.523 1017.84ZM230.523 873.49C195.117 873.49 165.249 898.807 159.505 933.688C158.862 937.559 158.537 941.535 158.537 945.506C158.537 985.213 190.829 1017.52 230.523 1017.52C255.106 1017.52 277.748 1005.15 291.09 984.434C298.563 972.841 302.508 959.377 302.508 945.506C302.508 905.799 270.217 873.49 230.523 873.49Z" fill="white"/>
</g>
<g opacity="0.32">
<path fill-rule="evenodd" clip-rule="evenodd" d="M230.522 1017.76C190.693 1017.76 158.289 985.348 158.289 945.505C158.289 941.523 158.613 937.534 159.256 933.646C162.011 916.949 170.64 901.662 183.556 890.594C196.62 879.408 213.3 873.248 230.522 873.248C270.352 873.248 302.756 905.663 302.756 945.505C302.756 959.423 298.792 972.934 291.296 984.569C277.913 1005.35 255.194 1017.76 230.522 1017.76ZM230.522 873.567C195.152 873.567 165.32 898.854 159.575 933.699C158.938 937.564 158.608 941.541 158.608 945.505C158.608 985.171 190.87 1017.44 230.522 1017.44C255.082 1017.44 277.701 1005.08 291.024 984.392C298.491 972.811 302.431 959.364 302.431 945.505C302.431 905.84 270.175 873.567 230.522 873.567Z" fill="white"/>
</g>
<g opacity="0.31">
<path fill-rule="evenodd" clip-rule="evenodd" d="M230.524 1017.69C190.736 1017.69 158.367 985.306 158.367 945.505C158.367 941.528 158.692 937.54 159.334 933.658C162.083 916.984 170.706 901.709 183.611 890.653C196.657 879.478 213.319 873.324 230.524 873.324C270.312 873.324 302.68 905.703 302.68 945.505C302.68 959.411 298.723 972.904 291.232 984.527C277.861 1005.29 255.166 1017.69 230.524 1017.69ZM230.524 873.643C195.195 873.643 165.386 898.907 159.653 933.711C159.01 937.575 158.686 941.546 158.686 945.505C158.686 985.129 190.913 1017.37 230.524 1017.37C255.06 1017.37 277.655 1005.02 290.967 984.35C298.422 972.781 302.362 959.346 302.362 945.505C302.362 905.88 270.135 873.643 230.524 873.643Z" fill="white"/>
</g>
<g opacity="0.31">
<path fill-rule="evenodd" clip-rule="evenodd" d="M230.523 1017.61C190.776 1017.61 158.443 985.26 158.443 945.506C158.443 941.536 158.768 937.553 159.411 933.671C162.159 917.015 170.77 901.758 183.657 890.713C196.692 879.55 213.336 873.402 230.523 873.402C270.27 873.402 302.603 905.746 302.603 945.506C302.603 959.395 298.646 972.876 291.167 984.482C277.814 1005.23 255.142 1017.61 230.523 1017.61ZM230.523 873.721C195.229 873.721 165.456 898.955 159.723 933.724C159.086 937.588 158.762 941.553 158.762 945.506C158.762 985.089 190.953 1017.29 230.523 1017.29C255.03 1017.29 277.601 1004.96 290.901 984.311C298.351 972.752 302.285 959.336 302.285 945.506C302.285 905.923 270.093 873.721 230.523 873.721Z" fill="white"/>
</g>
<g opacity="0.3">
<path fill-rule="evenodd" clip-rule="evenodd" d="M230.523 1017.53C190.823 1017.53 158.52 985.219 158.52 945.506C158.52 941.535 158.844 937.558 159.487 933.682C162.229 917.044 170.829 901.804 183.71 890.771C196.727 879.62 213.354 873.479 230.523 873.479C270.222 873.479 302.526 905.787 302.526 945.506C302.526 959.377 298.574 972.846 291.101 984.44C277.76 1005.16 255.112 1017.53 230.523 1017.53ZM230.523 873.791C195.264 873.791 165.52 899.002 159.799 933.735C159.157 937.594 158.838 941.553 158.838 945.506C158.838 985.048 190.994 1017.21 230.523 1017.21C255.005 1017.21 277.554 1004.9 290.836 984.269C298.279 972.722 302.207 959.318 302.207 945.506C302.207 905.964 270.051 873.791 230.523 873.791Z" fill="white"/>
</g>
<g opacity="0.29">
<path fill-rule="evenodd" clip-rule="evenodd" d="M230.522 1017.45C190.864 1017.45 158.596 985.177 158.596 945.505C158.596 941.534 158.92 937.564 159.563 933.693C162.3 917.073 170.893 901.851 183.757 890.83C196.762 879.691 213.371 873.555 230.522 873.555C270.181 873.555 302.443 905.834 302.443 945.505C302.443 959.364 298.503 972.816 291.036 984.398C277.706 1005.1 255.088 1017.45 230.522 1017.45ZM230.522 873.867C195.305 873.867 165.591 899.049 159.87 933.746C159.233 937.599 158.908 941.552 158.908 945.505C158.908 985.006 191.035 1017.14 230.522 1017.14C254.981 1017.14 277.5 1004.84 290.771 984.233C298.202 972.698 302.13 959.305 302.13 945.505C302.13 906.005 270.01 873.867 230.522 873.867Z" fill="white"/>
</g>
<g opacity="0.28">
<path fill-rule="evenodd" clip-rule="evenodd" d="M230.524 1017.37C190.907 1017.37 158.674 985.135 158.674 945.505C158.674 941.54 158.998 937.575 159.641 933.705C162.378 917.102 170.959 901.898 183.811 890.888C196.805 879.761 213.39 873.631 230.524 873.631C270.141 873.631 302.368 905.874 302.368 945.505C302.368 959.346 298.428 972.786 290.973 984.356C277.661 1005.03 255.059 1017.37 230.524 1017.37ZM230.524 873.944C195.342 873.944 165.657 899.101 159.948 933.758C159.311 937.605 158.986 941.558 158.986 945.505C158.986 984.964 191.078 1017.07 230.524 1017.07C254.953 1017.07 277.454 1004.78 290.713 984.191C298.133 972.668 302.061 959.287 302.061 945.505C302.061 906.045 269.97 873.944 230.524 873.944Z" fill="white"/>
</g>
<g opacity="0.28">
<path fill-rule="evenodd" clip-rule="evenodd" d="M230.523 1017.3C190.947 1017.3 158.75 985.089 158.75 945.506C158.75 941.547 159.08 937.582 159.717 933.724C162.448 917.133 171.024 901.946 183.864 890.949C196.84 879.833 213.413 873.709 230.523 873.709C270.099 873.709 302.29 905.917 302.29 945.506C302.29 959.336 298.356 972.758 290.907 984.316C277.607 1004.97 255.035 1017.3 230.523 1017.3ZM230.523 874.022C195.377 874.022 165.727 899.15 160.024 933.771C159.387 937.618 159.063 941.565 159.063 945.506C159.063 984.924 191.118 1016.99 230.523 1016.99C254.929 1016.99 277.407 1004.71 290.648 984.151C298.062 972.64 301.984 959.277 301.984 945.506C301.984 906.088 269.928 874.022 230.523 874.022Z" fill="white"/>
</g>
<g opacity="0.27">
<path fill-rule="evenodd" clip-rule="evenodd" d="M230.523 1017.22C190.988 1017.22 158.832 985.047 158.832 945.506C158.832 941.553 159.156 937.594 159.793 933.735C162.524 917.168 171.088 901.993 183.91 891.007C196.874 879.903 213.43 873.785 230.523 873.785C270.051 873.785 302.213 905.958 302.213 945.506C302.213 959.323 298.279 972.728 290.842 984.274C277.559 1004.91 255.005 1017.22 230.523 1017.22ZM230.523 874.092C195.412 874.092 165.792 899.196 160.094 933.782C159.457 937.623 159.139 941.57 159.139 945.506C159.139 984.882 191.159 1016.91 230.523 1016.91C254.905 1016.91 277.359 1004.65 290.582 984.109C297.99 972.61 301.907 959.258 301.907 945.506C301.907 906.129 269.886 874.092 230.523 874.092Z" fill="white"/>
</g>
<g opacity="0.26">
<path fill-rule="evenodd" clip-rule="evenodd" d="M230.522 1017.14C191.035 1017.14 158.908 985.005 158.908 945.505C158.908 941.558 159.227 937.599 159.87 933.746C162.594 917.197 171.153 902.04 183.963 891.066C196.909 879.974 213.447 873.867 230.522 873.867C270.009 873.867 302.136 906.004 302.136 945.505C302.136 959.305 298.208 972.698 290.776 984.233C277.506 1004.84 254.981 1017.14 230.522 1017.14ZM230.522 874.168C195.452 874.168 165.862 899.243 160.17 933.793C159.533 937.634 159.209 941.576 159.209 945.505C159.209 984.84 191.2 1016.84 230.522 1016.84C254.875 1016.84 277.305 1004.59 290.523 984.067C297.919 972.58 301.829 959.246 301.829 945.505C301.829 906.17 269.844 874.168 230.522 874.168Z" fill="white"/>
</g>
<g opacity="0.25">
<path fill-rule="evenodd" clip-rule="evenodd" d="M230.524 1017.07C191.078 1017.07 158.986 984.964 158.986 945.504C158.986 941.563 159.311 937.61 159.948 933.758C162.673 917.226 171.219 902.086 184.012 891.124C196.946 880.044 213.466 873.943 230.524 873.943C269.97 873.943 302.061 906.045 302.061 945.504C302.061 959.287 298.139 972.668 290.713 984.191C277.454 1004.78 254.953 1017.07 230.524 1017.07ZM230.524 874.244C195.489 874.244 165.934 899.296 160.243 933.805C159.612 937.646 159.287 941.581 159.287 945.504C159.287 984.793 191.243 1016.76 230.524 1016.76C254.853 1016.76 277.26 1004.52 290.459 984.026C297.85 972.55 301.76 959.234 301.76 945.504C301.76 906.21 269.804 874.244 230.524 874.244Z" fill="white"/>
</g>
<g opacity="0.25">
<path fill-rule="evenodd" clip-rule="evenodd" d="M230.523 1016.99C191.118 1016.99 159.062 984.924 159.062 945.506C159.062 941.565 159.387 937.618 160.024 933.771C162.743 917.257 171.283 902.135 184.064 891.185C196.981 880.116 213.484 874.021 230.523 874.021C269.928 874.021 301.984 906.088 301.984 945.506C301.984 959.276 298.061 972.64 290.648 984.151C277.407 1004.71 254.929 1016.99 230.523 1016.99ZM230.523 874.322C195.524 874.322 165.999 899.344 160.319 933.818C159.682 937.653 159.363 941.582 159.363 945.506C159.363 984.753 191.283 1016.69 230.523 1016.69C254.829 1016.69 277.206 1004.46 290.394 983.986C297.778 972.522 301.683 959.217 301.683 945.506C301.683 906.253 269.763 874.322 230.523 874.322Z" fill="white"/>
</g>
<g opacity="0.24">
<path fill-rule="evenodd" clip-rule="evenodd" d="M230.523 1016.91C191.159 1016.91 159.139 984.876 159.139 945.505C159.139 941.57 159.463 937.629 160.1 933.782C162.819 917.286 171.348 902.182 184.111 891.243C197.022 880.186 213.501 874.098 230.523 874.098C269.88 874.098 301.906 906.129 301.906 945.505C301.906 959.258 297.99 972.61 290.582 984.109C277.353 1004.65 254.899 1016.91 230.523 1016.91ZM230.523 874.393C195.559 874.393 166.069 899.391 160.395 933.835C159.758 937.658 159.434 941.588 159.434 945.505C159.434 984.711 191.324 1016.61 230.523 1016.61C254.799 1016.61 277.158 1004.4 290.329 983.944C297.707 972.498 301.606 959.205 301.606 945.505C301.606 906.294 269.721 874.393 230.523 874.393Z" fill="white"/>
</g>
<g opacity="0.24">
<path fill-rule="evenodd" clip-rule="evenodd" d="M230.522 1016.83C191.206 1016.83 159.215 984.834 159.215 945.505C159.215 941.57 159.539 937.634 160.176 933.799C162.889 917.321 171.406 902.228 184.164 891.302C197.057 880.257 213.518 874.174 230.522 874.174C269.838 874.174 301.829 906.17 301.829 945.505C301.829 959.246 297.913 972.58 290.517 984.067C277.305 1004.58 254.875 1016.83 230.522 1016.83ZM230.522 874.469C195.6 874.469 166.133 899.438 160.465 933.846C159.834 937.664 159.51 941.587 159.51 945.505C159.51 984.669 191.365 1016.53 230.522 1016.53C254.775 1016.53 277.111 1004.34 290.269 983.902C297.636 972.468 301.529 959.187 301.529 945.505C301.529 906.335 269.679 874.469 230.522 874.469Z" fill="white"/>
</g>
<g opacity="0.23">
<path fill-rule="evenodd" clip-rule="evenodd" d="M230.524 1016.75C191.249 1016.75 159.293 984.794 159.293 945.506C159.293 941.577 159.617 937.642 160.248 933.812C162.962 917.351 171.472 902.277 184.212 891.362C197.093 880.329 213.537 874.252 230.524 874.252C269.799 874.252 301.754 906.218 301.754 945.506C301.754 959.23 297.844 972.552 290.453 984.021C277.254 1004.52 254.847 1016.75 230.524 1016.75ZM230.524 874.547C195.637 874.547 166.205 899.492 160.543 933.86C159.906 937.677 159.588 941.595 159.588 945.506C159.588 984.629 191.408 1016.47 230.524 1016.47C254.753 1016.47 277.059 1004.28 290.206 983.868C297.566 972.44 301.459 959.177 301.459 945.506C301.459 906.377 269.639 874.547 230.524 874.547Z" fill="white"/>
</g>
<g opacity="0.22">
<path fill-rule="evenodd" clip-rule="evenodd" d="M230.523 1016.68C191.289 1016.68 159.369 984.753 159.369 945.506C159.369 941.582 159.694 937.647 160.331 933.824C163.038 917.38 171.537 902.324 184.265 891.42C197.128 880.399 213.56 874.328 230.523 874.328C269.757 874.328 301.671 906.259 301.671 945.506C301.671 959.217 297.772 972.522 290.388 983.98C277.2 1004.46 254.823 1016.68 230.523 1016.68ZM230.523 874.623C195.672 874.623 166.27 899.539 160.614 933.871C159.983 937.682 159.664 941.594 159.664 945.506C159.664 984.587 191.449 1016.39 230.523 1016.39C254.723 1016.39 277.011 1004.22 290.14 983.826C297.495 972.41 301.382 959.158 301.382 945.506C301.382 906.418 269.592 874.623 230.523 874.623Z" fill="white"/>
</g>
<g opacity="0.22">
<path fill-rule="evenodd" clip-rule="evenodd" d="M230.522 1016.6C191.33 1016.6 159.451 984.705 159.451 945.505C159.451 941.588 159.77 937.658 160.401 933.835C163.108 917.409 171.601 902.364 184.311 891.479C197.163 880.469 213.577 874.404 230.522 874.404C269.709 874.404 301.594 906.3 301.594 945.505C301.594 959.199 297.695 972.492 290.323 983.938C277.152 1004.39 254.799 1016.6 230.522 1016.6ZM230.522 874.693C195.706 874.693 166.34 899.585 160.69 933.882C160.059 937.694 159.734 941.599 159.734 945.505C159.734 984.545 191.489 1016.31 230.522 1016.31C254.699 1016.31 276.964 1004.15 290.075 983.784C297.424 972.38 301.305 959.146 301.305 945.505C301.305 906.459 269.556 874.693 230.522 874.693Z" fill="white"/>
</g>
<g opacity="0.21">
<path fill-rule="evenodd" clip-rule="evenodd" d="M230.522 1016.52C191.377 1016.52 159.527 984.663 159.527 945.505C159.527 941.593 159.846 937.669 160.477 933.846C163.184 917.438 171.665 902.411 184.364 891.537C197.198 880.54 213.595 874.48 230.522 874.48C269.667 874.48 301.517 906.34 301.517 945.505C301.517 959.187 297.624 972.462 290.257 983.896C277.099 1004.33 254.769 1016.52 230.522 1016.52ZM230.522 874.77C195.747 874.77 166.41 899.638 160.76 933.893C160.129 937.699 159.81 941.605 159.81 945.505C159.81 984.504 191.53 1016.23 230.522 1016.23C254.674 1016.23 276.91 1004.09 290.015 983.743C297.353 972.356 301.234 959.128 301.234 945.505C301.234 906.5 269.508 874.77 230.522 874.77Z" fill="white"/>
</g>
<g opacity="0.2">
<path fill-rule="evenodd" clip-rule="evenodd" d="M230.523 1016.45C191.419 1016.45 159.605 984.623 159.605 945.506C159.605 941.594 159.924 937.677 160.555 933.859C163.256 917.469 171.732 902.46 184.413 891.598C197.235 880.612 213.614 874.564 230.523 874.564C269.627 874.564 301.441 906.389 301.441 945.506C301.441 959.17 297.549 972.434 290.194 983.856C277.047 1004.26 254.741 1016.45 230.523 1016.45ZM230.523 874.848C195.784 874.848 166.477 899.687 160.838 933.907C160.207 937.706 159.889 941.612 159.889 945.506C159.889 984.464 191.573 1016.16 230.523 1016.16C254.646 1016.16 276.864 1004.03 289.952 983.703C297.283 972.322 301.158 959.117 301.158 945.506C301.158 906.542 269.468 874.848 230.523 874.848Z" fill="white"/>
</g>
<g opacity="0.19">
<path fill-rule="evenodd" clip-rule="evenodd" d="M230.523 1016.37C191.46 1016.37 159.682 984.581 159.682 945.506C159.682 941.6 160 937.688 160.631 933.877C163.333 917.504 171.796 902.506 184.465 891.656C197.276 880.682 213.631 874.641 230.523 874.641C269.586 874.641 301.364 906.43 301.364 945.506C301.364 959.158 297.477 972.404 290.128 983.814C276.999 1004.2 254.717 1016.37 230.523 1016.37ZM230.523 874.924C195.819 874.924 166.547 899.733 160.908 933.918C160.283 937.718 159.965 941.617 159.965 945.506C159.965 984.422 191.614 1016.09 230.523 1016.09C254.622 1016.09 276.811 1003.96 289.887 983.661C297.212 972.297 301.081 959.099 301.081 945.506C301.081 906.583 269.426 874.924 230.523 874.924Z" fill="white"/>
</g>
<g opacity="0.19">
<path fill-rule="evenodd" clip-rule="evenodd" d="M230.522 1016.29C191.501 1016.29 159.758 984.534 159.758 945.505C159.758 941.605 160.076 937.699 160.707 933.888C163.403 917.533 171.861 902.553 184.512 891.715C197.311 880.752 213.648 874.717 230.522 874.717C269.544 874.717 301.287 906.471 301.287 945.505C301.287 959.14 297.406 972.374 290.057 983.772C276.946 1004.13 254.693 1016.29 230.522 1016.29ZM230.522 874.994C195.86 874.994 166.611 899.78 160.985 933.929C160.359 937.729 160.035 941.623 160.035 945.505C160.035 984.38 191.654 1016.01 230.522 1016.01C254.592 1016.01 276.763 1003.9 289.827 983.619C297.141 972.267 301.004 959.087 301.004 945.505C301.004 906.624 269.385 874.994 230.522 874.994Z" fill="white"/>
</g>
<g opacity="0.18">
<path fill-rule="evenodd" clip-rule="evenodd" d="M230.522 1016.22C191.542 1016.22 159.834 984.492 159.834 945.504C159.834 941.605 160.152 937.705 160.784 933.899C163.473 917.562 171.919 902.6 184.564 891.773C197.345 880.823 213.665 874.793 230.522 874.793C269.496 874.793 301.21 906.511 301.21 945.504C301.21 959.128 297.329 972.344 289.992 983.731C276.898 1004.07 254.663 1016.22 230.522 1016.22ZM230.522 875.07C195.895 875.07 166.682 899.833 161.061 933.94C160.43 937.734 160.111 941.622 160.111 945.504C160.111 984.338 191.695 1015.93 230.522 1015.93C254.568 1015.93 276.715 1003.84 289.762 983.577C297.069 972.237 300.933 959.069 300.933 945.504C300.933 906.665 269.343 875.07 230.522 875.07Z" fill="white"/>
</g>
<g opacity="0.17">
<path fill-rule="evenodd" clip-rule="evenodd" d="M230.523 1016.13C191.59 1016.13 159.912 984.452 159.912 945.506C159.912 941.606 160.231 937.706 160.862 933.912C163.551 917.593 171.985 902.648 184.613 891.834C197.382 880.895 213.684 874.871 230.523 874.871C269.456 874.871 301.135 906.56 301.135 945.506C301.135 959.111 297.26 972.315 289.928 983.691C276.847 1004 254.64 1016.13 230.523 1016.13ZM230.523 875.148C195.931 875.148 166.748 899.881 161.133 933.96C160.508 937.741 160.189 941.624 160.189 945.506C160.189 984.298 191.744 1015.86 230.523 1015.86C254.546 1015.86 276.664 1003.78 289.698 983.537C297 972.209 300.857 959.058 300.857 945.506C300.857 906.707 269.303 875.148 230.523 875.148Z" fill="white"/>
</g>
<g opacity="0.16">
<path fill-rule="evenodd" clip-rule="evenodd" d="M230.523 1016.06C191.631 1016.06 159.988 984.41 159.988 945.505C159.988 941.611 160.307 937.717 160.938 933.924C163.627 917.622 172.05 902.695 184.666 891.892C197.417 880.965 213.702 874.947 230.523 874.947C269.415 874.947 301.052 906.601 301.052 945.505C301.052 959.099 297.188 972.285 289.869 983.649C276.793 1003.94 254.61 1016.06 230.523 1016.06ZM230.523 875.225C195.966 875.225 166.818 899.928 161.209 933.971C160.584 937.747 160.265 941.629 160.265 945.505C160.265 984.257 191.785 1015.79 230.523 1015.79C254.516 1015.79 276.616 1003.71 289.639 983.495C296.929 972.179 300.78 959.046 300.78 945.505C300.78 906.748 269.261 875.225 230.523 875.225Z" fill="white"/>
</g>
<g opacity="0.16">
<path fill-rule="evenodd" clip-rule="evenodd" d="M230.522 1015.98C191.672 1015.98 160.064 984.362 160.064 945.505C160.064 941.623 160.383 937.729 161.014 933.935C163.698 917.657 172.114 902.742 184.712 891.951C197.458 881.036 213.725 875.023 230.522 875.023C269.373 875.023 300.974 906.642 300.974 945.505C300.974 959.081 297.111 972.255 289.798 983.607C276.745 1003.88 254.586 1015.98 230.522 1015.98ZM230.522 875.295C196.007 875.295 166.883 899.975 161.279 933.982C160.654 937.758 160.336 941.634 160.336 945.505C160.336 984.215 191.819 1015.71 230.522 1015.71C254.492 1015.71 276.568 1003.66 289.573 983.46C296.858 972.155 300.703 959.028 300.703 945.505C300.703 906.789 269.219 875.295 230.522 875.295Z" fill="white"/>
</g>
<g opacity="0.15">
<path fill-rule="evenodd" clip-rule="evenodd" d="M230.524 1015.91C191.715 1015.91 160.148 984.322 160.148 945.506C160.148 941.624 160.467 937.736 161.092 933.948C163.77 917.688 172.18 902.79 184.767 892.011C197.495 881.108 213.744 875.102 230.524 875.102C269.327 875.102 300.899 906.684 300.899 945.506C300.899 959.064 297.042 972.227 289.734 983.561C276.694 1003.82 254.558 1015.91 230.524 1015.91ZM230.524 875.373C196.044 875.373 166.955 900.029 161.358 933.995C160.732 937.765 160.414 941.636 160.414 945.506C160.414 984.175 191.868 1015.63 230.524 1015.63C254.47 1015.63 276.517 1003.59 289.51 983.42C296.788 972.127 300.634 959.017 300.634 945.506C300.634 906.832 269.179 875.373 230.524 875.373Z" fill="white"/>
</g>
<g opacity="0.15">
<path fill-rule="evenodd" clip-rule="evenodd" d="M230.523 1015.83C191.761 1015.83 160.225 984.28 160.225 945.506C160.225 941.629 160.543 937.747 161.168 933.965C163.846 917.717 172.245 902.837 184.819 892.063C197.53 881.178 213.761 875.184 230.523 875.184C269.285 875.184 300.822 906.725 300.822 945.506C300.822 959.052 296.965 972.197 289.669 983.519C276.646 1003.75 254.534 1015.83 230.523 1015.83ZM230.523 875.449C196.079 875.449 167.019 900.076 161.434 934.007C160.809 937.777 160.49 941.641 160.49 945.506C160.49 984.133 191.909 1015.56 230.523 1015.56C254.44 1015.56 276.469 1003.53 289.445 983.378C296.711 972.097 300.557 958.999 300.557 945.506C300.557 906.872 269.138 875.449 230.523 875.449Z" fill="white"/>
</g>
<g opacity="0.14">
<path fill-rule="evenodd" clip-rule="evenodd" d="M230.523 1015.75C191.802 1015.75 160.301 984.239 160.301 945.505C160.301 941.635 160.619 937.758 161.244 933.977C163.916 917.746 172.309 902.884 184.866 892.128C197.565 881.248 213.778 875.26 230.523 875.26C269.243 875.26 300.745 906.772 300.745 945.505C300.745 959.034 296.893 972.167 289.603 983.478C276.592 1003.69 254.504 1015.75 230.523 1015.75ZM230.523 875.525C196.114 875.525 167.089 900.122 161.504 934.018C160.879 937.782 160.566 941.647 160.566 945.505C160.566 984.091 191.95 1015.49 230.523 1015.49C254.416 1015.49 276.421 1003.47 289.379 983.336C296.64 972.067 300.479 958.987 300.479 945.505C300.479 906.919 269.096 875.525 230.523 875.525Z" fill="white"/>
</g>
<g opacity="0.13">
<path fill-rule="evenodd" clip-rule="evenodd" d="M230.522 1015.67C211.784 1015.67 194.167 1008.37 180.92 995.118C167.673 981.866 160.377 964.243 160.377 945.505C160.377 941.64 160.695 937.764 161.321 933.988C163.992 917.775 172.374 902.93 184.919 892.18C197.599 881.319 213.795 875.336 230.522 875.336C249.254 875.336 266.872 882.634 280.119 895.886C293.372 909.137 300.668 926.76 300.668 945.505C300.668 959.022 296.822 972.137 289.538 983.436C276.539 1003.62 254.48 1015.67 230.522 1015.67ZM230.522 875.596C196.154 875.596 167.16 900.169 161.58 934.029C160.955 937.793 160.636 941.652 160.636 945.505C160.636 984.049 191.99 1015.41 230.522 1015.41C254.392 1015.41 276.368 1003.4 289.32 983.294C296.568 972.037 300.402 958.968 300.402 945.505C300.402 906.954 269.054 875.596 230.522 875.596Z" fill="white"/>
</g>
<g opacity="0.13">
<path fill-rule="evenodd" clip-rule="evenodd" d="M230.524 1015.6C211.803 1015.6 194.21 1008.31 180.974 995.066C167.745 981.826 160.455 964.227 160.455 945.506C160.455 941.642 160.774 937.771 161.399 934.001C164.065 917.806 172.434 902.979 184.967 892.241C197.636 881.391 213.815 875.414 230.524 875.414C249.238 875.414 266.832 882.701 280.067 895.94C293.302 909.18 300.592 926.779 300.592 945.506C300.592 959.005 296.747 972.109 289.475 983.396C276.493 1003.56 254.452 1015.6 230.524 1015.6ZM230.524 875.674C196.191 875.674 167.226 900.224 161.652 934.042C161.033 937.795 160.715 941.653 160.715 945.506C160.715 984.009 192.033 1015.33 230.524 1015.33C254.364 1015.33 276.322 1003.34 289.256 983.254C296.499 972.009 300.333 958.958 300.333 945.506C300.333 907.003 269.014 875.674 230.524 875.674Z" fill="white"/>
</g>
<g opacity="0.12">
<path fill-rule="evenodd" clip-rule="evenodd" d="M230.523 1015.51C211.826 1015.51 194.25 1008.23 181.027 995.007C167.809 981.785 160.531 964.203 160.531 945.506C160.531 941.647 160.85 937.777 161.469 934.012C164.141 917.84 172.498 903.026 185.02 892.299C197.671 881.461 213.832 875.49 230.523 875.49C249.214 875.49 266.79 882.771 280.014 895.993C293.231 909.221 300.515 926.803 300.515 945.506C300.515 958.993 296.676 972.079 289.409 983.354C276.439 1003.5 254.428 1015.51 230.523 1015.51ZM230.523 875.75C196.226 875.75 167.296 900.27 161.729 934.054C161.103 937.806 160.791 941.659 160.791 945.506C160.791 983.968 192.074 1015.26 230.523 1015.26C254.339 1015.26 276.274 1003.28 289.191 983.212C296.428 971.985 300.256 958.94 300.256 945.506C300.256 907.043 268.972 875.75 230.523 875.75Z" fill="white"/>
</g>
<g opacity="0.11">
<path fill-rule="evenodd" clip-rule="evenodd" d="M230.523 1015.44C211.844 1015.44 194.291 1008.16 181.085 994.953C167.88 981.743 160.607 964.184 160.607 945.505C160.607 941.652 160.926 937.788 161.551 934.024C164.211 917.869 172.563 903.072 185.067 892.358C197.712 881.531 213.855 875.566 230.523 875.566C249.196 875.566 266.748 882.841 279.954 896.051C293.16 909.255 300.432 926.82 300.432 945.505C300.432 958.975 296.598 972.049 289.344 983.312C276.392 1003.43 254.398 1015.44 230.523 1015.44ZM230.523 875.826C196.267 875.826 167.361 900.317 161.799 934.065C161.18 937.817 160.867 941.664 160.867 945.505C160.867 983.926 192.115 1015.18 230.523 1015.18C254.315 1015.18 276.221 1003.22 289.131 983.171C296.357 971.955 300.178 958.927 300.178 945.505C300.178 907.084 268.931 875.826 230.523 875.826Z" fill="white"/>
</g>
<g opacity="0.11">
<path fill-rule="evenodd" clip-rule="evenodd" d="M230.522 1015.36C211.867 1015.36 194.326 1008.1 181.138 994.899C167.95 981.707 160.684 964.16 160.684 945.504C160.684 941.658 161.002 937.799 161.621 934.035C164.281 917.898 172.627 903.119 185.119 892.416C197.747 881.602 213.872 875.643 230.522 875.643C249.172 875.643 266.713 882.911 279.901 896.104C293.094 909.296 300.355 926.843 300.355 945.504C300.355 958.962 296.527 972.019 289.278 983.27C276.338 1003.37 254.374 1015.36 230.522 1015.36ZM230.522 875.896C196.302 875.896 167.431 900.369 161.875 934.082C161.256 937.829 160.937 941.669 160.937 945.504C160.937 983.884 192.156 1015.11 230.522 1015.11C254.285 1015.11 276.173 1003.15 289.066 983.135C296.285 971.925 300.101 958.915 300.101 945.504C300.101 907.125 268.889 875.896 230.522 875.896Z" fill="white"/>
</g>
<g opacity="0.1">
<path fill-rule="evenodd" clip-rule="evenodd" d="M230.524 1015.29C211.886 1015.29 194.369 1008.03 181.193 994.848C168.022 981.667 160.762 964.144 160.762 945.506C160.762 941.659 161.08 937.806 161.7 934.054C164.36 917.929 172.693 903.168 185.168 892.477C197.784 881.674 213.891 875.721 230.524 875.721C249.156 875.721 266.673 882.978 279.849 896.158C293.025 909.339 300.28 926.862 300.28 945.506C300.28 958.946 296.452 971.991 289.215 983.231C276.292 1003.3 254.346 1015.29 230.524 1015.29ZM230.524 875.974C196.339 875.974 167.497 900.418 161.953 934.095C161.328 937.83 161.015 941.671 161.015 945.506C161.015 983.844 192.198 1015.03 230.524 1015.03C254.263 1015.03 276.127 1003.1 289.003 983.095C296.216 971.897 300.026 958.899 300.026 945.506C300.026 907.168 268.849 875.974 230.524 875.974Z" fill="white"/>
</g>
<g opacity="0.09">
<path fill-rule="evenodd" clip-rule="evenodd" d="M230.523 1015.21C211.909 1015.21 194.409 1007.96 181.251 994.788C168.087 981.625 160.844 964.12 160.844 945.505C160.844 941.664 161.156 937.812 161.776 934.065C164.43 917.958 172.758 903.214 185.22 892.535C197.819 881.744 213.908 875.797 230.523 875.797C249.131 875.797 266.631 883.048 279.795 896.211C292.954 909.38 300.203 926.885 300.203 945.505C300.203 958.934 296.381 971.961 289.15 983.189C276.239 1003.24 254.322 1015.21 230.523 1015.21ZM230.523 876.051C196.374 876.051 167.568 900.465 162.023 934.107C161.404 937.841 161.091 941.676 161.091 945.505C161.091 983.802 192.239 1014.96 230.523 1014.96C254.233 1014.96 276.074 1003.03 288.943 983.053C296.145 971.867 299.955 958.887 299.955 945.505C299.955 907.208 268.807 876.051 230.523 876.051Z" fill="white"/>
</g>
<g opacity="0.08">
<path fill-rule="evenodd" clip-rule="evenodd" d="M230.523 1015.13C211.926 1015.13 194.45 1007.89 181.304 994.734C168.157 981.583 160.92 964.102 160.92 945.505C160.92 941.67 161.233 937.823 161.852 934.077C164.506 917.993 172.822 903.261 185.267 892.594C197.853 881.814 213.926 875.879 230.523 875.879C249.113 875.879 266.589 883.118 279.736 896.269C292.883 909.42 300.125 926.902 300.125 945.505C300.125 958.916 296.309 971.931 289.084 983.147C276.185 1003.17 254.292 1015.13 230.523 1015.13ZM230.523 876.121C196.414 876.121 167.632 900.511 162.1 934.118C161.48 937.853 161.168 941.682 161.168 945.505C161.168 983.76 192.28 1014.88 230.523 1014.88C254.209 1014.88 276.026 1002.96 288.878 983.011C296.073 971.837 299.878 958.868 299.878 945.505C299.878 907.249 268.765 876.121 230.523 876.121Z" fill="white"/>
</g>
<g opacity="0.07">
<path fill-rule="evenodd" clip-rule="evenodd" d="M230.522 1015.06C211.949 1015.06 194.491 1007.82 181.356 994.683C168.227 981.543 160.996 964.079 160.996 945.506C160.996 941.665 161.309 937.83 161.928 934.09C164.576 918.024 172.887 903.309 185.32 892.654C197.888 881.887 213.943 875.957 230.522 875.957C249.089 875.957 266.547 883.19 279.682 896.324C292.817 909.457 300.048 926.927 300.048 945.506C300.048 958.905 296.232 971.903 289.019 983.107C276.138 1003.11 254.268 1015.06 230.522 1015.06ZM230.522 876.199C196.449 876.199 167.702 900.566 162.17 934.131C161.556 937.854 161.244 941.683 161.244 945.506C161.244 983.721 192.321 1014.81 230.522 1014.81C254.185 1014.81 275.972 1002.91 288.812 982.971C296.002 971.814 299.8 958.858 299.8 945.506C299.8 907.292 268.724 876.199 230.522 876.199Z" fill="white"/>
</g>
<g opacity="0.07">
<path fill-rule="evenodd" clip-rule="evenodd" d="M230.524 1014.98C211.968 1014.98 194.528 1007.75 181.411 994.629C168.299 981.507 161.074 964.061 161.074 945.506C161.074 941.671 161.387 937.836 162.006 934.101C164.654 918.053 172.947 903.356 185.368 892.713C197.931 881.957 213.962 876.033 230.524 876.033C249.073 876.033 266.513 883.261 279.631 896.376C292.748 909.498 299.973 926.944 299.973 945.506C299.973 958.887 296.163 971.873 288.955 983.059C276.086 1003.04 254.24 1014.98 230.524 1014.98ZM230.524 876.275C196.486 876.275 167.774 900.613 162.248 934.142C161.629 937.865 161.316 941.688 161.316 945.506C161.316 983.679 192.363 1014.73 230.524 1014.73C254.157 1014.73 275.927 1002.84 288.749 982.929C295.933 971.784 299.725 958.84 299.725 945.506C299.725 907.333 268.684 876.275 230.524 876.275Z" fill="white"/>
</g>
<g opacity="0.06">
<path fill-rule="evenodd" clip-rule="evenodd" d="M230.523 1014.9C211.991 1014.9 194.569 1007.68 181.469 994.57C168.364 981.466 161.15 964.037 161.15 945.505C161.15 941.676 161.463 937.847 162.082 934.112C164.725 918.082 173.011 903.403 185.421 892.771C197.966 882.027 213.979 876.109 230.523 876.109C249.049 876.109 266.472 883.325 279.571 896.435C292.677 909.539 299.896 926.967 299.896 945.505C299.896 958.875 296.086 971.849 288.89 983.017C276.032 1002.98 254.215 1014.9 230.523 1014.9ZM230.523 876.351C196.521 876.351 167.839 900.659 162.318 934.154C161.705 937.876 161.392 941.694 161.392 945.505C161.392 983.637 192.404 1014.66 230.523 1014.66C254.133 1014.66 275.879 1002.78 288.689 982.888C295.862 971.754 299.654 958.827 299.654 945.505C299.654 907.373 268.642 876.351 230.523 876.351Z" fill="white"/>
</g>
<g opacity="0.05">
<path fill-rule="evenodd" clip-rule="evenodd" d="M230.523 1014.82C212.015 1014.82 194.609 1007.61 181.522 994.516C168.434 981.424 161.227 964.019 161.227 945.505C161.227 941.681 161.539 937.858 162.158 934.129C164.795 918.111 173.076 903.449 185.473 892.829C198.001 882.097 214.002 876.186 230.523 876.186C249.031 876.186 266.43 883.395 279.518 896.487C292.605 909.58 299.819 926.985 299.819 945.505C299.819 958.856 296.014 971.813 288.825 982.976C275.985 1002.92 254.185 1014.82 230.523 1014.82ZM230.523 876.422C196.562 876.422 167.909 900.706 162.394 934.165C161.781 937.882 161.468 941.699 161.468 945.505C161.468 983.595 192.445 1014.58 230.523 1014.58C254.109 1014.58 275.825 1002.72 288.624 982.846C295.79 971.724 299.577 958.809 299.577 945.505C299.577 907.414 268.6 876.422 230.523 876.422Z" fill="white"/>
</g>
<g opacity="0.05">
<path fill-rule="evenodd" clip-rule="evenodd" d="M230.522 1014.74C212.032 1014.74 194.65 1007.54 181.574 994.464C168.504 981.384 161.303 963.997 161.303 945.506C161.303 941.689 161.615 937.866 162.235 934.143C164.871 918.142 173.14 903.498 185.52 892.89C198.036 882.17 214.019 876.264 230.522 876.264C249.007 876.264 266.388 883.468 279.464 896.542C292.54 909.622 299.741 927.01 299.741 945.506C299.741 958.84 295.943 971.785 288.759 982.936C275.931 1002.85 254.161 1014.74 230.522 1014.74ZM230.522 876.5C196.597 876.5 167.973 900.76 162.471 934.178C161.851 937.889 161.539 941.701 161.539 945.506C161.539 983.555 192.486 1014.51 230.522 1014.51C254.079 1014.51 275.778 1002.66 288.559 982.806C295.719 971.696 299.5 958.799 299.5 945.506C299.5 907.457 268.558 876.5 230.522 876.5Z" fill="white"/>
</g>
<g opacity="0.04">
<path fill-rule="evenodd" clip-rule="evenodd" d="M230.524 1014.67C212.051 1014.67 194.687 1007.47 181.635 994.405C168.576 981.342 161.381 963.978 161.381 945.506C161.381 941.694 161.693 937.877 162.313 934.154C164.943 918.177 173.206 903.539 185.575 892.948C198.073 882.24 214.039 876.34 230.524 876.34C248.99 876.34 266.348 883.538 279.412 896.595C292.471 909.657 299.66 927.027 299.66 945.506C299.66 958.828 295.868 971.755 288.696 982.894C275.885 1002.79 254.139 1014.67 230.524 1014.67ZM230.524 876.576C196.633 876.576 168.046 900.807 162.543 934.189C161.929 937.9 161.617 941.706 161.617 945.506C161.617 983.513 192.528 1014.43 230.524 1014.43C254.057 1014.43 275.732 1002.59 288.495 982.764C295.65 971.666 299.43 958.781 299.43 945.506C299.43 907.498 268.519 876.576 230.524 876.576Z" fill="white"/>
</g>
<g opacity="0.04">
<path fill-rule="evenodd" clip-rule="evenodd" d="M230.523 1014.59C212.074 1014.59 194.728 1007.4 181.687 994.351C168.641 981.306 161.463 963.954 161.463 945.505C161.463 941.7 161.77 937.882 162.389 934.165C165.019 918.206 173.271 903.586 185.621 893.007C198.107 882.31 214.056 876.416 230.523 876.416C248.966 876.416 266.312 883.602 279.353 896.653C292.399 909.698 299.583 927.05 299.583 945.505C299.583 958.81 295.797 971.725 288.63 982.852C275.832 1002.72 254.109 1014.59 230.523 1014.59ZM230.523 876.652C196.668 876.652 168.11 900.854 162.619 934.201C162.006 937.912 161.693 941.711 161.693 945.505C161.693 983.472 192.569 1014.36 230.523 1014.36C254.033 1014.36 275.678 1002.53 288.436 982.728C295.578 971.642 299.353 958.768 299.353 945.505C299.353 907.539 268.477 876.652 230.523 876.652Z" fill="white"/>
</g>
<g opacity="0.03">
<path fill-rule="evenodd" clip-rule="evenodd" d="M230.522 1014.51C212.091 1014.51 194.769 1007.33 181.74 994.297C168.711 981.264 161.539 963.936 161.539 945.504C161.539 941.705 161.846 937.893 162.465 934.176C165.09 918.235 173.335 903.632 185.668 893.065C198.142 882.38 214.073 876.498 230.522 876.498C248.948 876.498 266.27 883.672 279.299 896.706C292.328 909.739 299.506 927.067 299.506 945.504C299.506 958.797 295.725 971.695 288.565 982.81C275.778 1002.66 254.085 1014.51 230.522 1014.51ZM230.522 876.728C196.709 876.728 168.18 900.9 162.689 934.212C162.076 937.917 161.769 941.717 161.769 945.504C161.769 983.43 192.61 1014.28 230.522 1014.28C254.003 1014.28 275.631 1002.47 288.37 982.686C295.507 971.612 299.276 958.75 299.276 945.504C299.276 907.579 268.435 876.728 230.522 876.728Z" fill="white"/>
</g>
<g opacity="0.02">
<path fill-rule="evenodd" clip-rule="evenodd" d="M230.522 1014.44C212.114 1014.44 194.809 1007.26 181.792 994.246C168.781 981.224 161.615 963.914 161.615 945.506C161.615 941.7 161.928 937.895 162.541 934.19C165.166 918.266 173.4 903.681 185.72 893.126C198.183 882.453 214.09 876.576 230.522 876.576C248.924 876.576 266.229 883.745 279.246 896.76C292.263 909.781 299.429 927.092 299.429 945.506C299.429 958.787 295.648 971.672 288.5 982.77C275.73 1002.59 254.055 1014.44 230.522 1014.44ZM230.522 876.8C196.744 876.8 168.251 900.955 162.765 934.231C162.152 937.918 161.839 941.712 161.839 945.506C161.839 983.39 192.651 1014.21 230.522 1014.21C253.978 1014.21 275.577 1002.41 288.305 982.646C295.436 971.584 299.199 958.74 299.199 945.506C299.199 907.622 268.393 876.8 230.522 876.8Z" fill="white"/>
</g>
<g opacity="0.02">
<path fill-rule="evenodd" clip-rule="evenodd" d="M230.523 1014.36C212.133 1014.36 194.852 1007.2 181.853 994.186C168.854 981.183 161.693 963.896 161.693 945.505C161.693 941.706 162.006 937.906 162.619 934.201C165.238 918.295 173.46 903.727 185.775 893.184C198.22 882.523 214.109 876.652 230.523 876.652C248.908 876.652 266.189 883.815 279.194 896.813C292.193 909.822 299.353 927.109 299.353 945.505C299.353 958.769 295.579 971.642 288.436 982.728C275.679 1002.53 254.033 1014.36 230.523 1014.36ZM230.523 876.877C196.781 876.877 168.317 901.002 162.838 934.242C162.23 937.93 161.917 941.718 161.917 945.505C161.917 983.342 192.693 1014.13 230.523 1014.13C253.956 1014.13 275.531 1002.35 288.247 982.605C295.366 971.554 299.129 958.727 299.129 945.505C299.129 907.663 268.353 876.877 230.523 876.877Z" fill="white"/>
</g>
<g opacity="0.01">
<path fill-rule="evenodd" clip-rule="evenodd" d="M230.523 1014.28C212.156 1014.28 194.887 1007.12 181.905 994.133C168.918 981.141 161.77 963.872 161.77 945.505C161.77 941.711 162.082 937.917 162.696 934.218C165.314 918.329 173.524 903.774 185.822 893.243C198.255 882.593 214.126 876.729 230.523 876.729C248.883 876.729 266.153 883.879 279.135 896.871C292.122 909.857 299.276 927.132 299.276 945.505C299.276 958.756 295.502 971.612 288.371 982.687C275.631 1002.47 254.003 1014.28 230.523 1014.28ZM230.523 876.953C196.816 876.953 168.387 901.048 162.914 934.254C162.3 937.941 161.994 941.723 161.994 945.505C161.994 983.3 192.734 1014.06 230.523 1014.06C253.926 1014.06 275.484 1002.28 288.182 982.563C295.295 971.524 299.052 958.709 299.052 945.505C299.052 907.704 268.312 876.953 230.523 876.953Z" fill="white"/>
</g>
<path d="M298.645 945.506C298.645 959.07 294.681 971.72 287.84 982.346C275.713 1001.17 254.569 1013.65 230.523 1013.65C192.893 1013.65 162.4 983.137 162.4 945.506C162.4 941.695 162.713 937.96 163.315 934.32C168.641 902.006 196.697 877.361 230.523 877.361C268.14 877.361 298.645 907.864 298.645 945.506Z" fill="white"/>
<rect x="164" y="879" width="133" height="133" rx="2" fill="white"/>
</g>
<path opacity="0.1" d="M1354.17 360.04C1349.55 365.665 1331.33 380.884 1313.2 393.504C1295.33 406.405 1268.5 422.237 1253.44 429.108C1238.37 435.979 1215.71 444.585 1203.35 448.545C1190.74 452.224 1161.94 457.731 1139.23 460.337C1113.63 463.495 1081.12 463.75 1052.89 460.7C1028.02 458.18 992.64 451.427 974.102 446.288L953.188 439.916C948.607 438.52 944.669 443.462 947.02 447.633C967.405 483.801 982.617 514.391 994.206 539.142C1006.75 566.739 1024.42 610.91 1033.35 637.696C1042.55 664.242 1054.38 704.555 1060.07 727.171C1065.77 749.786 1073.31 786.366 1076.7 808.014C1080.09 829.663 1084.17 861.272 1085.92 877.835C1087.41 894.638 1089.18 910.682 1089.59 913.843C1090.24 917.284 1104.74 918.971 1136.74 918.674C1162.24 918.116 1203.67 915.449 1229 912.531C1254.07 909.332 1300.93 900.324 1333.47 891.989C1365.49 883.613 1410.46 869.239 1432.62 860.072C1455.04 851.185 1486.49 836.768 1502.67 827.901C1519.09 819.314 1545.92 803.483 1562.93 792.858C1579.7 781.954 1613.06 757.784 1636.61 738.822L1674.86 707.925C1677.21 706.029 1677.5 702.557 1675.49 700.304L1367.02 353.918C1364.85 351.483 1361.01 351.575 1358.96 354.111L1354.17 360.04ZM569.922 486.545L412.658 626.597C410.634 628.399 410.304 631.441 411.89 633.639C425.362 652.307 437.289 669.208 447.481 683.687C457.853 699.119 472.81 724.564 480.053 740.265C487.296 755.967 497.549 782.076 502.699 798.131C507.849 814.186 514.612 843.404 517.828 862.692C521.043 881.98 522.649 917.301 521.8 941.215C520.951 965.129 516.585 1000.23 512.291 1018.66C507.978 1037.6 499.241 1064.01 493.557 1077.63C487.873 1091.25 475.867 1114.53 467.035 1128.94C458.203 1143.35 439.381 1168.16 425.827 1183.76C412.005 1199.59 394.516 1216.17 387.59 1220.83L379.938 1225.84C377.239 1227.6 376.739 1231.35 378.883 1233.76L687.134 1580.43C689.149 1582.69 692.67 1582.79 694.819 1580.65C750.61 1525.1 777.743 1496.03 790.759 1480.01C804.063 1464.14 824.82 1436.09 836.892 1418.29C848.696 1400.73 866.915 1370.91 876.931 1352.43C886.948 1333.94 904.443 1295.2 915.616 1266.12C926.77 1237.56 940.478 1195.65 946.207 1173.43C951.418 1151.17 957.692 1120.91 960.57 1105.76C963.179 1090.86 966.916 1058.83 969.071 1034.76C971.225 1010.69 972.591 972.22 971.848 949.22C971.104 926.221 968.535 888.737 965.949 866.371C963.381 843.486 957.7 805.752 952.809 782.419C948.185 758.847 938.606 721.061 931.354 698.32C924.101 675.58 911.568 640.424 903.186 620.199C895.072 599.736 879.105 566.129 868.399 545.457C857.442 524.504 838.095 490.886 825.296 470.567C812.497 450.249 788.002 415.174 770.841 393.202C753.949 370.99 737.771 350.661 735.27 347.853C731.27 343.361 721.622 351.449 570.191 486.306L569.922 486.545Z" fill="url(#paint2_linear_5141_5712)"/>
</g>
<defs>
<linearGradient id="paint0_linear_5141_5712" x1="461" y1="709.5" x2="172.749" y2="1188.05" gradientUnits="userSpaceOnUse">
<stop stop-color="#18191E" stop-opacity="0"/>
<stop offset="0.910308" stop-color="#18191E" stop-opacity="0.9"/>
</linearGradient>
<linearGradient id="paint1_linear_5141_5712" x1="285.5" y1="804" x2="-36.5998" y2="1126.92" gradientUnits="userSpaceOnUse">
<stop stop-color="#A91E1E"/>
<stop offset="1" stop-color="#FF6064"/>
</linearGradient>
<linearGradient id="paint2_linear_5141_5712" x1="586.166" y1="472.079" x2="1185.01" y2="1144.52" gradientUnits="userSpaceOnUse">
<stop stop-color="#FF0000" stop-opacity="0.15"/>
<stop offset="1" stop-color="#CB3030"/>
</linearGradient>
<clipPath id="clip0_5141_5712">
<rect width="1080" height="1080" fill="white"/>
</clipPath>
<clipPath id="clip1_5141_5712">
<rect width="160" height="26.1224" fill="white" transform="translate(341 906)"/>
</clipPath>
<clipPath id="clip2_5141_5712">
<rect width="177" height="177" fill="white" transform="translate(142 857)"/>
</clipPath>
</defs>
</svg>
